<svg width="130" height="130" viewBox="0 0 130 130" fill="none" xmlns="http://www.w3.org/2000/svg">
<path style="mix-blend-mode:screen" d="M65 100C84.33 100 100 84.33 100 65C100 45.67 84.33 30 65 30C45.67 30 30 45.67 30 65C30 84.33 45.67 100 65 100Z" fill="url(#paint0_radial_402_183)"/>
<path style="mix-blend-mode:screen" d="M66.698 92.8257C81.6957 92.8257 93.8537 80.6676 93.8537 65.6699C93.8537 50.6722 81.6957 38.5142 66.698 38.5142C51.7003 38.5142 39.5422 50.6722 39.5422 65.6699C39.5422 80.6676 51.7003 92.8257 66.698 92.8257Z" fill="url(#paint1_radial_402_183)"/>
<path fill-rule="evenodd" clip-rule="evenodd" d="M89.8316 64.8018C89.8344 67.9791 89.2106 71.1258 87.9958 74.0618C86.781 76.9977 84.9992 79.6652 82.7522 81.9117C80.5053 84.1582 77.8374 85.9395 74.9012 87.1537C71.965 88.3678 68.8182 88.991 65.6409 88.9876C65.2119 88.9876 64.778 88.9769 64.3541 88.9514H64.3491C63.716 88.9209 63.0878 88.86 62.4703 88.7834C57.916 88.1861 53.6282 86.2962 50.1147 83.3376C47.8482 81.4301 45.9439 79.1297 44.4931 76.5469C44.3449 76.2818 44.2024 76.0109 44.0592 75.7408C44.0592 75.7302 44.0542 75.7252 44.0493 75.7153C43.9011 75.4239 43.7657 75.1332 43.6303 74.8368H43.6253C43.2022 73.9085 42.8406 72.9533 42.5427 71.9775C42.3168 71.2661 42.1275 70.5437 41.9755 69.8129C41.9715 69.8068 41.9698 69.7996 41.9705 69.7924C41.8635 69.2769 41.7713 68.7558 41.6997 68.2326C41.5357 67.0964 41.4539 65.9498 41.4551 64.8018C41.4551 64.1332 41.4806 63.4639 41.5416 62.811C41.5721 62.3919 41.6182 61.9786 41.6742 61.5653C41.9814 59.2298 42.6346 56.953 43.6125 54.81C45.5343 50.5787 48.6332 46.9899 52.5393 44.4721C56.4454 41.9544 60.9936 40.614 65.6409 40.6111C65.8961 40.6111 66.1513 40.6167 66.4016 40.6217C66.6724 40.6316 66.9426 40.6422 67.2134 40.6621C68.5814 40.7506 69.9393 40.9558 71.2724 41.2754C72.0381 41.459 72.7889 41.6731 73.5241 41.9284C74.0247 42.0971 74.5167 42.2829 74.9995 42.4899C75.3618 42.643 75.7142 42.8018 76.063 42.9699C76.1247 43.0011 76.1857 43.0266 76.2467 43.0571C78.5816 44.199 80.7176 45.709 82.573 47.5294C82.8381 47.7846 83.0934 48.0505 83.3486 48.3206C83.5173 48.5049 83.6861 48.6935 83.8492 48.8821C84.1328 49.199 84.4007 49.5309 84.6659 49.8627C86.7787 52.549 88.2964 55.6537 89.1184 58.9711C89.5926 60.8784 89.8321 62.8364 89.8316 64.8018Z" fill="url(#paint2_radial_402_183)"/>
<g style="mix-blend-mode:multiply" opacity="0.4">
<path fill-rule="evenodd" clip-rule="evenodd" d="M47.5379 53.9756C47.0785 54.9157 46.7261 55.6829 46.6353 56.7095C46.5687 57.4617 46.4411 58.1948 46.5155 58.9556C46.5942 59.7517 46.9076 60.4444 47.1479 61.1953C47.4315 62.0886 47.8966 62.9302 48.5709 63.5973C49.728 64.743 51.3636 64.765 52.7355 64.0099C53.4367 63.6243 54.0202 63.106 54.7611 62.7756C55.7806 62.3204 56.742 61.8929 57.4496 60.984C58.221 59.9914 58.5131 58.8301 58.6371 57.5929C58.7137 56.8534 58.8158 56.1621 58.652 55.4241C58.5149 54.8303 58.2913 54.2598 57.9884 53.731C57.7601 53.3297 57.5035 52.9452 57.2206 52.5803C56.8122 52.0599 56.3698 51.8812 55.7891 51.6168C55.4346 51.4544 55.151 51.2694 54.7412 51.2552C54.2736 51.2305 53.8049 51.2409 53.3388 51.2864C52.8057 51.3502 52.3328 51.5494 51.8308 51.7182C51.353 51.8791 50.8553 51.977 50.3887 52.1726C49.931 52.3612 49.4622 52.5217 48.9849 52.6533C48.3646 52.8313 47.864 53.0022 47.3961 53.4658C47.2862 53.575 47.1026 53.7168 47.0125 53.8402C46.8367 54.0812 46.8934 54.3393 47.5379 53.9756Z" fill="#B9BFE2"/>
<path fill-rule="evenodd" clip-rule="evenodd" d="M56.3086 64.2946C56.4411 63.8486 56.5319 62.9978 56.9615 62.6717C57.1541 62.5371 57.3707 62.4408 57.5996 62.3881C57.9499 62.3058 58.1959 62.4186 58.5022 62.5852C59.2693 63.0014 59.1261 64.1847 58.7007 64.8135C58.3341 65.3545 57.4132 65.8352 56.8247 65.3942C56.4114 65.0844 56.1866 64.4434 56.332 63.9316L56.439 63.9096L56.3086 64.2946Z" fill="#B9BFE2"/>
<path fill-rule="evenodd" clip-rule="evenodd" d="M70.8844 71.6456C70.8404 72.122 70.7021 72.8551 70.7787 73.3805C70.85 73.8817 70.9479 74.3787 71.0722 74.8694C71.2949 75.7393 71.6146 76.7503 72.5561 77.0814C73.392 77.3756 74.3917 77.092 75.1794 76.773C76.0217 76.432 76.9654 76.1618 77.724 75.6549C78.4826 75.148 79.2235 74.512 79.79 73.803C80.411 73.0231 80.6712 72.3347 80.6946 71.3173C80.7273 69.8816 80.136 68.6182 79.4007 67.4179C78.5875 66.0885 77.0859 65.7014 75.6488 66.219C74.4435 66.6529 73.8252 67.9489 72.9454 68.811C72.6703 69.0805 72.4682 69.3846 72.1747 69.6136C71.8394 69.8745 71.7117 70.1454 71.5019 70.4913C71.3331 70.7671 71.1077 70.9373 70.9786 71.2521C70.8156 71.6505 70.8844 72.1234 70.8844 71.6456Z" fill="#B9BFE2"/>
<path fill-rule="evenodd" clip-rule="evenodd" d="M81.978 70.8716C82.0588 70.7561 82.6238 69.5139 83.1357 69.5699C83.3818 69.5969 83.5746 69.8691 83.693 70.0662C83.883 70.3881 84.0347 70.688 83.7845 71.0531C83.4647 71.5218 82.1623 71.8678 82.0829 71.0234L81.9794 70.9985L81.978 70.8716Z" fill="#B9BFE2"/>
<path fill-rule="evenodd" clip-rule="evenodd" d="M62.3006 45.0627C62.3822 44.9471 62.9465 43.705 63.4584 43.761C63.7044 43.7879 63.898 44.0609 64.0157 44.2573C64.2064 44.5791 64.3581 44.8783 64.1079 45.2442C63.7874 45.7121 62.4857 46.0581 62.4063 45.2144L62.3021 45.1889L62.3006 45.0627Z" fill="#B9BFE2"/>
<path fill-rule="evenodd" clip-rule="evenodd" d="M75.7261 63.2927C75.8069 63.1778 76.372 61.935 76.8838 61.991C77.1299 62.0179 77.3227 62.2909 77.4411 62.4873C77.6311 62.8091 77.7828 63.1083 77.5326 63.4742C77.2128 63.9421 75.9104 64.2881 75.831 63.4444L75.7275 63.4189L75.7261 63.2927Z" fill="#B9BFE2"/>
<path fill-rule="evenodd" clip-rule="evenodd" d="M72.4325 57.3291C72.1425 58.109 71.7894 58.5854 72.0262 59.3214C72.1418 59.6759 72.1928 60.0523 72.2949 60.4125C72.4927 61.1158 73.0415 61.5433 73.5335 62.0432C74.1837 62.7025 74.7629 62.9067 75.635 62.4884C75.9159 62.3417 76.1825 62.1689 76.4312 61.9723C76.8197 61.6887 76.9778 61.4951 77.2111 61.0662C77.4138 60.6869 77.4713 60.3331 77.6237 59.9382C77.7889 59.5128 77.9725 59.1732 77.9867 58.701C78.0002 58.2465 78.0335 57.7524 77.9158 57.3149C77.7598 56.7534 77.462 56.2614 77.1593 55.7722C76.9004 55.332 76.5691 54.9387 76.1795 54.6087C75.8477 54.3407 75.4237 54.3464 75.016 54.2599C74.3127 54.1117 73.2925 54.681 72.9174 55.2596C72.3843 56.0706 72.0999 57.0164 72.4325 57.3291Z" fill="#B9BFE2"/>
<path fill-rule="evenodd" clip-rule="evenodd" d="M70.7555 61.9713C70.8194 62.5126 71.0019 63.033 71.2901 63.4956C71.392 63.4229 71.5114 63.3789 71.6361 63.368C71.641 63.2056 71.7637 63.1489 71.7942 63.01C71.8275 62.8561 71.785 62.647 71.7871 62.4874C71.7871 62.1982 71.69 61.9685 71.595 61.7118C71.517 61.4991 71.4078 61.1397 71.1384 61.1886C70.6279 61.2815 70.6768 61.7019 70.7555 61.9685V61.9713Z" fill="#B9BFE2"/>
<path fill-rule="evenodd" clip-rule="evenodd" d="M46.5697 77.4526C46.6051 77.8922 46.5853 78.2615 46.8285 78.6331C47.078 78.9983 47.3604 79.3401 47.6722 79.654C47.8771 79.8667 48.2549 80.3219 48.6038 80.1269C48.8874 79.9674 48.9852 79.3952 48.9583 79.106C48.9342 78.8734 48.8484 78.6153 48.7924 78.3863C48.7276 78.1192 48.6144 77.8661 48.4584 77.6398C48.1911 77.2562 47.5658 76.5422 47.0241 76.8868C46.8696 76.9854 46.7122 77.0598 46.6292 77.2193C46.5463 77.3789 46.5697 77.5306 46.5697 77.4526Z" fill="#B9BFE2"/>
<path fill-rule="evenodd" clip-rule="evenodd" d="M58.7145 75.5164C58.629 75.2906 58.5682 75.0562 58.533 74.8173C58.5139 74.7867 58.5072 74.7498 58.5143 74.7144C58.5214 74.6789 58.5418 74.6475 58.5713 74.6266C58.6477 74.3702 58.7479 74.1214 58.8705 73.8836C59.1052 73.4617 59.3824 72.991 59.8085 72.7343C59.9638 72.64 60.1268 72.6152 60.3048 72.5727C60.4828 72.5301 60.6593 72.4621 60.8373 72.4309C61.1457 72.377 61.4909 72.4443 61.7894 72.523C62.1219 72.6102 62.5332 72.7138 62.8345 72.8825C63.1223 73.0441 63.2996 73.3299 63.4761 73.5986C63.8384 74.1509 63.9908 74.935 63.4853 75.4717C63.3379 75.6138 63.1758 75.7397 63.0018 75.8475C62.8238 75.9687 62.6558 76.1212 62.4651 76.2225C62.2375 76.3445 61.9355 76.3693 61.6852 76.4204C61.1982 76.5235 60.6934 76.5072 60.2141 76.3729C59.7071 76.2261 59.342 75.878 58.7145 75.5164Z" fill="#B9BFE2"/>
</g>
<path fill-rule="evenodd" clip-rule="evenodd" d="M79.6997 56.2039C79.6997 56.2039 78.398 58.5592 79.0914 62.7727C80.6341 72.1498 85.7899 70.7177 85.4567 66.3645L79.6997 56.2039Z" fill="url(#paint3_linear_402_183)"/>
<path style="mix-blend-mode:screen" d="M72.9949 80.0487C73.4349 76.4598 69.9241 73.0763 65.1534 72.4914C60.3827 71.9065 56.1585 74.3416 55.7185 77.9305C55.2785 81.5193 58.7892 84.9028 63.56 85.4877C68.3307 86.0726 72.5548 83.6375 72.9949 80.0487Z" fill="url(#paint4_radial_402_183)"/>
<path fill-rule="evenodd" clip-rule="evenodd" d="M76.2496 43.0586C76.1695 43.0671 76.0901 43.0756 76.01 43.0919C75.7581 43.1384 75.4985 43.1211 75.2549 43.0416C75.0621 42.987 74.9238 42.9076 74.7182 42.8736C74.424 42.8275 74.151 42.702 73.8582 42.6609C73.5477 42.6183 73.279 42.4971 72.9855 42.3922C72.7543 42.3085 72.631 42.3376 72.4105 42.3922C72.19 42.4468 72.0326 42.3589 71.8355 42.2745C71.6129 42.1781 71.3909 42.161 71.1556 42.115C70.543 41.9895 69.9347 41.7924 69.3264 41.6371C68.9492 41.5407 68.6004 41.5407 68.2147 41.5364C67.9126 41.5322 67.6397 41.6201 67.3376 41.6201C67.1446 41.6138 66.9524 41.5927 66.7626 41.557C66.557 41.5194 66.3479 41.5612 66.1423 41.5322C65.836 41.4861 65.6722 41.44 65.3624 41.5364C65.1313 41.6116 64.9512 41.6031 64.72 41.6158C64.451 41.6394 64.1844 41.6857 63.9231 41.7541C63.4608 41.8707 62.9862 41.9314 62.5094 41.9349C62.2258 41.9349 61.8047 41.8548 61.5317 41.9519C61.3552 42.0143 61.2673 42.2036 61.1453 42.3291C60.9106 42.5723 60.6214 42.7906 60.4243 43.0636C60.2272 43.3365 60.0046 43.6173 60.0209 43.9612C60.0379 44.2589 60.1761 44.6078 60.3045 44.8829C60.4385 45.1728 60.4845 45.4366 60.1868 45.6301C59.8076 45.8891 59.3918 46.0899 58.9531 46.2257C58.6695 46.3093 58.4122 46.3597 58.1732 46.1548C58.0846 46.0796 58.0314 45.9329 57.9215 45.8712C57.8116 45.8095 57.6904 45.8712 57.567 45.9088C57.2715 46.0064 56.9703 46.0862 56.6652 46.1477C56.4766 46.1775 56.3107 46.2781 56.1285 46.3115C55.9059 46.3533 55.7464 46.1902 55.5159 46.2441C55.1926 46.32 54.8693 46.4568 54.534 46.471C54.2951 46.4838 53.9923 46.3788 53.791 46.2583C53.674 46.1917 53.6442 46.1243 53.5074 46.1619C53.3792 46.2122 53.2673 46.2968 53.1841 46.4065C53.1047 46.5199 53.0749 46.6667 52.9955 46.7844C52.9118 46.9141 52.8317 47.0403 52.7565 47.1786C52.6174 47.444 52.4574 47.6979 52.278 47.9379C52.1525 48.1059 52.0653 48.3328 51.9235 48.4881C51.8526 48.5717 51.6966 48.6299 51.6044 48.6937C51.3527 48.8695 51.0883 49.029 50.8451 49.2176C50.3751 49.587 49.9305 49.994 49.4519 50.352C49.0875 50.625 48.5756 50.7845 48.1602 50.9561C47.9 51.061 47.6313 51.1369 47.3711 51.246C47.2874 51.2794 47.1321 51.3169 47.0605 51.38C46.9684 51.4594 46.9187 51.6069 46.8344 51.7154C46.6075 51.9926 46.3685 52.2698 46.1963 52.5882C46.099 52.7715 46.0204 52.9641 45.9616 53.1632C45.8694 53.4361 45.7219 53.6878 45.6298 53.9601C45.4412 54.5308 45.4036 55.1271 45.1938 55.6935C45.0718 56.0246 44.896 56.3267 44.745 56.6287C44.4848 57.1406 44.4465 57.7489 44.3713 58.3154C44.3319 58.6607 44.3432 59.0099 44.4046 59.3519C44.4677 59.7 44.4507 60.0609 44.4465 60.4154C44.4422 60.7933 44.2033 61.162 43.9644 61.4477C43.746 61.7122 43.4149 61.8128 43.171 62.0475C42.9654 62.2489 42.718 62.48 42.63 62.765C42.5925 62.8912 42.6258 63.0337 42.6045 63.1677C42.5506 63.4655 42.4748 63.747 42.4329 64.049C42.3917 64.4152 42.3735 64.7837 42.3784 65.1522C42.3784 65.3415 42.3656 65.5343 42.3741 65.7194C42.3826 65.9044 42.4493 66.0675 42.462 66.2483C42.4705 66.3738 42.4457 66.5 42.462 66.6255C42.4875 66.7673 42.5421 66.9154 42.5755 67.0508C42.6591 67.3862 42.7222 67.7138 42.7881 68.0491C42.847 68.3596 42.9682 68.6659 43.0647 68.9708C43.1933 69.3846 43.2944 69.8064 43.3674 70.2335C43.4298 70.5518 43.4255 70.8836 43.4716 71.2069C43.5099 71.4671 43.5687 71.7309 43.5808 71.9911C43.5936 72.386 43.4971 72.7802 43.4929 73.1786C43.4886 73.8501 43.7573 74.5215 43.9126 75.1674C43.9587 75.3482 44.0048 75.5325 44.0544 75.7126C42.1919 72.0247 41.3049 67.9213 41.4779 63.7934C41.6508 59.6655 42.878 55.6507 45.0424 52.1315C47.2069 48.6123 50.2365 45.7061 53.8425 43.6897C57.4486 41.6733 61.5109 40.6139 65.6424 40.6126C66.1714 40.6126 66.6917 40.6289 67.2121 40.6629C70.3527 40.8603 73.4237 41.6743 76.2496 43.0586Z" fill="url(#paint5_linear_402_183)"/>
<path style="mix-blend-mode:screen" fill-rule="evenodd" clip-rule="evenodd" d="M78.5342 56.2267C77.7486 57.5872 74.968 57.4532 72.3227 55.9261C69.6775 54.3989 68.1709 52.0578 68.9572 50.6966C69.7434 49.3353 72.5241 49.47 75.1686 50.9972C77.8132 52.5243 79.3205 54.8654 78.5342 56.2267Z" fill="url(#paint6_radial_402_183)"/>
<path fill-rule="evenodd" clip-rule="evenodd" d="M83.9147 73.225C83.9147 73.225 81.4999 73.259 79.5374 75.7178C77.5749 78.1766 77.5919 80.3539 77.8748 81.0834C78.1577 81.813 83.9147 73.225 83.9147 73.225Z" fill="url(#paint7_radial_402_183)"/>
<path style="mix-blend-mode:screen" fill-rule="evenodd" clip-rule="evenodd" d="M81.6214 68.2206C78.8365 68.5956 76.226 66.2545 75.7829 62.9896C75.3398 59.7247 77.2448 56.776 80.0298 56.401C82.8147 56.0259 85.4294 58.367 85.869 61.6305C86.3086 64.894 84.4071 67.8455 81.6214 68.2206Z" fill="url(#paint8_radial_402_183)"/>
<path style="mix-blend-mode:screen" fill-rule="evenodd" clip-rule="evenodd" d="M51.2989 83.6923C48.7834 81.587 46.721 78.9935 45.2363 76.0685C44.2886 74.2002 43.5902 72.2155 43.159 70.1654C43.1551 70.1591 43.1536 70.1515 43.1547 70.1442C42.8123 68.502 42.6395 66.829 42.6393 65.1515C42.6395 58.7365 45.1879 52.5843 49.724 48.0482C54.26 43.5122 60.4122 40.9638 66.8272 40.9636C67.3561 40.9636 67.8758 40.9799 68.3962 41.0139C70.008 41.1175 71.6054 41.3828 73.1641 41.8058C71.2363 41.1755 69.2364 40.7915 67.2122 40.663C66.6918 40.6289 66.1714 40.6126 65.6425 40.6126C62.4656 40.6111 59.3197 41.2357 56.3844 42.4508C53.4491 43.6658 50.7821 45.4474 48.5357 47.6938C46.2894 49.9401 44.5077 52.6072 43.2927 55.5424C42.0777 58.4777 41.4531 61.6237 41.4546 64.8005C41.4546 66.479 41.6276 68.153 41.9707 69.7961C41.9696 69.8032 41.9712 69.8105 41.975 69.8166C42.4056 71.8668 43.1038 73.8514 44.0516 75.7197C45.5876 78.744 47.7404 81.4129 50.3712 83.5542C53.0019 85.6955 56.0522 87.2617 59.3254 88.1518C56.389 87.1929 53.6642 85.679 51.2989 83.6923Z" fill="url(#paint9_radial_402_183)"/>
<path fill-rule="evenodd" clip-rule="evenodd" d="M81.6733 82.9127C81.6733 82.9127 78.921 83.5785 77.9993 81.5146C77.0776 79.4507 80.5892 74.0333 83.4124 73.3244C86.2356 72.6154 86.7822 75.9327 86.7822 75.9327L81.6733 82.9127Z" fill="#004A59"/>
<path fill-rule="evenodd" clip-rule="evenodd" d="M64.9999 45.0149C64.9999 45.0149 66.1343 48.8243 70.1755 51.6901C76.6982 56.3134 79.3881 54.648 79.3881 54.648L64.9999 45.0149Z" fill="url(#paint10_radial_402_183)"/>
<path fill-rule="evenodd" clip-rule="evenodd" d="M73.8658 87.2025C73.8658 87.2025 76.6705 85.7306 76.7287 83.7284C76.7868 81.7262 72.496 78.9973 64.1278 77.7928C56.4636 76.6917 50.6031 78.3756 50.216 79.8644C49.8289 81.3533 51.8282 84.9592 55.8914 86.765C59.9547 88.5708 71.7835 88.222 73.8658 87.2025Z" fill="#004A59"/>
<path fill-rule="evenodd" clip-rule="evenodd" d="M60.4653 51.9885C60.4653 51.9885 62.1712 54.6827 64.8185 54.9202C67.4659 55.1577 68.2486 53.0768 68.2486 53.0768C68.2486 53.0768 62.2194 53.0307 60.4653 51.9885Z" fill="url(#paint11_radial_402_183)"/>
<path fill-rule="evenodd" clip-rule="evenodd" d="M59.3429 49.8513C59.3429 49.8513 60.2646 53.3197 63.8542 54.2372C67.804 55.2453 68.959 52.6604 68.3918 51.2452C67.8246 49.8301 63.1509 47.6606 59.3429 49.8513Z" fill="#00777A"/>
<path fill-rule="evenodd" clip-rule="evenodd" d="M51.6043 48.693C51.6043 48.693 54.0928 49.1546 57.7569 46.978C61.4209 44.8014 60.6637 42.795 60.6637 42.795L51.6043 48.693Z" fill="url(#paint12_radial_402_183)"/>
<path fill-rule="evenodd" clip-rule="evenodd" d="M50.7343 47.0939C50.7343 47.0939 49.8013 48.3758 51.6035 48.6927C53.4058 49.0096 59.4988 46.0198 60.6226 43.7588C61.7463 41.4978 55.839 40.2302 50.7343 47.0939Z" fill="#00777A"/>
<path fill-rule="evenodd" clip-rule="evenodd" d="M66.8854 42.3979C66.8854 42.3979 64.489 42.8098 64.36 44.0555C64.2309 45.3012 68.1531 50.2755 72.4219 52.9101C76.6907 55.5447 80.8702 54.6563 81.5147 54.009C82.1592 53.3617 75.9371 43.0452 66.8854 42.3979Z" fill="#006D7A"/>
<path fill-rule="evenodd" clip-rule="evenodd" d="M83.6297 56.6275C83.6297 56.6275 81.3475 54.2361 79.5367 55.133C78.0478 55.871 78.6859 63.1814 80.2343 65.9692C81.7828 68.7569 83.7793 68.5045 84.5592 67.8891C85.3391 67.2737 85.5021 59.1019 83.6297 56.6275Z" fill="#004A59"/>
<path fill-rule="evenodd" clip-rule="evenodd" d="M83.4754 51.2434C83.2592 51.1856 83.0302 51.1978 82.8214 51.2783C82.6126 51.3588 82.4347 51.5035 82.3133 51.6915C81.8475 52.3622 85.072 56.955 86.4255 57.4967C87.7789 58.0384 88.0512 56.0943 88.0512 56.0943L83.4754 51.2434Z" fill="#004A59"/>
<path fill-rule="evenodd" clip-rule="evenodd" d="M66.1755 43.9809C65.0986 45.8087 74.8153 56.1926 80.6864 54.235C81.8477 53.8486 82.4759 46.2234 78.5595 42.6111C75.3045 39.6057 68.3039 40.3693 66.1755 43.9809Z" fill="url(#paint13_radial_402_183)"/>
<path fill-rule="evenodd" clip-rule="evenodd" d="M80.6863 56.2976C78.9301 57.0328 79.2031 64.8104 81.3953 67.0671C83.5875 69.3239 86.9424 66.0377 87.265 62.6175C87.5876 59.1974 83.4577 55.137 80.6863 56.2976Z" fill="url(#paint14_radial_402_183)"/>
<path fill-rule="evenodd" clip-rule="evenodd" d="M82.9434 52.1283C82.8385 53.7058 86.2353 57.1054 87.286 56.7509C88.3367 56.3964 89.3314 53.8922 88.6224 52.1297C87.9135 50.3671 83.0725 50.1934 82.9434 52.1283Z" fill="url(#paint15_radial_402_183)"/>
<path fill-rule="evenodd" clip-rule="evenodd" d="M52.1455 79.0612C47.6044 80.231 55.1466 89.1586 61.597 90.3341C69.1428 91.7039 76.0072 86.6119 76.1363 83.8036C76.2653 80.9953 60.6583 76.8683 52.1455 79.0612Z" fill="url(#paint16_radial_402_183)"/>
<path fill-rule="evenodd" clip-rule="evenodd" d="M78.7079 81.3961C77.8727 79.401 82.6726 73.1286 84.8981 73.8688C87.1236 74.609 88.5735 79.7966 85.5752 81.925C83.7899 83.192 79.5771 83.4798 78.7079 81.3961Z" fill="url(#paint17_radial_402_183)"/>
<path fill-rule="evenodd" clip-rule="evenodd" d="M51.6953 48.198C53.9201 48.6822 59.1836 45.0217 60.1443 43.2761C61.105 41.5306 56.1867 39.2179 52.875 40.9202C50.5325 42.1255 49.725 47.7683 51.6953 48.198Z" fill="url(#paint18_radial_402_183)"/>
<path fill-rule="evenodd" clip-rule="evenodd" d="M60.2689 48.2421C57.7874 49.3921 60.5929 52.6436 63.4487 53.5844C66.3045 54.5252 68.82 52.8151 68.3365 50.9136C67.853 49.0121 64.6604 46.2038 60.2689 48.2421Z" fill="url(#paint19_radial_402_183)"/>
<path fill-rule="evenodd" clip-rule="evenodd" d="M53.9808 77.6223C53.9808 77.6223 63.5522 76.2476 72.9172 80.1804C72.9172 80.1804 64.0967 74.7601 53.9808 77.6223Z" fill="url(#paint20_radial_402_183)"/>
<path fill-rule="evenodd" clip-rule="evenodd" d="M82.3132 52.1608C82.3132 52.1608 82.9456 55.2059 85.4597 56.7756C85.4597 56.7756 83.0803 54.3905 82.3132 52.1608Z" fill="url(#paint21_radial_402_183)"/>
<path style="mix-blend-mode:screen" fill-rule="evenodd" clip-rule="evenodd" d="M41.4547 64.8006C41.566 66.0286 42.1743 59.3804 44.3707 58.314C46.5672 57.2477 53.2494 62.0299 56.3307 63.9299C63.449 68.3193 71.4428 63.3358 73.4174 60.6551C75.3919 57.9744 72.4312 53.7779 70.753 52.8463C69.0748 51.9147 68.2304 56.0368 64.8159 55.5554C61.4014 55.074 58.7746 51.1483 58.5059 49.8537C58.2372 48.559 61.4638 46.6887 62.818 46.4952C64.1721 46.3016 65.6646 42.5064 64.7152 41.6194C63.7659 40.7325 62.2054 44.9517 58.5059 47.4615C55.8528 49.2617 51.7251 50.8611 49.5329 47.614C49.5372 47.614 40.5309 54.6011 41.4547 64.8006Z" fill="url(#paint22_radial_402_183)"/>
<path style="mix-blend-mode:screen" fill-rule="evenodd" clip-rule="evenodd" d="M66.9495 44.319C66.8445 45.9731 70.4831 45.2124 73.7444 45.0146C77.0058 44.8167 79.5362 44.8288 79.5362 44.8288C79.5362 44.8288 77.0788 41.9496 72.9574 41.4965C68.8361 41.0435 67.014 43.3052 66.9495 44.319Z" fill="url(#paint23_linear_402_183)"/>
<path style="mix-blend-mode:screen" fill-rule="evenodd" clip-rule="evenodd" d="M51.335 46.3289C52.3276 46.7827 52.5679 43.7766 53.9221 42.3955C55.2763 41.0143 56.8892 40.7478 56.8892 40.7478C56.8892 40.7478 54.1157 40.6932 52.3744 41.4972C50.6331 42.3012 50.4899 45.9447 51.335 46.3289Z" fill="url(#paint24_linear_402_183)"/>
<path style="mix-blend-mode:screen" fill-rule="evenodd" clip-rule="evenodd" d="M59.9525 48.9179C59.9525 48.9179 61.5647 47.6559 63.6931 47.7531C65.8215 47.8502 67.3685 49.2731 67.3685 49.2731C67.3685 49.2731 65.757 48.7847 64.6283 49.1392C63.4996 49.4936 61.7583 51.3732 59.9525 48.9179Z" fill="url(#paint25_linear_402_183)"/>
<path style="mix-blend-mode:screen" fill-rule="evenodd" clip-rule="evenodd" d="M80.4927 56.7754C80.4927 56.7754 82.7501 55.9247 84.8459 57.8857C86.9416 59.8468 87.1033 61.61 87.1033 61.61C87.1033 61.61 85.7491 59.554 84.3949 59.3597C83.0408 59.1654 81.3803 60.1672 80.6926 59.5547C80.0049 58.9421 79.9021 57.3823 80.4927 56.7754Z" fill="url(#paint26_linear_402_183)"/>
<path style="mix-blend-mode:screen" fill-rule="evenodd" clip-rule="evenodd" d="M83.4101 51.5249C83.4101 51.5249 83.8865 50.8868 85.4597 50.9244C87.033 50.962 88.0121 51.6859 88.3928 52.1602C88.7736 52.6345 88.5545 54.2361 88.5545 54.2361C88.5545 54.2361 88.4254 52.9436 87.7803 52.3311C87.1351 51.7185 83.3923 53.2052 83.4101 51.5249Z" fill="url(#paint27_linear_402_183)"/>
<path style="mix-blend-mode:screen" fill-rule="evenodd" clip-rule="evenodd" d="M79.5362 78.6771C79.5362 78.6771 82.3431 74.1332 84.3616 74.4494C86.3801 74.7656 87.1025 77.9029 87.1025 77.9029C87.1025 77.9029 85.8873 76.2198 83.4087 76.4849C80.9301 76.7501 79.5362 78.6771 79.5362 78.6771Z" fill="url(#paint28_linear_402_183)"/>
<path style="mix-blend-mode:screen" fill-rule="evenodd" clip-rule="evenodd" d="M51.3346 80.1726C51.3346 80.1726 55.1851 78.2328 62.8861 79.3218C70.5872 80.4108 74.9723 82.9185 74.9723 82.9185C74.9723 82.9185 67.0018 81.1914 62.2998 81.9656C57.5978 82.7398 56.1649 86.864 56.1649 86.864C56.1649 86.864 50.3597 84.3776 51.3346 80.1726Z" fill="url(#paint29_linear_402_183)"/>
<path fill-rule="evenodd" clip-rule="evenodd" d="M63.8033 90.0272C63.8033 90.0272 69.1207 89.2807 71.8063 88.0421C71.8063 88.0421 66.2025 91.1886 63.8033 90.0272Z" fill="#FFFF8D"/>
<path fill-rule="evenodd" clip-rule="evenodd" d="M79.3867 81.5144C79.3867 81.5144 81.525 82.2234 84.3624 81.966C84.3624 81.966 81.0181 83.2536 79.3867 81.5144Z" fill="#FFFF8D"/>
<path fill-rule="evenodd" clip-rule="evenodd" d="M80.1081 62.9765C80.1081 62.9765 81.8544 66.1733 83.6056 66.9823C83.6056 66.9823 81.5204 67.721 80.1081 62.9765Z" fill="#FFFF8D"/>
<path fill-rule="evenodd" clip-rule="evenodd" d="M71.256 49.8519C71.256 49.8519 74.4542 53.4018 79.537 53.8506L71.256 49.8519Z" fill="#FFFF8D"/>
<path fill-rule="evenodd" clip-rule="evenodd" d="M60.7628 51.2454C60.7628 51.2454 62.4743 53.5198 65.6442 53.585L60.7628 51.2454Z" fill="#FFFF8D"/>
<path fill-rule="evenodd" clip-rule="evenodd" d="M51.6037 47.7461C51.6037 47.7461 54.9722 47.2498 58.51 44.7449L51.6037 47.7461Z" fill="#FFFF8D"/>
<path fill-rule="evenodd" clip-rule="evenodd" d="M44.9702 61.6026C44.9702 61.6026 48.7002 64.5137 50.277 71.5547C50.277 71.5547 51.1774 64.6421 44.9702 61.6026Z" fill="url(#paint30_radial_402_183)"/>
<path fill-rule="evenodd" clip-rule="evenodd" d="M45.0671 76.4367C45.0671 76.4367 48.1038 77.9079 49.7025 76.3658C51.3013 74.8238 50.3215 69.6063 48.1243 65.6537C45.9272 61.7011 43.238 59.9527 42.1128 60.5256C41.3372 60.9219 37.2314 70.7549 45.0671 76.4367Z" fill="#00777A"/>
<path fill-rule="evenodd" clip-rule="evenodd" d="M42.6537 61.5077C40.6459 61.0007 39.0556 67.9417 40.0794 71.7058C41.4109 76.5978 47.9634 77.3238 49.3466 75.8406C50.7298 74.3574 49.7926 63.3092 42.6537 61.5077Z" fill="url(#paint31_radial_402_183)"/>
<path style="mix-blend-mode:screen" fill-rule="evenodd" clip-rule="evenodd" d="M40.5166 71.1811C40.5166 71.1811 39.9643 64.0437 41.746 62.7568C43.5276 61.47 46.2183 64.1869 46.2183 64.1869C46.2183 64.1869 44.9258 64.5343 43.2405 65.4709C41.5552 66.4074 40.5166 71.1811 40.5166 71.1811Z" fill="url(#paint32_linear_402_183)"/>
<path fill-rule="evenodd" clip-rule="evenodd" d="M42.8901 74.6548C42.8901 74.6548 45.2574 75.9395 47.0157 76.0813C47.0157 76.0813 44.715 76.9718 42.8901 74.6548Z" fill="#FFFF8D"/>
<path style="mix-blend-mode:screen" fill-rule="evenodd" clip-rule="evenodd" d="M88.2884 80.2746C88.6642 81.8032 87.3207 83.448 85.288 83.9472C83.2553 84.4463 81.3028 83.6118 80.927 82.0832C80.5512 80.5546 81.8976 78.9098 83.9274 78.4099C85.9573 77.9101 87.9127 78.7453 88.2884 80.2746Z" fill="url(#paint33_radial_402_183)"/>
<path style="mix-blend-mode:screen" d="M42.0482 75.7532C44.2259 75.5753 45.7996 73.0843 45.5631 70.1893C45.3266 67.2943 43.3695 65.0917 41.1919 65.2696C39.0142 65.4475 37.4405 67.9385 37.677 70.8335C37.9135 73.7285 39.8706 75.9311 42.0482 75.7532Z" fill="url(#paint34_radial_402_183)"/>
<path style="mix-blend-mode:screen" fill-rule="evenodd" clip-rule="evenodd" d="M50.3338 45.2502C49.0044 44.174 48.9491 42.0399 50.2097 40.483C51.4703 38.9261 53.5696 38.5354 54.8983 39.6109C56.2269 40.6865 56.2829 42.8212 55.0223 44.3789C53.7617 45.9365 51.6624 46.3272 50.3338 45.2502Z" fill="url(#paint35_radial_402_183)"/>
<path style="mix-blend-mode:screen" d="M87.2979 59.3746C90.083 58.9995 91.9845 56.0498 91.5449 52.7862C91.1054 49.5226 88.4913 47.181 85.7062 47.5561C82.9211 47.9312 81.0196 50.8809 81.4591 54.1445C81.8987 57.4081 84.5127 59.7497 87.2979 59.3746Z" fill="url(#paint36_radial_402_183)"/>
<path style="mix-blend-mode:screen" d="M55.4551 73.3292C67.4848 73.3292 77.2367 64.0309 77.2367 52.5608C77.2367 41.0907 67.4848 31.7923 55.4551 31.7923C43.4255 31.7923 33.6736 41.0907 33.6736 52.5608C33.6736 64.0309 43.4255 73.3292 55.4551 73.3292Z" fill="url(#paint37_radial_402_183)"/>
<defs>
<radialGradient id="paint0_radial_402_183" cx="0" cy="0" r="1" gradientUnits="userSpaceOnUse" gradientTransform="translate(65 65) scale(35)">
<stop offset="0.01" stop-color="#00FF00"/>
<stop offset="1"/>
</radialGradient>
<radialGradient id="paint1_radial_402_183" cx="0" cy="0" r="1" gradientUnits="userSpaceOnUse" gradientTransform="translate(66.698 65.6699) scale(27.1557 27.1557)">
<stop offset="0.03" stop-color="#00FFA9"/>
<stop offset="0.15" stop-color="#00FBA6"/>
<stop offset="0.27" stop-color="#00EF9E"/>
<stop offset="0.39" stop-color="#00DB91"/>
<stop offset="0.52" stop-color="#00BF7E"/>
<stop offset="0.64" stop-color="#009B66"/>
<stop offset="0.76" stop-color="#006E49"/>
<stop offset="0.88" stop-color="#003B27"/>
<stop offset="1"/>
</radialGradient>
<radialGradient id="paint2_radial_402_183" cx="0" cy="0" r="1" gradientUnits="userSpaceOnUse" gradientTransform="translate(50.6627 53.4877) scale(38.8548 38.8548)">
<stop offset="0.01" stop-color="#0CC463"/>
<stop offset="0.21" stop-color="#0CC163"/>
<stop offset="0.36" stop-color="#0BB765"/>
<stop offset="0.5" stop-color="#09A767"/>
<stop offset="0.63" stop-color="#078F6B"/>
<stop offset="0.76" stop-color="#04726F"/>
<stop offset="0.87" stop-color="#004F74"/>
</radialGradient>
<linearGradient id="paint3_linear_402_183" x1="82.1833" y1="69.7499" x2="82.1833" y2="56.2039" gradientUnits="userSpaceOnUse">
<stop stop-color="#007C6F"/>
<stop offset="0.66" stop-color="#29D73B"/>
<stop offset="0.99" stop-color="#3BFF24"/>
</linearGradient>
<radialGradient id="paint4_radial_402_183" cx="0" cy="0" r="1" gradientUnits="userSpaceOnUse" gradientTransform="translate(64.7652 78.7138) rotate(6.99) scale(8.71907 6.52625)">
<stop stop-color="#00FF00"/>
<stop offset="1"/>
</radialGradient>
<linearGradient id="paint5_linear_402_183" x1="41.4545" y1="58.1651" x2="76.2496" y2="58.1651" gradientUnits="userSpaceOnUse">
<stop offset="0.01" stop-color="#92FF2C"/>
<stop offset="0.23" stop-color="#8FFC2D"/>
<stop offset="0.39" stop-color="#86F332"/>
<stop offset="0.54" stop-color="#76E33A"/>
<stop offset="0.67" stop-color="#5FCD44"/>
<stop offset="0.8" stop-color="#42B152"/>
<stop offset="0.91" stop-color="#1F8E63"/>
<stop offset="1" stop-color="#007072"/>
</linearGradient>
<radialGradient id="paint6_radial_402_183" cx="0" cy="0" r="1" gradientUnits="userSpaceOnUse" gradientTransform="translate(73.2026 52.8165) rotate(30.0024) scale(5.51977 2.84051)">
<stop stop-color="#00FF00"/>
<stop offset="1"/>
</radialGradient>
<radialGradient id="paint7_radial_402_183" cx="0" cy="0" r="1" gradientUnits="userSpaceOnUse" gradientTransform="translate(82.1911 77.0245) scale(3.47263)">
<stop offset="0.01" stop-color="#3BFF24"/>
<stop offset="0.53" stop-color="#26D832"/>
<stop offset="1" stop-color="#11B140"/>
</radialGradient>
<radialGradient id="paint8_radial_402_183" cx="0" cy="0" r="1" gradientUnits="userSpaceOnUse" gradientTransform="translate(80.2631 61.9018) rotate(82.4054) scale(5.95404 5.08894)">
<stop stop-color="#00FF00"/>
<stop offset="1"/>
</radialGradient>
<radialGradient id="paint9_radial_402_183" cx="0" cy="0" r="1" gradientUnits="userSpaceOnUse" gradientTransform="translate(47.9666 48.3371) scale(31.8372 31.8372)">
<stop stop-color="#FFFF4A"/>
<stop offset="1"/>
</radialGradient>
<radialGradient id="paint10_radial_402_183" cx="0" cy="0" r="1" gradientUnits="userSpaceOnUse" gradientTransform="translate(75.3731 49.7871) scale(5.09693)">
<stop offset="0.02" stop-color="#B0FF24"/>
<stop offset="0.29" stop-color="#88F72B"/>
<stop offset="0.89" stop-color="#25E43D"/>
<stop offset="1" stop-color="#11E040"/>
</radialGradient>
<radialGradient id="paint11_radial_402_183" cx="0" cy="0" r="1" gradientUnits="userSpaceOnUse" gradientTransform="translate(66.077 53.4065) scale(2.0738)">
<stop offset="0.02" stop-color="#B0FF24"/>
<stop offset="0.29" stop-color="#88F72B"/>
<stop offset="0.89" stop-color="#25E43D"/>
<stop offset="1" stop-color="#11E040"/>
</radialGradient>
<radialGradient id="paint12_radial_402_183" cx="0" cy="0" r="1" gradientUnits="userSpaceOnUse" gradientTransform="translate(58.1823 45.6501) scale(3.12026)">
<stop offset="0.02" stop-color="#B0FF24"/>
<stop offset="0.29" stop-color="#88F72B"/>
<stop offset="0.89" stop-color="#25E43D"/>
<stop offset="1" stop-color="#11E040"/>
</radialGradient>
<radialGradient id="paint13_radial_402_183" cx="0" cy="0" r="1" gradientUnits="userSpaceOnUse" gradientTransform="translate(73.4476 50.4029) scale(7.31323)">
<stop offset="0.01" stop-color="#00FF24"/>
<stop offset="0.19" stop-color="#28FF1E"/>
<stop offset="0.58" stop-color="#8DFF10"/>
<stop offset="1" stop-color="#FFFF00"/>
</radialGradient>
<radialGradient id="paint14_radial_402_183" cx="0" cy="0" r="1" gradientUnits="userSpaceOnUse" gradientTransform="translate(80.7976 63.1138) scale(4.96577 4.96577)">
<stop offset="0.01" stop-color="#00FF24"/>
<stop offset="0.19" stop-color="#28FF1E"/>
<stop offset="0.58" stop-color="#8DFF10"/>
<stop offset="1" stop-color="#FFFF00"/>
</radialGradient>
<radialGradient id="paint15_radial_402_183" cx="0" cy="0" r="1" gradientUnits="userSpaceOnUse" gradientTransform="translate(85.0286 54.8224) scale(2.98839)">
<stop offset="0.01" stop-color="#00FF24"/>
<stop offset="0.19" stop-color="#28FF1E"/>
<stop offset="0.58" stop-color="#8DFF10"/>
<stop offset="1" stop-color="#FFFF00"/>
</radialGradient>
<radialGradient id="paint16_radial_402_183" cx="0" cy="0" r="1" gradientUnits="userSpaceOnUse" gradientTransform="translate(62.8193 86.9636) scale(11.1014 11.1014)">
<stop offset="0.01" stop-color="#00FF24"/>
<stop offset="0.19" stop-color="#28FF1E"/>
<stop offset="0.58" stop-color="#8DFF10"/>
<stop offset="1" stop-color="#FFFF00"/>
</radialGradient>
<radialGradient id="paint17_radial_402_183" cx="0" cy="0" r="1" gradientUnits="userSpaceOnUse" gradientTransform="translate(82.7265 80.2128) scale(4.25748)">
<stop offset="0.01" stop-color="#00FF24"/>
<stop offset="0.19" stop-color="#28FF1E"/>
<stop offset="0.58" stop-color="#8DFF10"/>
<stop offset="1" stop-color="#FFFF00"/>
</radialGradient>
<radialGradient id="paint18_radial_402_183" cx="0" cy="0" r="1" gradientUnits="userSpaceOnUse" gradientTransform="translate(55.1863 45.8909) scale(4.50634)">
<stop offset="0.01" stop-color="#00FF24"/>
<stop offset="0.19" stop-color="#28FF1E"/>
<stop offset="0.58" stop-color="#8DFF10"/>
<stop offset="1" stop-color="#FFFF00"/>
</radialGradient>
<radialGradient id="paint19_radial_402_183" cx="0" cy="0" r="1" gradientUnits="userSpaceOnUse" gradientTransform="translate(63.6288 51.9728) scale(4.12278 4.12278)">
<stop offset="0.01" stop-color="#00FF24"/>
<stop offset="0.19" stop-color="#28FF1E"/>
<stop offset="0.58" stop-color="#8DFF10"/>
<stop offset="1" stop-color="#FFFF00"/>
</radialGradient>
<radialGradient id="paint20_radial_402_183" cx="0" cy="0" r="1" gradientUnits="userSpaceOnUse" gradientTransform="translate(62.9786 79.1736) scale(8.03853 8.03853)">
<stop offset="0.01" stop-color="#3BFF24"/>
<stop offset="0.53" stop-color="#26D832"/>
<stop offset="1" stop-color="#11B140"/>
</radialGradient>
<radialGradient id="paint21_radial_402_183" cx="0" cy="0" r="1" gradientUnits="userSpaceOnUse" gradientTransform="translate(84.582 54.3799) scale(1.99084)">
<stop offset="0.01" stop-color="#3BFF24"/>
<stop offset="0.53" stop-color="#26D832"/>
<stop offset="1" stop-color="#11B140"/>
</radialGradient>
<radialGradient id="paint22_radial_402_183" cx="0" cy="0" r="1" gradientUnits="userSpaceOnUse" gradientTransform="translate(48.5424 50.9249) scale(25.2315 25.2315)">
<stop stop-color="#97FF11"/>
<stop offset="1"/>
</radialGradient>
<linearGradient id="paint23_linear_402_183" x1="69.4174" y1="41.1392" x2="76.5924" y2="47.937" gradientUnits="userSpaceOnUse">
<stop stop-color="#FFFFE8"/>
<stop offset="0.2" stop-color="#BBBBAA"/>
<stop offset="0.42" stop-color="#79796E"/>
<stop offset="0.61" stop-color="#45453F"/>
<stop offset="0.78" stop-color="#1F1F1D"/>
<stop offset="0.91" stop-color="#080808"/>
<stop offset="1"/>
</linearGradient>
<linearGradient id="paint24_linear_402_183" x1="52.0752" y1="41.6262" x2="54.2582" y2="43.6943" gradientUnits="userSpaceOnUse">
<stop stop-color="#FFFFE8"/>
<stop offset="0.2" stop-color="#BBBBAA"/>
<stop offset="0.42" stop-color="#79796E"/>
<stop offset="0.61" stop-color="#45453F"/>
<stop offset="0.78" stop-color="#1F1F1D"/>
<stop offset="0.91" stop-color="#080808"/>
<stop offset="1"/>
</linearGradient>
<linearGradient id="paint25_linear_402_183" x1="61.5924" y1="47.1873" x2="65.6776" y2="51.0577" gradientUnits="userSpaceOnUse">
<stop stop-color="#FFFFE8"/>
<stop offset="0.2" stop-color="#BBBBAA"/>
<stop offset="0.42" stop-color="#79796E"/>
<stop offset="0.61" stop-color="#45453F"/>
<stop offset="0.78" stop-color="#1F1F1D"/>
<stop offset="0.91" stop-color="#080808"/>
<stop offset="1"/>
</linearGradient>
<linearGradient id="paint26_linear_402_183" x1="80.599" y1="56.6634" x2="86.4964" y2="62.251" gradientUnits="userSpaceOnUse">
<stop stop-color="#FFFFE8"/>
<stop offset="0.2" stop-color="#BBBBAA"/>
<stop offset="0.42" stop-color="#79796E"/>
<stop offset="0.61" stop-color="#45453F"/>
<stop offset="0.78" stop-color="#1F1F1D"/>
<stop offset="0.91" stop-color="#080808"/>
<stop offset="1"/>
</linearGradient>
<linearGradient id="paint27_linear_402_183" x1="84.3488" y1="50.5316" x2="88.4141" y2="54.3843" gradientUnits="userSpaceOnUse">
<stop stop-color="#FFFFE8"/>
<stop offset="0.2" stop-color="#BBBBAA"/>
<stop offset="0.42" stop-color="#79796E"/>
<stop offset="0.61" stop-color="#45453F"/>
<stop offset="0.78" stop-color="#1F1F1D"/>
<stop offset="0.91" stop-color="#080808"/>
<stop offset="1"/>
</linearGradient>
<linearGradient id="paint28_linear_402_183" x1="81.6171" y1="75.978" x2="85.4683" y2="79.6279" gradientUnits="userSpaceOnUse">
<stop stop-color="#FFFFE8"/>
<stop offset="0.2" stop-color="#BBBBAA"/>
<stop offset="0.42" stop-color="#79796E"/>
<stop offset="0.61" stop-color="#45453F"/>
<stop offset="0.78" stop-color="#1F1F1D"/>
<stop offset="0.91" stop-color="#080808"/>
<stop offset="1"/>
</linearGradient>
<linearGradient id="paint29_linear_402_183" x1="55.4928" y1="75.7839" x2="69.3188" y2="88.8846" gradientUnits="userSpaceOnUse">
<stop stop-color="#FFFFE8"/>
<stop offset="0.2" stop-color="#BBBBAA"/>
<stop offset="0.42" stop-color="#79796E"/>
<stop offset="0.61" stop-color="#45453F"/>
<stop offset="0.78" stop-color="#1F1F1D"/>
<stop offset="0.91" stop-color="#080808"/>
<stop offset="1"/>
</linearGradient>
<radialGradient id="paint30_radial_402_183" cx="0" cy="0" r="1" gradientUnits="userSpaceOnUse" gradientTransform="translate(49.2938 66.8334) rotate(14.16) scale(3.76474)">
<stop offset="0.02" stop-color="#B0FF24"/>
<stop offset="0.29" stop-color="#88F72B"/>
<stop offset="0.89" stop-color="#25E43D"/>
<stop offset="1" stop-color="#11E040"/>
</radialGradient>
<radialGradient id="paint31_radial_402_183" cx="0" cy="0" r="1" gradientUnits="userSpaceOnUse" gradientTransform="translate(44.2187 71.8521) rotate(14.16) scale(5.91227)">
<stop offset="0.01" stop-color="#00FF24"/>
<stop offset="0.19" stop-color="#28FF1E"/>
<stop offset="0.58" stop-color="#8DFF10"/>
<stop offset="1" stop-color="#FFFF00"/>
</radialGradient>
<linearGradient id="paint32_linear_402_183" x1="40.6798" y1="63.4346" x2="44.139" y2="68.8898" gradientUnits="userSpaceOnUse">
<stop stop-color="#FFFFE8"/>
<stop offset="0.2" stop-color="#BBBBAA"/>
<stop offset="0.42" stop-color="#79796E"/>
<stop offset="0.61" stop-color="#45453F"/>
<stop offset="0.78" stop-color="#1F1F1D"/>
<stop offset="0.91" stop-color="#080808"/>
<stop offset="1"/>
</linearGradient>
<radialGradient id="paint33_radial_402_183" cx="0" cy="0" r="1" gradientUnits="userSpaceOnUse" gradientTransform="translate(84.8068 80.9082) rotate(-13.8697) scale(3.79407 2.85659)">
<stop stop-color="#00FF00"/>
<stop offset="1"/>
</radialGradient>
<radialGradient id="paint34_radial_402_183" cx="0" cy="0" r="1" gradientUnits="userSpaceOnUse" gradientTransform="translate(42.778 71.1258) rotate(85.33) scale(5.26886 3.94376)">
<stop stop-color="#00FF00"/>
<stop offset="1"/>
</radialGradient>
<radialGradient id="paint35_radial_402_183" cx="0" cy="0" r="1" gradientUnits="userSpaceOnUse" gradientTransform="translate(51.2002 42.6867) rotate(128.928) scale(3.63608 3.10939)">
<stop stop-color="#00FF00"/>
<stop offset="1"/>
</radialGradient>
<radialGradient id="paint36_radial_402_183" cx="0" cy="0" r="1" gradientUnits="userSpaceOnUse" gradientTransform="translate(87.1835 54.0419) rotate(82.33) scale(5.97335 5.07913)">
<stop stop-color="#00FF00"/>
<stop offset="1"/>
</radialGradient>
<radialGradient id="paint37_radial_402_183" cx="0" cy="0" r="1" gradientUnits="userSpaceOnUse" gradientTransform="translate(55.1203 52.5922) scale(21.7255 20.7809)">
<stop offset="0.01" stop-color="#0092FF"/>
<stop offset="0.08" stop-color="#0077D0"/>
<stop offset="0.17" stop-color="#005BA0"/>
<stop offset="0.27" stop-color="#004375"/>
<stop offset="0.36" stop-color="#002E51"/>
<stop offset="0.47" stop-color="#001D33"/>
<stop offset="0.57" stop-color="#00101D"/>
<stop offset="0.69" stop-color="#00070C"/>
<stop offset="0.82" stop-color="#000203"/>
<stop offset="1"/>
</radialGradient>
</defs>
</svg>
