<svg width="130" height="128" viewBox="0 0 130 128" fill="none" xmlns="http://www.w3.org/2000/svg">
<path style="mix-blend-mode:screen" d="M65 130C100.899 130 130 100.898 130 65C130 29.1015 100.899 0 65 0C29.1015 0 0 29.1015 0 65C0 100.898 29.1015 130 65 130Z" fill="url(#paint0_radial_402_557)"/>
<path style="mix-blend-mode:screen" d="M65.0012 116.051C93.196 116.051 116.052 93.195 116.052 65.0002C116.052 36.8055 93.196 13.9491 65.0012 13.9491C36.8065 13.9491 13.9501 36.8055 13.9501 65.0002C13.9501 93.195 36.8065 116.051 65.0012 116.051Z" fill="url(#paint1_radial_402_557)"/>
<path style="mix-blend-mode:screen" d="M65.0008 113.717C91.9061 113.717 113.717 91.9056 113.717 65.0003C113.717 38.095 91.9061 16.284 65.0008 16.284C38.0955 16.284 16.2844 38.095 16.2844 65.0003C16.2844 91.9056 38.0955 113.717 65.0008 113.717Z" fill="url(#paint2_radial_402_557)"/>
<path fill-rule="evenodd" clip-rule="evenodd" d="M108.575 60.6615C108.58 66.461 107.44 72.2045 105.223 77.5633C103.005 82.9221 99.753 87.7911 95.652 91.892C91.5511 95.9928 86.6819 99.2449 81.323 101.462C75.9642 103.68 70.2207 104.819 64.4212 104.815C62.485 104.814 60.5509 104.689 58.6309 104.439C49.5798 103.245 41.1217 99.274 34.4213 93.073C27.721 86.8719 23.1082 78.7459 21.2182 69.8141C21.2111 69.8025 21.2084 69.7887 21.2104 69.7753C20.5842 66.7778 20.2684 63.7237 20.2682 60.6615C20.268 54.8632 21.41 49.1217 23.6288 43.7647C25.8477 38.4077 29.1 33.5403 33.2 29.4402C37.3 25.3402 42.1674 22.088 47.5244 19.8691C52.8814 17.6503 58.6229 16.5083 64.4212 16.5085C65.3867 16.5085 66.3366 16.5383 67.2866 16.6004C72.1784 16.9082 76.9836 18.037 81.5008 19.9394C82.2773 20.2604 83.0331 20.606 83.7837 20.9748C91.2158 24.6076 97.4794 30.2531 101.862 37.2691C106.245 44.2852 108.571 52.3904 108.575 60.6628V60.6615Z" fill="url(#paint3_radial_402_557)"/>
<path style="mix-blend-mode:screen" fill-rule="evenodd" clip-rule="evenodd" d="M38.2382 95.1456C33.6468 91.3022 29.8821 86.5681 27.1715 81.229C25.4417 77.8185 24.1668 74.1957 23.3795 70.4535C23.3724 70.4419 23.3697 70.4281 23.3717 70.4147C22.7466 67.417 22.4313 64.363 22.4308 61.3009C22.4308 55.5021 23.573 49.7602 25.7922 44.4029C28.0115 39.0456 31.2642 34.1779 35.3647 30.0777C39.4652 25.9776 44.3332 22.7253 49.6907 20.5065C55.0482 18.2878 60.7902 17.1461 66.589 17.1466C67.5545 17.1466 68.5031 17.1777 69.4531 17.2385C72.3953 17.4286 75.3111 17.9133 78.1566 18.6854C74.6358 17.5346 70.9834 16.8345 67.2866 16.6018C66.3366 16.5396 65.3867 16.5099 64.4212 16.5099C58.6222 16.5071 52.8795 17.6473 47.5214 19.8653C42.1633 22.0832 37.2948 25.3354 33.1942 29.4359C29.0937 33.5364 25.8416 38.4049 23.6236 43.763C21.4057 49.1211 20.2655 54.8638 20.2682 60.6629C20.2684 63.7251 20.5842 66.7791 21.2104 69.7766C21.2084 69.7901 21.2111 69.8038 21.2182 69.8155C22.0045 73.5578 23.279 77.1806 25.0089 80.591C27.8124 86.1124 31.7419 90.9849 36.5441 94.8943C41.3463 98.8038 46.9146 101.663 52.8899 103.289C47.5298 101.537 42.5559 98.7726 38.2382 95.1456Z" fill="url(#paint4_radial_402_557)"/>
<path fill-rule="evenodd" clip-rule="evenodd" d="M103.185 81.8078L95.9375 91.5752C89.7124 104.819 75.5927 103.383 75.5927 103.383L73.7471 103.821C58.8353 114.204 46.0383 101.333 46.0383 101.333L42.7587 99.1333C35.0505 99.7584 33.0522 91.724 33.0522 91.724L28.1408 85.825L28.0475 85.7318C5.01075 64.6493 23.2008 44.826 23.2008 44.826L24.7008 41.3588C25.96 30.8758 35.783 27.0618 35.783 27.0618C37.8887 23.0925 40.8304 21.5912 42.9218 21.0321C44.4684 20.6128 45.5684 20.7059 45.5684 20.7059C56.7801 10.1466 68.3374 11.9364 76.4365 15.6366C76.4456 15.6366 76.4546 15.6366 76.4546 15.6456C82.9878 18.6365 87.2573 22.8686 87.2573 22.8686C104.667 21.3958 102.513 38.3213 102.513 38.3213C107.64 46.4101 108.467 57.4923 108.467 57.4923C116.205 71.4063 103.185 81.8078 103.185 81.8078Z" fill="url(#paint5_radial_402_557)"/>
<path style="mix-blend-mode:screen" d="M71.6125 66.5333C77.1537 62.6821 79.1486 55.9673 76.0684 51.5354C72.9881 47.1034 65.9991 46.6327 60.4578 50.4839C54.9166 54.3352 52.9216 61.05 56.0019 65.4819C59.0821 69.9139 66.0712 70.3846 71.6125 66.5333Z" fill="url(#paint6_radial_402_557)"/>
<path style="mix-blend-mode:screen" fill-rule="evenodd" clip-rule="evenodd" d="M96.9493 40.3037C98.945 43.1756 97.652 47.528 94.0619 50.0232C90.4718 52.5184 85.9408 52.213 83.9452 49.3412C81.9495 46.4693 83.2424 42.1169 86.8325 39.6217C90.4227 37.1265 94.9536 37.4371 96.9493 40.3037Z" fill="url(#paint7_radial_402_557)"/>
<path style="mix-blend-mode:screen" fill-rule="evenodd" clip-rule="evenodd" d="M99.0327 29.6139C98.1824 31.7609 95.317 32.6397 92.6316 31.5772C89.9461 30.5146 88.4603 27.9107 89.3106 25.7636C90.1609 23.6165 93.0276 22.7378 95.7118 23.8003C98.3959 24.8628 99.883 27.4732 99.0327 29.6139Z" fill="url(#paint8_radial_402_557)"/>
<path style="mix-blend-mode:screen" d="M109.548 65.8117C110.822 62.5953 109.769 59.1619 107.197 58.1429C104.624 57.1239 101.506 58.9052 100.232 62.1215C98.958 65.3378 100.011 68.7712 102.583 69.7902C105.155 70.8092 108.273 69.028 109.548 65.8117Z" fill="url(#paint9_radial_402_557)"/>
<path style="mix-blend-mode:screen" fill-rule="evenodd" clip-rule="evenodd" d="M59.2495 20.9291C61.5518 24.2423 60.0609 29.2625 55.9182 32.1421C51.7754 35.0217 46.5495 34.6684 44.2471 31.3552C41.9447 28.042 43.4356 23.0218 47.5783 20.1422C51.7211 17.2626 56.9471 17.6147 59.2495 20.9291Z" fill="url(#paint10_radial_402_557)"/>
<path style="mix-blend-mode:screen" fill-rule="evenodd" clip-rule="evenodd" d="M52.1729 48.8591C54.4753 52.1723 52.9844 57.1925 48.8417 60.0721C44.6989 62.9517 39.4729 62.5997 37.1705 59.2852C34.8681 55.9708 36.3591 50.9518 40.5018 48.0723C44.6446 45.1927 49.8705 45.546 52.1729 48.8591Z" fill="url(#paint11_radial_402_557)"/>
<path style="mix-blend-mode:screen" fill-rule="evenodd" clip-rule="evenodd" d="M80.5511 80.8291C82.8548 84.1422 81.3626 89.1624 77.2198 92.042C73.0771 94.9216 67.8511 94.5683 65.5487 91.2552C63.2463 87.942 64.7373 82.9205 68.88 80.0422C73.0228 77.1639 78.2487 77.5146 80.5511 80.8291Z" fill="url(#paint12_radial_402_557)"/>
<path style="mix-blend-mode:screen" d="M43.2095 82.4722C46.2454 79.8135 46.0122 74.5815 42.6886 70.7863C39.3649 66.9911 34.2095 66.0697 31.1735 68.7285C28.1375 71.3872 28.3707 76.6192 31.6944 80.4144C35.018 84.2096 40.1735 85.1309 43.2095 82.4722Z" fill="url(#paint13_radial_402_557)"/>
<path style="mix-blend-mode:screen" fill-rule="evenodd" clip-rule="evenodd" d="M49.3303 91.5454C46.4831 89.6183 46.1181 85.1636 48.5279 81.5968C50.9377 78.03 55.2034 76.6996 58.0571 78.6279C60.9108 80.5563 61.2693 85.0083 58.8595 88.5765C56.4497 92.1446 52.1841 93.4789 49.3303 91.5454Z" fill="url(#paint14_radial_402_557)"/>
<path style="mix-blend-mode:screen" fill-rule="evenodd" clip-rule="evenodd" d="M38.5585 61.7708C35.7048 59.8437 35.345 55.3891 37.7549 51.8222C40.1647 48.2554 44.4316 46.9263 47.284 48.8533C50.1365 50.7804 50.4975 55.235 48.0877 58.8019C45.6779 62.3687 41.411 63.6927 38.5585 61.7708Z" fill="url(#paint15_radial_402_557)"/>
<path style="mix-blend-mode:screen" fill-rule="evenodd" clip-rule="evenodd" d="M27.7118 45.2032C24.51 43.9361 23.2003 39.6627 24.7857 35.661C26.371 31.6593 30.2511 29.4424 33.4568 30.7094C36.6625 31.9764 37.9684 36.2499 36.383 40.2528C34.7976 44.2558 30.9124 46.4754 27.7118 45.2032Z" fill="url(#paint16_radial_402_557)"/>
<path style="mix-blend-mode:screen" fill-rule="evenodd" clip-rule="evenodd" d="M21.9215 71.3464C19.3473 71.9262 16.4936 68.9935 15.5462 64.7938C14.5989 60.5941 15.9177 56.7193 18.4919 56.1395C21.066 55.5597 23.921 58.4924 24.8671 62.692C25.8131 66.8917 24.4957 70.7679 21.9215 71.3464Z" fill="url(#paint17_radial_402_557)"/>
<path style="mix-blend-mode:screen" fill-rule="evenodd" clip-rule="evenodd" d="M94.8351 64.3033C97.9748 66.8386 97.9503 72.0763 94.7808 76.0016C91.6112 79.9269 86.4979 81.049 83.3568 78.5175C80.2158 75.9861 80.2417 70.7445 83.4112 66.8205C86.5807 62.8965 91.6967 61.7705 94.8351 64.3033Z" fill="url(#paint18_radial_402_557)"/>
<path style="mix-blend-mode:multiply" opacity="0.5" fill-rule="evenodd" clip-rule="evenodd" d="M56.6394 75.5607C57.0223 75.7489 57.3745 75.9942 57.6838 76.2881C57.3228 76.0647 56.9741 75.8219 56.6394 75.5607Z" fill="url(#paint19_linear_402_557)"/>
<path style="mix-blend-mode:multiply" opacity="0.5" fill-rule="evenodd" clip-rule="evenodd" d="M103.184 81.8071C103.184 81.8071 101.272 86.9424 95.9364 91.5744C95.9364 91.5744 90.8891 88.9743 86.6454 91.6766C82.4017 94.3789 75.5916 103.383 75.5916 103.383L73.7461 103.82C73.7461 103.82 71.9342 100.503 68.4994 98.5825H68.4891C68.0671 98.334 67.6246 98.1222 67.1664 97.9496C65.6168 97.3333 63.9353 97.1244 62.2821 97.3426C54.8637 98.2758 46.0372 101.333 46.0372 101.333L42.7577 99.1325C42.7577 99.1325 48.8612 100.978 56.1592 95.3793C62.889 90.2155 61.6116 79.7311 57.6785 76.2925C59.2316 77.2515 62.3014 78.8084 65.8243 78.5845C70.7629 78.2674 79.5157 72.7878 82.1054 68.9945C81.51 70.0298 76.4678 78.3709 69.9399 82.2199C69.9399 82.2199 65.7078 85.0244 64.6271 89.9269C64.613 89.9531 64.6034 89.9816 64.5987 90.011C64.5987 90.0291 64.5896 90.0485 64.5896 90.0757C64.5721 90.1332 64.5625 90.1929 64.5611 90.253C64.4961 90.5357 64.4494 90.8223 64.4214 91.1111C64.3744 91.5267 64.384 91.9469 64.4499 92.36C65.1578 96.8431 72.8104 97.2624 78.1503 95.3793C82.8573 93.7202 85.5272 88.7906 86.3607 86.9916C86.5561 86.5723 86.6505 86.3199 86.6505 86.3199C86.6505 86.3199 91.729 87.5132 97.0133 85.4347C98.9546 84.6711 99.9407 81.93 100.174 78.5845C100.602 72.8162 98.7746 65.2542 95.7177 63.1227C91.7847 60.3919 85.2619 65.9466 82.9867 68.0911C84.5152 66.4785 87.7028 62.8431 88.0665 59.8988C88.5414 56.0162 75.9087 43.1389 63.6487 47.5638C50.9137 52.1595 54.5142 69.0876 55.8667 73.0298C54.8598 70.2343 51.8624 61.536 52.0384 56.8057C52.2714 50.5055 53.8672 46.4132 53.8672 46.4132C53.8672 46.4132 42.7435 43.5323 37.2082 51.3053C31.6729 59.0783 39.4445 68.4819 39.4445 68.4819C39.4445 68.4819 33.908 63.7012 32.2682 61.501C32.2682 61.501 26.4249 77.5129 33.0447 91.7258L28.1332 85.8268C28.1332 85.8268 28.6082 81.0914 28.8412 71.315C29.0741 61.5386 23.1932 44.8278 23.1932 44.8278L24.6932 41.3606C24.6932 41.3606 26.7251 55.6111 28.9641 57.6339C31.203 59.6568 38.0882 49.6461 39.5416 43.9892C41.9928 34.4121 35.7768 27.0636 35.7768 27.0636C35.7768 27.0636 42.2076 31.174 43.8849 41.6881C43.8849 41.6881 52.1678 43.5621 64.4162 43.3291C76.6645 43.0962 85.4703 38.3244 85.4703 38.3244C85.4703 38.3244 82.8819 42.968 80.4527 45.2161C80.4527 45.2161 85.1118 56.9079 92.3024 59.6387C99.493 62.3694 105.602 51.0555 104.539 46.4132C103.476 41.7709 97.5956 33.3845 86.0669 37.9232C86.2157 37.6644 89.0306 32.8629 88.1829 27.9501C87.3067 22.9027 87.8283 24.2319 87.8283 24.2319C87.8283 24.2319 88.7692 28.7706 92.059 32.564C95.3489 36.3573 102.507 38.3244 102.507 38.3244C102.507 38.3244 108.015 47.7838 108.46 57.4955C108.46 57.4955 101.014 57.6624 99.9602 61.4285C98.9067 65.1947 103.184 81.8071 103.184 81.8071Z" fill="url(#paint20_linear_402_557)"/>
<path style="mix-blend-mode:multiply" opacity="0.5" fill-rule="evenodd" clip-rule="evenodd" d="M41.2104 69.9371C41.2104 69.9371 46.0378 77.7773 55.1024 74.7166C55.1024 74.7114 47.6853 73.8598 41.2104 69.9371Z" fill="url(#paint21_linear_402_557)"/>
<path style="mix-blend-mode:multiply" opacity="0.5" fill-rule="evenodd" clip-rule="evenodd" d="M45.5677 20.706C45.5677 20.706 43.1838 24.696 42.9185 28.6692C42.9185 28.6692 41.3292 24.2508 42.9185 21.0334C42.9185 21.0295 44.2437 20.5131 45.5677 20.706Z" fill="url(#paint22_linear_402_557)"/>
<path style="mix-blend-mode:multiply" opacity="0.5" fill-rule="evenodd" clip-rule="evenodd" d="M87.634 56.8768C87.634 56.8768 92.5404 63.3478 97.1309 62.3422C101.721 61.3366 104.325 52.9579 104.637 48.1642C104.637 48.1642 101.574 59.9582 95.9117 60.661C90.7492 61.3016 87.634 56.8768 87.634 56.8768Z" fill="url(#paint23_linear_402_557)"/>
<path style="mix-blend-mode:multiply" opacity="0.5" fill-rule="evenodd" clip-rule="evenodd" d="M64.6263 89.9258C64.6122 89.9518 64.6027 89.9799 64.5979 90.0091C64.602 89.9808 64.6085 89.953 64.6173 89.9258H64.6263Z" fill="url(#paint24_linear_402_557)"/>
<path style="mix-blend-mode:multiply" opacity="0.5" fill-rule="evenodd" clip-rule="evenodd" d="M96.1376 87.9679C91.4694 89.8134 86.3612 86.9895 86.3612 86.9895C86.5566 86.5702 86.6511 86.3178 86.6511 86.3178C86.6511 86.3178 91.7296 87.511 97.0138 85.4326C98.9551 84.669 99.9413 81.9278 100.174 78.5823H100.183C100.183 78.5823 100.807 86.1133 96.1376 87.9679Z" fill="url(#paint25_linear_402_557)"/>
<path style="mix-blend-mode:multiply" opacity="0.5" fill-rule="evenodd" clip-rule="evenodd" d="M29.2356 57.8024C29.2356 57.8024 31.4474 58.9788 33.5595 56.701C35.6717 54.4232 37.6375 48.6976 37.6375 48.6976C37.6375 48.6976 33.975 56.8356 29.2356 57.8024Z" fill="url(#paint26_linear_402_557)"/>
<path style="mix-blend-mode:multiply" opacity="0.5" fill-rule="evenodd" clip-rule="evenodd" d="M25.9313 53.7339C25.9313 53.7339 29.2962 61.4279 30.1465 66.0197C30.9968 70.6116 28.2052 85.0859 28.2052 85.0859C28.2052 85.0859 29.1887 73.904 28.6154 66.461C28.0421 59.0181 25.9313 53.7339 25.9313 53.7339Z" fill="url(#paint27_linear_402_557)"/>
<path style="mix-blend-mode:screen" fill-rule="evenodd" clip-rule="evenodd" d="M17.1263 68.8863C17.1263 68.8863 20.7604 61.6077 25.4817 57.6268C25.4817 57.6268 25.8699 50.8542 22.2992 47.3948C22.2992 47.4026 14.644 53.9254 17.1263 68.8863Z" fill="url(#paint28_linear_402_557)"/>
<path style="mix-blend-mode:multiply" opacity="0.5" fill-rule="evenodd" clip-rule="evenodd" d="M46.8037 43.4165C46.8037 43.4165 54.0862 45.1404 56.0818 47.2654C56.0818 47.2654 52.9136 51.1105 53.6914 59.9991C53.6914 59.9991 54.5741 50.6873 60.9312 47.4039C67.2883 44.1205 79.2959 47.5903 83.0931 51.6269C83.0931 51.6269 77.7364 45.5881 77.8244 44.5929C77.9124 43.5977 82.5819 40.9601 82.5819 40.9601C82.5819 40.9601 74.8762 44.1852 65.8297 44.7404C57.684 45.2413 46.8037 43.4165 46.8037 43.4165Z" fill="url(#paint29_linear_402_557)"/>
<path style="mix-blend-mode:multiply" opacity="0.5" fill-rule="evenodd" clip-rule="evenodd" d="M60.4012 78.5834C60.4012 78.5834 63.4659 83.4819 62.8887 86.6889C61.9167 92.0974 57.752 95.6254 54.5139 97.1564C51.2758 98.6875 44.0411 99.9946 44.0411 99.9946L45.1555 100.864C45.1555 100.864 54.1023 97.8036 58.7524 96.8614C63.4025 95.9192 72.7621 98.4507 74.2919 103.749L75.5964 103.383C75.5964 103.383 77.1766 99.8044 80.4134 96.037C83.6502 92.2695 87.6338 89.5038 87.6338 89.5038C87.6338 89.5038 84.7697 90.9753 80.6451 94.6806C76.5204 98.3859 76.9204 99.9222 71.5223 98.6836C66.1242 97.4451 62.2221 94.5629 62.0448 93.0331C61.8675 91.5034 64.1052 85.5164 66.6367 83.0056C69.1681 80.4949 73.4053 77.4496 73.4053 77.4496C73.4053 77.4496 68.5793 81.4371 65.2829 81.3193C61.9866 81.2015 60.4012 78.5834 60.4012 78.5834Z" fill="url(#paint30_linear_402_557)"/>
<path style="mix-blend-mode:multiply" opacity="0.5" fill-rule="evenodd" clip-rule="evenodd" d="M88.3019 35.8858C88.3019 35.8858 95.0615 34.7611 100.04 38.3254C100.04 38.3254 90.6561 34.6667 88.773 29.0369C88.773 29.0265 90.1785 33.0554 88.3019 35.8858Z" fill="url(#paint31_linear_402_557)"/>
<path style="mix-blend-mode:screen" fill-rule="evenodd" clip-rule="evenodd" d="M42.9215 21.0316C40.535 22.2158 36.8918 28.6273 36.8918 28.6273C36.8918 28.6273 32.586 30.4392 29.762 34.2286C26.9381 38.0181 25.4912 45.0999 25.4912 45.0999L24.0585 47.4036C24.0585 47.4036 16.2571 56.7426 18.0832 67.1337C19.7993 76.8726 27.1335 84.7763 28.0485 85.7275C5.01175 64.645 23.2017 44.8217 23.2017 44.8217L24.7017 41.3545C25.961 30.8715 35.784 27.0575 35.784 27.0575C37.8884 23.092 40.8249 21.5907 42.9215 21.0316Z" fill="url(#paint32_linear_402_557)"/>
<path style="mix-blend-mode:screen" fill-rule="evenodd" clip-rule="evenodd" d="M76.4355 15.6361C59.0725 8.06762 43.4424 25.7477 43.4424 25.7477C43.8306 24.0329 45.5675 20.7003 45.5675 20.7003C56.7791 10.1461 68.3364 11.9425 76.4355 15.6361Z" fill="url(#paint33_linear_402_557)"/>
<path fill-rule="evenodd" clip-rule="evenodd" d="M49.9395 22.4255C51.4097 23.5605 57.0265 21.0924 58.4954 18.5338C59.9643 15.9752 58.9548 15.3177 58.9548 15.3177C58.9548 15.3177 55.2768 15.7668 52.7052 17.5179C50.1336 19.2689 49.2963 21.9285 49.9395 22.4255Z" fill="#FFFFBF"/>
<path style="mix-blend-mode:screen" fill-rule="evenodd" clip-rule="evenodd" d="M71.5856 40.5667C71.5856 40.5667 76.2253 40.3946 81.239 35.311C85.4659 31.0246 85.713 24.0682 85.713 24.0682C85.713 24.0682 88.2536 29.7925 85.1566 35.311C82.0595 40.8294 71.5856 40.5667 71.5856 40.5667Z" fill="url(#paint34_linear_402_557)"/>
<path style="mix-blend-mode:screen" fill-rule="evenodd" clip-rule="evenodd" d="M56.2511 73.8619C56.2511 73.8619 62.3429 77.1207 71.1732 72.4383C80.0036 67.7559 83.3387 62.2309 84.1877 58.9851C84.1877 58.9851 84.1709 64.7792 79.8262 69.9418C75.4816 75.1044 69.2306 78.5871 64.5301 77.8985C60.21 77.2644 56.2511 73.8619 56.2511 73.8619Z" fill="url(#paint35_linear_402_557)"/>
<path style="mix-blend-mode:screen" fill-rule="evenodd" clip-rule="evenodd" d="M33.4371 90.6415C33.4371 90.6415 34.8841 96.7618 43.8904 96.7747C52.8968 96.7877 57.9247 89.9258 57.9247 89.9258C57.9247 89.9258 54.3954 98.364 45.5004 98.6384C36.6053 98.9128 34.3793 94.1824 33.4371 90.6415Z" fill="url(#paint36_linear_402_557)"/>
<path style="mix-blend-mode:screen" fill-rule="evenodd" clip-rule="evenodd" d="M69.2303 94.2227C69.2303 94.2227 75.9705 96.3788 80.7966 91.5735C85.6227 86.7681 86.3009 83.9066 86.3009 83.9066C86.3009 83.9066 83.9351 92.482 78.1474 94.8737C73.3679 96.8512 69.2303 94.2227 69.2303 94.2227Z" fill="url(#paint37_linear_402_557)"/>
<path style="mix-blend-mode:screen" fill-rule="evenodd" clip-rule="evenodd" d="M89.0957 85.5012C89.0957 85.5012 92.0724 85.7173 95.6017 80.6544C99.1309 75.5915 98.6624 71.3206 98.6624 71.3206C98.6624 71.3206 100.804 79.8779 97.6025 83.4861C94.4006 87.0944 89.0957 85.5012 89.0957 85.5012Z" fill="url(#paint38_linear_402_557)"/>
<path fill-rule="evenodd" clip-rule="evenodd" d="M48.9226 23.2557C47.7294 21.7518 45.7907 24.6702 46.8519 25.8156C47.9132 26.961 49.505 23.9946 48.9226 23.2557Z" fill="#FFFFBF"/>
<path fill-rule="evenodd" clip-rule="evenodd" d="M64.4211 50.4788C62.9728 48.408 57.4699 53.7544 56.639 57.2371C55.8082 60.7198 62.305 59.4579 63.6484 58.143C64.9918 56.8281 65.4888 52.0046 64.4211 50.4788Z" fill="#FFFFBF"/>
<path fill-rule="evenodd" clip-rule="evenodd" d="M90.1337 66.2016C89.3973 65.1468 86.1398 67.171 86.1773 69.6377C86.2045 71.4587 89.0582 70.7676 89.7416 70.101C90.4249 69.4345 90.6772 66.9768 90.1337 66.2016Z" fill="#FFC975"/>
<path fill-rule="evenodd" clip-rule="evenodd" d="M88.0084 40.7324C87.2707 39.6789 84.0132 41.7031 84.0507 44.1698C84.0779 45.9907 86.9316 45.2996 87.615 44.6318C88.2983 43.964 88.5507 41.5089 88.0084 40.7324Z" fill="#FFFFBF"/>
<path fill-rule="evenodd" clip-rule="evenodd" d="M90.3371 24.3342C89.8376 24.3471 89.7961 25.8367 90.6037 26.3531C91.199 26.7349 91.586 25.662 91.5161 25.2971C91.4462 24.9321 90.7047 24.3251 90.3371 24.3342Z" fill="#FFFFBF"/>
<path fill-rule="evenodd" clip-rule="evenodd" d="M30.5098 34.0741C30.0594 33.5564 28.4313 34.8105 28.5853 36.1254C28.7005 37.0948 30.1849 36.5693 30.5137 36.1759C30.8424 35.7824 30.8424 34.4623 30.5098 34.0741Z" fill="#FFFFBF"/>
<path fill-rule="evenodd" clip-rule="evenodd" d="M39.6507 51.4478C39.2935 50.9366 37.7094 51.9176 37.7314 53.1147C37.7444 53.9974 39.1291 53.6622 39.4605 53.3386C39.7918 53.0151 39.9135 51.8231 39.6507 51.4478Z" fill="#FFFFBF"/>
<path fill-rule="evenodd" clip-rule="evenodd" d="M33.5066 71.788C32.831 71.3492 31.4139 73.2905 32.0157 74.7155C32.4596 75.7676 33.957 74.6973 34.1952 74.1473C34.3896 73.738 34.4268 73.2716 34.2999 72.8366C34.1729 72.4016 33.8906 72.0284 33.5066 71.788Z" fill="#FFFFBF"/>
<path fill-rule="evenodd" clip-rule="evenodd" d="M20.0125 58.442C19.1066 57.8635 17.2416 60.4506 18.0492 62.3376C18.6445 63.7314 20.6234 62.2988 20.9392 61.5688C21.255 60.8389 20.6751 58.8691 20.0125 58.442Z" fill="#FFFFBF"/>
<path fill-rule="evenodd" clip-rule="evenodd" d="M69.0862 85.6248C68.7226 85.1071 67.1139 86.1037 67.132 87.3215C67.1449 88.2274 68.5556 87.8793 68.8921 87.5506C69.2286 87.2218 69.3541 86.0079 69.0862 85.6248Z" fill="#FFC975"/>
<path fill-rule="evenodd" clip-rule="evenodd" d="M56.2578 62.5456C55.5965 63.0711 55.7738 64.4326 56.1207 64.8959C56.4675 65.3592 57.4291 64.2022 57.4679 63.7207C57.5068 63.2393 56.6241 62.2505 56.2578 62.5456Z" fill="#FFFFBF"/>
<path fill-rule="evenodd" clip-rule="evenodd" d="M53.4519 100.138C52.6987 99.75 51.5352 100.488 51.2608 100.996C50.9864 101.505 51.9933 102.021 52.8915 101.729C53.7897 101.436 53.8712 100.351 53.4519 100.138Z" fill="#FFA475"/>
<path fill-rule="evenodd" clip-rule="evenodd" d="M84.6474 94.2875C83.4606 94.3056 81.971 96.0243 81.707 96.8591C81.443 97.6939 83.0336 97.6809 84.254 96.7025C85.4745 95.7241 85.31 94.2785 84.6474 94.2875Z" fill="#FF93A4"/>
<path fill-rule="evenodd" clip-rule="evenodd" d="M103.991 60.9203C103.167 60.7909 102.327 61.8405 102.239 62.4022C102.151 62.9639 103.257 63.136 103.995 62.5847C104.733 62.0333 104.456 60.9915 103.991 60.9203Z" fill="#FFBBB8"/>
<path fill-rule="evenodd" clip-rule="evenodd" d="M52.8819 77.6967C51.378 77.4703 49.8483 79.3792 49.6879 80.3965C49.5274 81.4137 51.5437 81.7347 52.8884 80.7291C54.2331 79.7235 53.7205 77.8184 52.8819 77.6967Z" fill="#FFFFBF"/>
<path style="mix-blend-mode:screen" fill-rule="evenodd" clip-rule="evenodd" d="M85.1554 51.3106C85.1554 51.3106 89.029 57.5034 96.1367 56.129C103.244 54.7545 104.018 48.6976 104.018 48.6976C104.018 48.6976 101.738 60.0866 94.5863 59.4913C87.4345 58.896 85.1554 51.3106 85.1554 51.3106Z" fill="url(#paint39_linear_402_557)"/>
<path style="mix-blend-mode:screen" fill-rule="evenodd" clip-rule="evenodd" d="M41.6042 68.1325C41.6042 68.1325 46.4549 70.7985 48.9812 68.6088C51.5075 66.419 50.3181 59.1611 50.3181 59.1611C50.3181 59.1611 53.243 70.7571 51.3975 72.393C49.6257 73.9642 41.6042 68.1325 41.6042 68.1325Z" fill="url(#paint40_linear_402_557)"/>
<path style="mix-blend-mode:screen" fill-rule="evenodd" clip-rule="evenodd" d="M42.7 33.2865C42.7 33.2865 44.1974 36.7808 52.0053 39.0987C59.8133 41.4166 68.1829 40.9533 68.1829 40.9533C68.1829 40.9533 53.9117 42.958 48.1589 40.9909C42.4062 39.0237 42.7 33.2865 42.7 33.2865Z" fill="url(#paint41_linear_402_557)"/>
<path style="mix-blend-mode:screen" fill-rule="evenodd" clip-rule="evenodd" d="M91.5236 31.0043C91.5236 31.0043 95.366 34.0301 98.3673 34.8053C101.369 35.5806 102.238 33.9486 102.238 33.9486C102.238 33.9486 102.405 37.0741 101.105 37.2333C99.8038 37.3925 94.7021 34.8416 91.5236 31.0043Z" fill="url(#paint42_linear_402_557)"/>
<path style="mix-blend-mode:screen" fill-rule="evenodd" clip-rule="evenodd" d="M101.185 68.8869C101.185 68.8869 102.933 75.2363 104.844 75.9235C106.754 76.6107 109.58 71.3174 109.58 71.3174C109.58 71.3174 107.994 77.1944 104.015 79.5058C104.018 79.5084 102.103 77.0844 101.185 68.8869Z" fill="url(#paint43_linear_402_557)"/>
<path style="mix-blend-mode:screen" fill-rule="evenodd" clip-rule="evenodd" d="M53.3379 105.22C53.3379 105.22 57.8844 107.382 63.3589 107.206C68.8334 107.03 72.8066 103.748 72.8066 103.748C72.8066 103.748 72.0909 101.548 70.2182 100.362C70.2182 100.362 70.2182 103.285 67.1302 105.042C64.1691 106.729 57.2063 106.436 53.3379 105.22Z" fill="url(#paint44_linear_402_557)"/>
<path style="mix-blend-mode:screen" fill-rule="evenodd" clip-rule="evenodd" d="M92.834 90.9197C92.834 90.9197 91.9604 95.5698 88.743 98.4688C85.5256 101.368 80.8251 102.632 80.8251 102.632C80.8251 102.632 84.8565 102.309 89.6256 98.9541C94.3948 95.5996 95.2774 91.7144 95.2774 91.7144L92.834 90.9197Z" fill="url(#paint45_linear_402_557)"/>
<defs>
<radialGradient id="paint0_radial_402_557" cx="0" cy="0" r="1" gradientUnits="userSpaceOnUse" gradientTransform="translate(65 65) scale(65)">
<stop stop-color="#FF4000"/>
<stop offset="1"/>
</radialGradient>
<radialGradient id="paint1_radial_402_557" cx="0" cy="0" r="1" gradientUnits="userSpaceOnUse" gradientTransform="translate(65.0012 65.0002) scale(51.0511 51.0511)">
<stop stop-color="#FF7300"/>
<stop offset="1"/>
</radialGradient>
<radialGradient id="paint2_radial_402_557" cx="0" cy="0" r="1" gradientUnits="userSpaceOnUse" gradientTransform="translate(65.0008 65.0003) scale(48.7164 48.7163)">
<stop stop-color="#FF7900"/>
<stop offset="0.18" stop-color="#FC7800"/>
<stop offset="0.32" stop-color="#F37300"/>
<stop offset="0.43" stop-color="#E36C00"/>
<stop offset="0.54" stop-color="#CC6100"/>
<stop offset="0.64" stop-color="#AF5300"/>
<stop offset="0.74" stop-color="#8C4200"/>
<stop offset="0.83" stop-color="#622E00"/>
<stop offset="0.92" stop-color="#321800"/>
<stop offset="1"/>
</radialGradient>
<radialGradient id="paint3_radial_402_557" cx="0" cy="0" r="1" gradientUnits="userSpaceOnUse" gradientTransform="translate(48.377 45.3097) scale(62.6549 62.6549)">
<stop offset="0.01" stop-color="#FFCC00"/>
<stop offset="0.18" stop-color="#FEC902"/>
<stop offset="0.33" stop-color="#FCBE08"/>
<stop offset="0.48" stop-color="#F8AD13"/>
<stop offset="0.61" stop-color="#F29422"/>
<stop offset="0.74" stop-color="#EA7435"/>
<stop offset="0.82" stop-color="#E55E42"/>
<stop offset="0.84" stop-color="#E35D49"/>
<stop offset="0.88" stop-color="#DF5A5C"/>
<stop offset="0.93" stop-color="#D7567C"/>
<stop offset="0.98" stop-color="#CC4FA7"/>
<stop offset="1" stop-color="#C74CBD"/>
</radialGradient>
<radialGradient id="paint4_radial_402_557" cx="0" cy="0" r="1" gradientUnits="userSpaceOnUse" gradientTransform="translate(32.1554 30.6076) scale(58.1161 58.1161)">
<stop stop-color="#FFFFD9"/>
<stop offset="1"/>
</radialGradient>
<radialGradient id="paint5_radial_402_557" cx="0" cy="0" r="1" gradientUnits="userSpaceOnUse" gradientTransform="translate(46.4731 43.7738) scale(67.2791 67.2791)">
<stop offset="0.01" stop-color="#FFCC00"/>
<stop offset="0.18" stop-color="#FEC902"/>
<stop offset="0.33" stop-color="#FCBE08"/>
<stop offset="0.48" stop-color="#F8AD13"/>
<stop offset="0.61" stop-color="#F29422"/>
<stop offset="0.74" stop-color="#EA7435"/>
<stop offset="0.82" stop-color="#E55E42"/>
<stop offset="0.84" stop-color="#E35D49"/>
<stop offset="0.88" stop-color="#DF5A5C"/>
<stop offset="0.93" stop-color="#D7567C"/>
<stop offset="0.98" stop-color="#CC4FA7"/>
<stop offset="1" stop-color="#C74CBD"/>
</radialGradient>
<radialGradient id="paint6_radial_402_557" cx="0" cy="0" r="1" gradientUnits="userSpaceOnUse" gradientTransform="translate(67.3593 56.4946) rotate(-34.8) scale(12.2417 9.74938)">
<stop stop-color="#FFD400"/>
<stop offset="0.66" stop-color="#584900"/>
<stop offset="1"/>
</radialGradient>
<radialGradient id="paint7_radial_402_557" cx="0" cy="0" r="1" gradientUnits="userSpaceOnUse" gradientTransform="translate(91.0839 44.4197) rotate(-34.7386) scale(7.91851 6.31139)">
<stop stop-color="#FFD400"/>
<stop offset="0.66" stop-color="#584900"/>
<stop offset="1"/>
</radialGradient>
<radialGradient id="paint8_radial_402_557" cx="0" cy="0" r="1" gradientUnits="userSpaceOnUse" gradientTransform="translate(94.3481 24.948) rotate(21.482) scale(5.22559 4.18277)">
<stop stop-color="#FFD400"/>
<stop offset="0.66" stop-color="#584900"/>
<stop offset="1"/>
</radialGradient>
<radialGradient id="paint9_radial_402_557" cx="0" cy="0" r="1" gradientUnits="userSpaceOnUse" gradientTransform="translate(104.258 61.5105) rotate(-68.39) scale(6.27648 4.99862)">
<stop stop-color="#FF8600"/>
<stop offset="0.66" stop-color="#582E00"/>
<stop offset="1"/>
</radialGradient>
<radialGradient id="paint10_radial_402_557" cx="0" cy="0" r="1" gradientUnits="userSpaceOnUse" gradientTransform="translate(52.394 25.8584) rotate(-34.7387) scale(9.13541 7.28132)">
<stop stop-color="#FFD400"/>
<stop offset="0.66" stop-color="#584900"/>
<stop offset="1"/>
</radialGradient>
<radialGradient id="paint11_radial_402_557" cx="0" cy="0" r="1" gradientUnits="userSpaceOnUse" gradientTransform="translate(45.2906 53.7025) rotate(-34.7386) scale(9.13541 7.28131)">
<stop stop-color="#FFD400"/>
<stop offset="0.66" stop-color="#584900"/>
<stop offset="1"/>
</radialGradient>
<radialGradient id="paint12_radial_402_557" cx="0" cy="0" r="1" gradientUnits="userSpaceOnUse" gradientTransform="translate(73.6432 85.5239) rotate(-34.7386) scale(9.13542 7.28131)">
<stop offset="0.01" stop-color="#FF8300"/>
<stop offset="0.66" stop-color="#582D00"/>
<stop offset="1"/>
</radialGradient>
<radialGradient id="paint13_radial_402_557" cx="0" cy="0" r="1" gradientUnits="userSpaceOnUse" gradientTransform="translate(38.25 77.2573) rotate(48.79) scale(9.15318 7.28965)">
<stop offset="0.01" stop-color="#FF8300"/>
<stop offset="0.66" stop-color="#582D00"/>
<stop offset="1"/>
</radialGradient>
<radialGradient id="paint14_radial_402_557" cx="0" cy="0" r="1" gradientUnits="userSpaceOnUse" gradientTransform="translate(54.4288 84.8804) rotate(123.977) scale(7.78135 6.22525)">
<stop offset="0.01" stop-color="#FF8300"/>
<stop offset="0.66" stop-color="#582D00"/>
<stop offset="1"/>
</radialGradient>
<radialGradient id="paint15_radial_402_557" cx="0" cy="0" r="1" gradientUnits="userSpaceOnUse" gradientTransform="translate(43.7134 55.0452) rotate(123.977) scale(7.78135 6.22524)">
<stop offset="0.01" stop-color="#FF8300"/>
<stop offset="0.66" stop-color="#582D00"/>
<stop offset="1"/>
</radialGradient>
<radialGradient id="paint16_radial_402_557" cx="0" cy="0" r="1" gradientUnits="userSpaceOnUse" gradientTransform="translate(31.9457 37.9958) rotate(111.482) scale(7.78879 6.23446)">
<stop offset="0.01" stop-color="#FF8300"/>
<stop offset="0.66" stop-color="#582D00"/>
<stop offset="1"/>
</radialGradient>
<radialGradient id="paint17_radial_402_557" cx="0" cy="0" r="1" gradientUnits="userSpaceOnUse" gradientTransform="translate(22.5215 66.7132) rotate(77.2109) scale(7.8157 4.78767)">
<stop offset="0.01" stop-color="#FF8300"/>
<stop offset="0.66" stop-color="#582D00"/>
<stop offset="1"/>
</radialGradient>
<radialGradient id="paint18_radial_402_557" cx="0" cy="0" r="1" gradientUnits="userSpaceOnUse" gradientTransform="translate(92.0653 70.096) rotate(-51.0725) scale(9.15909 7.32727)">
<stop offset="0.01" stop-color="#FF8300"/>
<stop offset="0.66" stop-color="#582D00"/>
<stop offset="1"/>
</radialGradient>
<linearGradient id="paint19_linear_402_557" x1="56.6394" y1="75.9244" x2="57.6838" y2="75.9244" gradientUnits="userSpaceOnUse">
<stop stop-color="#CA528D"/>
<stop offset="1" stop-color="#8E7090"/>
</linearGradient>
<linearGradient id="paint20_linear_402_557" x1="23.1997" y1="63.9445" x2="108.459" y2="63.9445" gradientUnits="userSpaceOnUse">
<stop stop-color="#F4788D"/>
<stop offset="1" stop-color="#8E7090"/>
</linearGradient>
<linearGradient id="paint21_linear_402_557" x1="41.2104" y1="72.6808" x2="55.1024" y2="72.6808" gradientUnits="userSpaceOnUse">
<stop stop-color="#CA528D"/>
<stop offset="1" stop-color="#8E7090"/>
</linearGradient>
<linearGradient id="paint22_linear_402_557" x1="42.2132" y1="24.6662" x2="45.5677" y2="24.6662" gradientUnits="userSpaceOnUse">
<stop stop-color="#CA528D"/>
<stop offset="1" stop-color="#8E7090"/>
</linearGradient>
<linearGradient id="paint23_linear_402_557" x1="87.634" y1="55.3056" x2="104.64" y2="55.3056" gradientUnits="userSpaceOnUse">
<stop stop-color="#CA528D"/>
<stop offset="1" stop-color="#B3757C"/>
</linearGradient>
<linearGradient id="paint24_linear_402_557" x1="64.5979" y1="89.9681" x2="64.6263" y2="89.9681" gradientUnits="userSpaceOnUse">
<stop stop-color="#CA528D"/>
<stop offset="1" stop-color="#B3757C"/>
</linearGradient>
<linearGradient id="paint25_linear_402_557" x1="86.3612" y1="83.5883" x2="100.21" y2="83.5883" gradientUnits="userSpaceOnUse">
<stop stop-color="#CA528D"/>
<stop offset="1" stop-color="#B3757C"/>
</linearGradient>
<linearGradient id="paint26_linear_402_557" x1="29.2356" y1="53.4021" x2="37.6375" y2="53.4021" gradientUnits="userSpaceOnUse">
<stop stop-color="#CA528D"/>
<stop offset="1" stop-color="#B3757C"/>
</linearGradient>
<linearGradient id="paint27_linear_402_557" x1="25.9313" y1="69.4092" x2="30.3082" y2="69.4092" gradientUnits="userSpaceOnUse">
<stop stop-color="#CA528D"/>
<stop offset="1" stop-color="#B3757C"/>
</linearGradient>
<linearGradient id="paint28_linear_402_557" x1="21.0632" y1="68.8889" x2="21.0632" y2="47.4013" gradientUnits="userSpaceOnUse">
<stop/>
<stop offset="0.08" stop-color="#080502"/>
<stop offset="0.22" stop-color="#1F1209"/>
<stop offset="0.38" stop-color="#452813"/>
<stop offset="0.57" stop-color="#794621"/>
<stop offset="0.79" stop-color="#BB6C33"/>
<stop offset="0.98" stop-color="#FF9346"/>
</linearGradient>
<linearGradient id="paint29_linear_402_557" x1="46.8037" y1="50.4802" x2="83.0931" y2="50.4802" gradientUnits="userSpaceOnUse">
<stop stop-color="#CA528D"/>
<stop offset="1" stop-color="#B3757C"/>
</linearGradient>
<linearGradient id="paint30_linear_402_557" x1="44.0411" y1="90.6" x2="87.6338" y2="90.6" gradientUnits="userSpaceOnUse">
<stop stop-color="#CA528D"/>
<stop offset="1" stop-color="#B3757C"/>
</linearGradient>
<linearGradient id="paint31_linear_402_557" x1="88.3019" y1="33.6753" x2="100.04" y2="33.6753" gradientUnits="userSpaceOnUse">
<stop stop-color="#CA528D"/>
<stop offset="1" stop-color="#B3757C"/>
</linearGradient>
<linearGradient id="paint32_linear_402_557" x1="16.38" y1="53.3815" x2="42.9215" y2="53.3815" gradientUnits="userSpaceOnUse">
<stop stop-color="#514579"/>
<stop offset="0.11" stop-color="#594D7F"/>
<stop offset="0.27" stop-color="#6E6490"/>
<stop offset="0.48" stop-color="#918AAB"/>
<stop offset="0.72" stop-color="#C2BED0"/>
<stop offset="0.98" stop-color="white"/>
</linearGradient>
<linearGradient id="paint33_linear_402_557" x1="43.4424" y1="19.2495" x2="76.4355" y2="19.2495" gradientUnits="userSpaceOnUse">
<stop stop-color="#514579"/>
<stop offset="0.11" stop-color="#594D7F"/>
<stop offset="0.27" stop-color="#6E6490"/>
<stop offset="0.48" stop-color="#918AAB"/>
<stop offset="0.72" stop-color="#C2BED0"/>
<stop offset="0.98" stop-color="white"/>
</linearGradient>
<linearGradient id="paint34_linear_402_557" x1="71.5856" y1="32.3188" x2="86.6941" y2="32.3188" gradientUnits="userSpaceOnUse">
<stop stop-color="#FF8B4A"/>
<stop offset="1"/>
</linearGradient>
<linearGradient id="paint35_linear_402_557" x1="56.2511" y1="68.4832" x2="84.1877" y2="68.4832" gradientUnits="userSpaceOnUse">
<stop stop-color="#FF8B4A"/>
<stop offset="1"/>
</linearGradient>
<linearGradient id="paint36_linear_402_557" x1="33.4371" y1="94.2873" x2="57.9247" y2="94.2873" gradientUnits="userSpaceOnUse">
<stop stop-color="#FF8B4A"/>
<stop offset="1"/>
</linearGradient>
<linearGradient id="paint37_linear_402_557" x1="69.2303" y1="89.759" x2="86.3009" y2="89.759" gradientUnits="userSpaceOnUse">
<stop stop-color="#FF8B4A"/>
<stop offset="1"/>
</linearGradient>
<linearGradient id="paint38_linear_402_557" x1="89.0957" y1="78.5837" x2="99.3639" y2="78.5837" gradientUnits="userSpaceOnUse">
<stop stop-color="#FF8B4A"/>
<stop offset="1"/>
</linearGradient>
<linearGradient id="paint39_linear_402_557" x1="85.1554" y1="54.1061" x2="104.018" y2="54.1061" gradientUnits="userSpaceOnUse">
<stop stop-color="#FF8B4A"/>
<stop offset="1"/>
</linearGradient>
<linearGradient id="paint40_linear_402_557" x1="46.8043" y1="72.6648" x2="46.8043" y2="59.1662" gradientUnits="userSpaceOnUse">
<stop stop-color="#FF8B4A"/>
<stop offset="1"/>
</linearGradient>
<linearGradient id="paint41_linear_402_557" x1="55.4389" y1="41.8554" x2="55.4389" y2="33.2865" gradientUnits="userSpaceOnUse">
<stop stop-color="#FF8B4A"/>
<stop offset="1"/>
</linearGradient>
<linearGradient id="paint42_linear_402_557" x1="91.5236" y1="34.122" x2="102.245" y2="34.122" gradientUnits="userSpaceOnUse">
<stop stop-color="#FF8B4A"/>
<stop offset="1"/>
</linearGradient>
<linearGradient id="paint43_linear_402_557" x1="101.185" y1="74.1996" x2="109.58" y2="74.1996" gradientUnits="userSpaceOnUse">
<stop/>
<stop offset="1" stop-color="#FF8B4A"/>
</linearGradient>
<linearGradient id="paint44_linear_402_557" x1="53.3379" y1="103.79" x2="72.8066" y2="103.79" gradientUnits="userSpaceOnUse">
<stop stop-color="#FF8B4A"/>
<stop offset="1"/>
</linearGradient>
<linearGradient id="paint45_linear_402_557" x1="80.8264" y1="96.776" x2="95.2774" y2="96.776" gradientUnits="userSpaceOnUse">
<stop stop-color="#FF8B4A"/>
<stop offset="1"/>
</linearGradient>
</defs>
</svg>
