<svg width="130" height="130" viewBox="0 0 130 130" fill="none" xmlns="http://www.w3.org/2000/svg">
<path style="mix-blend-mode:screen" d="M62.7775 96.6488C81.3121 96.6488 96.3373 81.6235 96.3373 63.089C96.3373 44.5544 81.3121 29.5291 62.7775 29.5291C44.2429 29.5291 29.2177 44.5544 29.2177 63.089C29.2177 81.6235 44.2429 96.6488 62.7775 96.6488Z" fill="url(#paint0_radial_402_249)"/>
<path style="mix-blend-mode:screen" d="M85 84.9999C96.0457 73.9542 96.0457 56.0456 85 44.9999C73.9543 33.9542 56.0457 33.9542 45 44.9999C33.9543 56.0456 33.9543 73.9542 45 84.9999C56.0457 96.0456 73.9543 96.0456 85 84.9999Z" fill="url(#paint1_radial_402_249)"/>
<path style="mix-blend-mode:screen" d="M62.477 89.59C77.3838 89.59 89.4682 77.5056 89.4682 62.5988C89.4682 47.6919 77.3838 35.6076 62.477 35.6076C47.5702 35.6076 35.4858 47.6919 35.4858 62.5988C35.4858 77.5056 47.5702 89.59 62.477 89.59Z" fill="url(#paint2_radial_402_249)"/>
<path fill-rule="evenodd" clip-rule="evenodd" d="M88.4353 68.8083L88.2429 69.4983C88.237 69.531 88.2266 69.5577 88.2162 69.5949C86.5857 75.1977 83.179 80.1191 78.509 83.6179C73.8391 87.1167 68.1587 89.0034 62.3235 88.994C61.8474 88.994 61.3579 88.9836 60.89 88.9568H60.8848C60.1785 88.919 59.4781 88.8551 58.7881 88.7697C54.3647 88.1913 50.1562 86.5161 46.5451 83.8967C46.2139 83.6561 45.8871 83.4102 45.5722 83.1592C46.1923 82.6237 47.5032 82.5702 47.5032 82.5702L45.6791 81.1211L41.1062 78.6605C40.2241 77.5478 39.4335 76.3655 38.7421 75.1252C38.5757 74.831 38.4151 74.5315 38.2601 74.2265C38.2601 74.2161 38.2497 74.2109 38.2445 74.1997C38.0841 73.8734 37.9288 73.5474 37.7788 73.2216H37.7736C37.303 72.1859 36.8994 71.1211 36.5652 70.0338C36.3186 69.2473 36.1047 68.4399 35.9339 67.6163C35.9298 67.6099 35.928 67.6023 35.9287 67.5947C35.8106 67.0221 35.7059 66.439 35.6316 65.8508C35.449 64.5843 35.3579 63.3062 35.359 62.0265C35.359 61.7295 35.3642 61.422 35.3754 61.1279C35.3858 60.6822 35.4125 60.2366 35.4556 59.8073C35.4987 59.378 35.5358 58.9405 35.5893 58.5127C35.5905 58.4803 35.5939 58.4481 35.5997 58.4162C35.6799 57.8176 35.7764 57.2345 35.8967 56.6515C36.0616 55.8156 36.2706 54.989 36.5229 54.1752C36.8563 53.0509 37.2691 51.9517 37.758 50.8857C38.2228 49.8595 38.7535 48.8644 39.3467 47.9067C41.1871 46.933 42.3636 46.425 42.3636 46.425C42.3636 46.425 73.7591 40.1935 74.2464 39.6588C74.7336 39.124 77.1081 39.4612 77.1081 39.4612C78.5784 40.4286 79.9521 41.5354 81.2101 42.7663C81.5072 43.05 81.7879 43.3494 82.0769 43.6494C82.264 43.8522 82.4482 44.0661 82.6324 44.2748C82.9429 44.6276 83.2481 44.9967 83.5422 45.3658C84.6207 46.7366 85.563 48.2092 86.3557 49.7627C86.6654 50.3614 86.9499 50.9764 87.2113 51.6025C87.2113 51.6077 87.2165 51.6129 87.2165 51.6181C89.6392 61.0959 86.6498 69.1351 86.6498 69.1351C87.2254 68.9382 87.8272 68.828 88.4353 68.8083Z" fill="url(#paint3_radial_402_249)"/>
<path fill-rule="evenodd" clip-rule="evenodd" d="M88.4353 68.8083L88.2429 69.4983C88.237 69.531 88.2266 69.5577 88.2162 69.5949C86.5857 75.1977 83.179 80.1191 78.509 83.6179C73.8391 87.1167 68.1587 89.0034 62.3235 88.994C61.8474 88.994 61.3579 88.9836 60.89 88.9568H60.8848C60.1785 88.919 59.4781 88.8551 58.7881 88.7697C54.3647 88.1913 50.1562 86.5161 46.5451 83.8967C46.2139 83.6561 45.8871 83.4102 45.5722 83.1592C46.1923 82.6237 47.5032 82.5702 47.5032 82.5702L45.6791 81.1211L41.1062 78.6605C40.2241 77.5478 39.4335 76.3655 38.7421 75.1252C38.5757 74.831 38.4151 74.5315 38.2601 74.2265C38.2601 74.2161 38.2497 74.2109 38.2445 74.1997C38.0841 73.8734 37.9288 73.5474 37.7788 73.2216H37.7736C37.303 72.1859 36.8994 71.1211 36.5652 70.0338C36.3186 69.2473 36.1047 68.4399 35.9339 67.6163C35.9298 67.6099 35.928 67.6023 35.9287 67.5947C35.8106 67.0221 35.7059 66.439 35.6316 65.8508C35.449 64.5843 35.3579 63.3062 35.359 62.0265C35.359 61.7295 35.3642 61.422 35.3754 61.1279C35.3858 60.6822 35.4125 60.2366 35.4556 59.8073C35.4987 59.378 35.5358 58.9405 35.5893 58.5127C35.5905 58.4803 35.5939 58.4481 35.5997 58.4162C35.6799 57.8176 35.7764 57.2345 35.8967 56.6515C36.0616 55.8156 36.2706 54.989 36.5229 54.1752C36.8563 53.0509 37.2691 51.9517 37.758 50.8857C38.2228 49.8595 38.7535 48.8644 39.3467 47.9067C41.1871 46.933 42.3636 46.425 42.3636 46.425C42.3636 46.425 73.7591 40.1935 74.2464 39.6588C74.7336 39.124 77.1081 39.4612 77.1081 39.4612C78.5784 40.4286 79.9521 41.5354 81.2101 42.7663C81.5072 43.05 81.7879 43.3494 82.0769 43.6494C82.264 43.8522 82.4482 44.0661 82.6324 44.2748C82.9429 44.6276 83.2481 44.9967 83.5422 45.3658C84.6207 46.7366 85.563 48.2092 86.3557 49.7627C86.6654 50.3614 86.9499 50.9764 87.2113 51.6025C87.2113 51.6077 87.2165 51.6129 87.2165 51.6181C89.6392 61.0959 86.6498 69.1351 86.6498 69.1351C87.2254 68.9382 87.8272 68.828 88.4353 68.8083Z" fill="url(#paint4_radial_402_249)"/>
<path fill-rule="evenodd" clip-rule="evenodd" d="M87.6652 62.024C87.6659 62.9671 87.6123 63.9094 87.5048 64.8463C87.3529 66.2656 87.0756 67.6687 86.6759 69.039C86.6691 69.07 86.6602 69.1006 86.6491 69.1304C85.1161 74.3938 81.9154 79.0171 77.5285 82.3047C73.1416 85.5924 67.8057 87.3666 62.3236 87.3604C61.8779 87.3604 61.4197 87.3493 60.9755 87.3225H60.9703C60.3071 87.2906 59.649 87.2267 59.0021 87.1465C54.8468 86.604 50.8935 85.0298 47.5026 82.5676C47.0057 82.2149 46.5237 81.8353 46.0587 81.4447C45.9302 81.3377 45.8017 81.2308 45.6792 81.1186C43.4703 79.1853 41.6071 76.8896 40.1697 74.3301C40.0145 74.0524 39.8652 73.7686 39.7152 73.4857C39.7152 73.4745 39.71 73.4693 39.7048 73.4589C39.5495 73.1537 39.4077 72.8492 39.2658 72.5387H39.2606C38.8173 71.5662 38.4384 70.5656 38.1265 69.5433C37.8895 68.7982 37.6912 68.0413 37.5323 67.2758C37.5282 67.2694 37.5263 67.2618 37.5271 67.2542C37.4149 66.7143 37.3184 66.1684 37.2434 65.6203C37.0713 64.4297 36.9855 63.2284 36.9864 62.0255C36.9864 61.7425 36.9923 61.4588 37.0027 61.1803C37.0139 60.7636 37.0406 60.3462 37.077 59.9399C37.1134 59.5337 37.1513 59.1229 37.2055 58.7256C37.2064 58.6951 37.2099 58.6648 37.2159 58.635C37.2902 58.0727 37.3815 57.5209 37.4944 56.9765C37.6484 56.191 37.8448 55.4145 38.0827 54.6503C38.3967 53.5938 38.7843 52.5606 39.2428 51.5583C39.7336 50.4769 40.3002 49.4315 40.9384 48.43C41.3767 47.7367 41.8517 47.0673 42.3615 46.4247C43.0688 45.5167 43.8381 44.6588 44.6639 43.8571C49.3868 39.2498 55.7256 36.6745 62.3236 36.6824C62.5909 36.6824 62.8583 36.6883 63.1205 36.6935C63.4042 36.7039 63.6872 36.7151 63.9709 36.7359C64.7575 36.7893 65.538 36.8755 66.3031 36.998C66.3134 36.998 66.3186 37.004 66.3298 37.004C66.9715 37.0998 67.6028 37.2268 68.223 37.3753C69.0251 37.5677 69.8117 37.792 70.5819 38.0594C71.1062 38.2362 71.6217 38.4308 72.1275 38.6484C72.507 38.8088 72.8761 38.9744 73.2416 39.1505C73.3062 39.1831 73.37 39.2099 73.4339 39.2418C75.8799 40.438 78.1176 42.0199 80.0612 43.9269C80.339 44.1943 80.6064 44.4728 80.8737 44.7558C81.0505 44.9489 81.2273 45.1464 81.3981 45.3447C81.6952 45.676 81.9759 46.0236 82.2537 46.3712C85.2525 50.1796 87.0891 54.7722 87.5434 59.5983C87.625 60.4043 87.6656 61.2139 87.6652 62.024Z" fill="url(#paint5_radial_402_249)"/>
<path style="mix-blend-mode:screen" fill-rule="evenodd" clip-rule="evenodd" d="M49.9525 51.9272C49.9525 51.9272 49.284 53.4215 49.8403 54.9382C50.3966 56.4548 51.9712 55.4484 53.8458 54.9382C55.7204 54.4279 57.6463 52.4575 58.8621 51.2387C60.078 50.0199 61.244 48.348 61.1423 46.7266C61.0405 45.1053 59.3293 44.0402 59.3293 44.0402C59.3293 44.0402 59.9517 43.2463 59.4288 46.4236C58.906 49.601 58.1944 50.7314 57.5148 51.2387C56.8353 51.7459 54.7668 52.9469 53.6378 53.6228C52.5089 54.2987 51.2493 54.9976 50.5021 54.8334C49.7549 54.6693 49.3605 52.9915 49.9525 51.9272Z" fill="url(#paint6_radial_402_249)"/>
<path style="mix-blend-mode:screen" fill-rule="evenodd" clip-rule="evenodd" d="M53.3867 50.8325C53.3867 50.8325 52.4271 51.6851 52.6804 52.3721C52.9337 53.0592 54.76 52.6195 55.9231 51.1422C57.0862 49.6649 56.1675 48.4684 56.1675 48.4684C56.1675 48.4684 55.7397 50.9335 54.6078 51.365C53.4759 51.7965 53.1045 51.6168 53.1045 51.6168C53.1045 51.6168 52.927 51.4229 53.3867 50.8325Z" fill="url(#paint7_radial_402_249)"/>
<path style="mix-blend-mode:screen" fill-rule="evenodd" clip-rule="evenodd" d="M50.4792 51.8997C50.4792 51.8997 51.4135 50.8406 52.4771 49.8491C53.5407 48.8575 55.3826 48.475 55.3826 48.475C55.3826 48.475 54.3079 47.9054 52.9317 48.7068C51.5554 49.5082 50.4792 51.8997 50.4792 51.8997Z" fill="url(#paint8_radial_402_249)"/>
<path style="mix-blend-mode:screen" fill-rule="evenodd" clip-rule="evenodd" d="M46.6634 51.9156C46.6634 51.9156 48.8291 49.5077 51.4643 48.4716C54.0995 47.4355 55.0108 47.1347 56.1769 46.1692C56.9622 45.5343 57.7911 44.9553 58.6575 44.4364C58.6575 44.4364 56.0929 44.5664 52.1736 47.0501C48.2543 49.5337 46.6522 51.1075 46.6634 51.9156Z" fill="url(#paint9_radial_402_249)"/>
<path style="mix-blend-mode:screen" fill-rule="evenodd" clip-rule="evenodd" d="M41.3788 51.4367C41.3788 51.4367 45.1296 47.6882 48.0685 46.2191C51.0075 44.75 52.9831 43.7867 55.6183 43.1279C58.2534 42.4691 62.3236 41.3202 62.3236 41.3202L63.0589 40.9488C63.0589 40.9488 54.6802 41.1181 49.1811 44.4329C43.682 47.7477 41.3788 51.4367 41.3788 51.4367Z" fill="url(#paint10_radial_402_249)"/>
<path style="mix-blend-mode:screen" fill-rule="evenodd" clip-rule="evenodd" d="M45.8763 55.7614C45.8763 55.7614 46.5009 60.9389 47.4011 61.1713C48.3013 61.4038 51.5306 61.38 56.3286 58.9261C61.1266 56.4721 62.1018 57.0396 64.7904 54.3056C67.479 51.5717 68.5686 48.4693 69.402 46.4254C70.2353 44.3814 70.4774 42.0485 70.219 41.3229C70.219 41.3229 71.1251 41.8636 71.1251 43.8905C71.1251 45.9173 70.5175 49.3227 69.656 51.2939C68.7944 53.2651 66.5648 56.3555 63.8791 57.8759C61.1934 59.3962 55.8228 62.3151 50.5532 62.2743C45.2836 62.2334 46.1162 61.8524 45.577 60.8015C45.0378 59.7505 45.8763 55.7614 45.8763 55.7614Z" fill="url(#paint11_radial_402_249)"/>
<g style="mix-blend-mode:multiply" opacity="0.5">
<path fill-rule="evenodd" clip-rule="evenodd" d="M37.6658 60.1789C37.6658 60.1789 38.6076 62.2659 39.1349 64.174C39.6622 66.082 39.5605 69.324 41.7396 69.8305C43.9188 70.3371 46.9587 71.7564 48.127 71.4014C49.2953 71.0464 53.5957 70.2754 55.9813 70.7433C58.3669 71.2112 62.72 70.9453 64.2403 70.1855C65.7607 69.4257 69.0331 67.4739 70.5891 66.879C72.1451 66.284 74.2938 64.5899 76.1454 62.7086C77.997 60.8273 77.9717 58.683 78.4278 57.6195C78.8838 56.5559 79.7959 52.2986 79.6949 50.3735C79.5938 48.4483 78.4278 44.8506 78.4278 44.8506L77.3441 43.7053C77.3441 43.7053 78.681 48.6504 78.0735 52.1471C77.466 55.6438 78.023 57.0617 75.5906 60.4061C73.1582 63.7506 69.7632 66.385 65.9634 67.6521C62.1637 68.9192 59.7246 68.7662 55.7785 69.1324C52.0939 69.4733 47.5098 69.2126 45.6864 68.738C44.0525 68.3117 41.8436 67.2147 40.1717 64.5453C38.4999 61.876 37.6658 60.1789 37.6658 60.1789Z" fill="#7D72B3"/>
</g>
<g style="mix-blend-mode:multiply" opacity="0.4">
<path fill-rule="evenodd" clip-rule="evenodd" d="M46.0428 54.7077C46.0428 54.7077 46.3911 60.3294 47.1071 60.8136C47.8231 61.2979 49.3353 61.4977 50.7554 61.0164C52.1755 60.5351 57.038 58.9368 57.8743 58.4317C58.7107 57.9267 63.8325 55.3665 64.8418 54.606C65.8512 53.8454 67.1977 51.1427 67.6538 50.5819C68.1098 50.0211 69.3509 46.6767 69.7059 45.4096C70.0609 44.1425 70.3142 42.6229 70.3142 42.6229C70.3142 42.6229 70.4152 41.9136 69.8069 41.6856C69.1986 41.4576 69.0991 41.6856 69.0991 41.6856C69.0991 41.6856 68.9713 42.5212 68.4388 44.9283C67.9063 47.3355 60.7375 55.5945 57.1145 57.7477C53.4916 59.9008 50.0461 59.9758 48.8042 59.8273C47.5624 59.6787 46.0176 55.6703 46.0428 54.7077Z" fill="#7D72B3"/>
</g>
<g style="mix-blend-mode:multiply" opacity="0.4">
<path fill-rule="evenodd" clip-rule="evenodd" d="M45.8759 55.7617C45.8759 55.7617 46.0245 52.2612 46.9291 51.0862C47.8337 49.9112 50.8655 47.4885 52.6599 46.5764C54.4543 45.6644 57.0657 44.3713 57.9748 44.1789C58.8839 43.9866 59.5249 44.1789 59.5249 44.1789C59.5249 44.1789 58.4309 43.5848 55.9227 44.2205C53.4145 44.8563 50.5751 47.1855 49.2092 47.9074C47.8434 48.6293 45.7133 50.3769 45.206 51.2637C44.6987 52.1506 45.8759 55.7617 45.8759 55.7617Z" fill="#7D72B3"/>
</g>
<g style="mix-blend-mode:multiply" opacity="0.4">
<path fill-rule="evenodd" clip-rule="evenodd" d="M39.7115 52.0689L47.4863 45.2567L52.3021 43.0783C52.3021 43.0783 57.0629 41.4607 59.2421 40.9519C61.4212 40.4431 66.3105 40.2916 66.3105 40.2916L68.8736 40.5701C68.8736 40.5701 64.4173 38.1377 57.8235 39.9113C51.2296 41.685 46.8527 43.899 44.9276 45.7179C43.0025 47.5369 40.0955 51.1792 39.7115 52.0689Z" fill="#7D72B3"/>
</g>
<path style="mix-blend-mode:screen" fill-rule="evenodd" clip-rule="evenodd" d="M39.494 52.3725C39.494 52.3725 35.317 57.4141 37.3439 60.5164C39.3708 63.6188 40.2672 68.0922 40.8547 69.132C41.4422 70.1718 48.1675 71.736 49.5638 71.4129C50.9602 71.0898 54.3106 70.2112 56.5016 71.0594C56.5016 71.0594 60.3823 70.7259 61.4971 70.7259C62.612 70.7259 64.6388 69.7797 65.112 69.5435C65.5851 69.3073 68.2195 68.4621 69.5683 67.9221C70.9171 67.3822 73.0813 65.694 73.96 65.0166C74.8386 64.3392 77.1351 61.6053 77.5741 60.7608C78.013 59.9163 79.3284 54.9839 79.6685 52.6533C80.0087 50.3226 79.0068 45.8292 78.2499 44.2754C77.4931 42.7216 75.1082 41.2689 75.1082 41.2689L75.2471 40.5662L77.1039 39.4581C77.1039 39.4581 80.3429 43.705 80.6467 47.3725C80.8249 49.5227 81.3226 54.1105 80.7566 56.0787C80.3028 57.6592 78.7513 62.3049 77.404 63.9649C76.0567 65.6249 71.9992 69.8606 69.8371 70.6821C67.6751 71.5035 61.2959 72.6079 57.5414 72.6874C54.7718 72.7439 48.6733 72.2485 45.6757 72.1467C42.6781 72.045 40.5346 70.1674 39.3425 69.2144C38.1505 68.2615 38.5567 65.6687 37.3372 63.621C36.1176 61.5733 35.4514 58.8498 35.753 57.3673C36.0545 55.8848 39.494 52.3725 39.494 52.3725Z" fill="url(#paint12_radial_402_249)"/>
<path fill-rule="evenodd" clip-rule="evenodd" d="M46.8287 71.5657C46.187 71.4172 45.6091 71.0629 44.9719 70.9025C44.6139 70.8171 44.2604 70.7636 43.9076 70.6618C43.5444 70.5578 43.1707 70.495 42.7935 70.4747C42.0552 70.4479 41.2902 70.2771 40.8201 69.651C40.4203 69.1062 40.1263 68.4912 39.9533 67.838C39.7023 66.9393 39.4616 66.0406 39.1831 65.1427C38.9292 64.3316 38.5696 63.5575 38.1136 62.8402C37.9316 62.5432 37.7764 62.252 37.5788 61.9683C37.3969 61.712 37.1451 61.4655 37.0062 61.1766L37.001 61.1714C36.6482 60.4227 36.5249 59.5938 36.5465 58.7805C36.5569 58.3423 36.6802 57.9301 36.776 57.5023C36.9045 56.9624 37.0441 56.4863 37.3219 55.9998C37.5789 55.5542 37.8299 55.1011 38.0869 54.6466C38.6588 53.6409 39.2581 52.6353 39.9697 51.7314C40.9001 50.5822 41.8918 49.4841 42.9406 48.4419C43.5399 47.8321 44.2188 47.2973 44.9036 46.7893C45.4814 46.3615 46.0176 45.8906 46.5888 45.4576C47.5729 44.709 48.6959 44.2217 49.7973 43.687C51.1298 43.0453 52.4615 42.4243 53.8467 41.9171C55.4901 41.3176 57.1761 40.842 58.8905 40.494C60.8423 40.0981 62.9012 40.0179 64.8917 40.0283C65.9827 40.0343 67.148 39.8946 68.1916 40.3017C68.7798 40.5312 69.4646 40.7614 69.9741 41.1142C70.0914 41.1944 70.1449 41.2107 70.2199 41.3177C70.2644 41.3867 70.2987 41.4617 70.3217 41.5405C70.4019 41.7277 70.4984 42.0381 70.4984 42.2364C70.4984 42.4555 70.4019 42.6479 70.4019 42.8781C70.4071 43.2042 70.3217 43.4983 70.3113 43.8192C70.2949 44.1905 70.2043 44.4772 70.1509 44.8352C70.0439 45.4985 69.9473 46.135 69.6904 46.7611C69.319 47.665 69.0702 48.6179 68.658 49.5092C68.5354 49.7825 68.3163 49.9904 68.193 50.2638C68.0757 50.5096 67.9702 50.7131 67.8291 50.9485C67.5669 51.3868 67.353 51.8398 67.0537 52.2587C66.4335 53.1143 65.8022 54.0286 64.9837 54.7097C63.9944 55.5334 62.9138 56.1914 61.7804 56.796C61.0421 57.1859 60.2719 57.5016 59.5233 57.8759C58.8548 58.2079 58.1864 58.5503 57.512 58.8652C55.7792 59.6733 53.9388 60.2719 52.1206 60.8394C51.5962 61.005 51.1045 61.1817 50.5609 61.256C50.0692 61.3258 49.4965 61.4863 49.0012 61.4788C48.4557 61.4533 47.9168 61.3487 47.4013 61.1684C46.5353 60.8795 46.4499 59.9384 46.3853 59.1571C46.3431 58.5741 46.2688 57.9939 46.1625 57.4191C46.0771 56.9534 46.0392 56.4937 45.9322 56.0228C45.821 55.5475 45.76 55.0618 45.7503 54.5738C45.7399 53.9529 45.9805 53.3706 46.1216 52.766C46.213 52.3753 46.2553 51.9742 46.4187 51.5999C46.649 51.054 47.0872 50.5839 47.5209 50.1932C47.9547 49.8025 48.4033 49.4067 48.8415 49.0048C49.1036 48.759 49.4141 48.577 49.6919 48.3527C50.1849 47.9732 50.7155 47.6451 51.2754 47.3738C51.7143 47.1436 52.0352 46.7797 52.4414 46.5123C52.8729 46.2269 53.3191 45.9646 53.7783 45.7265C54.169 45.5341 54.5953 45.4004 54.9979 45.24C55.3299 45.1115 55.6344 44.9184 55.9716 44.8062C56.2813 44.6993 56.6029 44.6674 56.9074 44.5389C57.1969 44.4133 57.4947 44.3078 57.7987 44.2232C58.1463 44.1378 58.5362 43.9937 58.8897 43.9826C59.5849 43.9722 59.9295 44.3198 60.1033 44.9934C60.3499 45.9136 60.0662 46.689 59.732 47.5395C59.4646 48.2242 59.1705 48.9031 58.9083 49.599C58.5607 50.5237 57.737 51.0102 57.0418 51.6415C56.2869 52.321 55.4319 52.8803 54.5069 53.3C54.2232 53.4285 53.9187 53.5035 53.6402 53.6209C53.3995 53.7278 53.1641 53.8615 52.9235 53.9922C52.7682 54.0776 52.6561 54.2009 52.512 54.2967C52.3835 54.3829 52.2335 54.4304 52.0998 54.5195C51.779 54.7397 51.4398 54.9318 51.086 55.0937C50.7436 55.2489 50.0647 55.3403 49.8397 54.9384C49.7223 54.7357 49.7379 54.452 49.6844 54.2225C49.6276 53.9588 49.6027 53.6892 49.6102 53.4196C49.6102 53.1366 49.6637 52.9279 49.706 52.6553C49.7483 52.3827 49.8664 52.1844 49.9518 51.9275C50.2088 51.2003 50.7116 50.6596 51.1558 50.061C51.4336 49.6815 51.6757 49.3071 52.001 48.9536C52.4823 48.4404 53.1611 48.1834 53.8407 48.0126C54.4505 47.864 55.3596 47.6806 55.9203 48.0341C56.3964 48.3312 56.0689 48.9751 55.9099 49.371C55.8245 49.5901 55.7332 49.8166 55.6582 50.0395C55.6047 50.2051 55.5839 50.3922 55.4873 50.5527C55.289 50.8847 54.8991 51.1149 54.605 51.3697C54.4713 51.4818 54.2574 51.6422 54.0962 51.6965C53.8934 51.7603 53.6744 51.7551 53.4708 51.8034C53.3691 51.8242 53.3156 51.952 53.1923 51.9044C53.0802 51.8673 53.0802 51.7388 53.1017 51.6215C53.1232 51.5041 53.1715 51.4075 53.1923 51.3058C53.1983 51.2843 53.1715 51.2471 53.1767 51.2204C53.2621 50.9047 53.6632 50.5089 53.8452 50.2415C54.1341 50.3588 53.9358 50.5304 53.8823 50.6581C53.8572 50.7643 53.8376 50.8716 53.8236 50.9797C53.8021 51.0704 53.6632 51.236 53.765 51.3325C53.8348 51.4016 54.0695 51.2791 54.1445 51.2523C54.7654 51.0332 55.1665 50.3536 55.3588 49.7387C55.4821 49.3376 55.4606 48.6424 55.0164 48.4656C54.6852 48.3371 54.2841 48.407 53.9358 48.401C52.6791 48.3802 51.9356 49.7223 51.2672 50.5891C50.8175 51.1824 50.4604 51.8405 50.2081 52.5409C50.0261 53.0222 49.9511 53.5198 49.8233 54.0063C49.7268 54.3651 49.6094 54.9162 50.1598 54.8411C50.4806 54.7929 50.8282 54.6183 51.1335 54.5203C51.3934 54.4354 51.6458 54.3291 51.8881 54.2024C52.284 53.9885 52.7281 53.9291 53.1396 53.7479C53.4612 53.603 53.7872 53.427 54.1051 53.2718C54.934 52.8707 55.7391 52.0522 56.3192 51.3459C56.7046 50.8698 57.255 50.5118 57.694 50.0788C58.1537 49.6235 58.4003 49.0568 58.7152 48.5005C59.0301 47.9442 59.1913 47.3865 59.3309 46.7626C59.4587 46.2063 59.7906 45.5742 59.6191 44.9971C59.4379 44.3985 58.6677 44.3874 58.17 44.4772C57.7578 44.5463 57.3033 44.6161 56.9134 44.7743C56.1855 45.0625 55.4688 45.3729 54.7468 45.6656C53.6075 46.1365 52.6605 46.9119 51.6178 47.5484C51.0882 47.8692 50.5163 48.1151 50.0239 48.5005C49.6607 48.7843 49.3131 49.1155 48.9648 49.426C48.7189 49.6488 48.5102 49.8909 48.2376 50.084C47.8796 50.3351 47.5209 50.6128 47.2535 50.9612C47.0307 51.2441 46.7826 51.5813 46.6594 51.9267C46.568 52.1993 46.6534 52.4563 46.6697 52.734C46.6913 53.1136 46.5843 53.4671 46.568 53.8414C46.5524 54.2373 46.568 54.6436 46.5732 55.0394C46.5732 55.8148 46.4558 56.5687 46.4722 57.3553C46.4826 57.8365 46.5895 58.3446 46.6861 58.8206C46.7604 59.2009 46.9156 59.527 46.9423 59.9176C46.9535 60.1635 46.9958 60.4999 47.2156 60.6604C47.3226 60.7413 47.4615 60.7621 47.587 60.8089C47.7125 60.8557 47.8017 60.8891 47.9086 60.9211C47.9673 60.9426 48.0312 60.9537 48.0958 60.9745C48.1433 61.0013 48.1812 61.0711 48.2295 61.0926C48.3572 61.1461 48.5503 61.1142 48.684 61.0874C48.9937 61.028 49.299 60.9537 49.6094 60.9003C50.3848 60.7666 51.1691 60.7822 51.9119 60.5044C52.7623 60.1835 53.554 59.723 54.394 59.3807C55.6507 58.8674 56.9988 58.4931 58.202 57.8462C58.7419 57.5491 59.3034 57.2788 59.8597 57.0292C61.181 56.435 62.5662 55.9537 63.7271 55.061C64.1727 54.7186 64.5077 54.3279 64.8879 53.9269C65.1018 53.6966 65.3336 53.4939 65.5237 53.2421C66.1046 52.4989 66.6219 51.708 67.0701 50.878C67.2572 50.5304 67.3671 50.1509 67.5617 49.8033C67.8588 49.2633 68.225 48.7872 68.5035 48.2309C68.782 47.6746 68.9365 47.1399 69.1185 46.562C69.2306 46.2092 69.3108 45.9203 69.3004 45.546C69.2893 44.7966 69.3695 44.1497 69.6718 43.4664C69.8374 43.095 70.0729 42.5358 69.9496 42.1131C69.885 41.9052 69.5856 41.851 69.4037 41.7923C68.9759 41.6482 68.5325 41.5412 68.1203 41.3593C67.7407 41.1885 67.4682 40.9879 67.0507 40.9137C66.898 40.8792 66.7416 40.863 66.5851 40.8654C66.184 40.8869 65.8364 41.1625 65.4353 41.1491C65.3016 41.1439 65.2125 41.1008 65.0714 41.0748C64.8634 41.0377 64.6384 41.0644 64.4349 41.0592C63.9751 41.0429 63.531 40.9575 63.066 40.9627C62.5201 40.9679 61.9854 41.0161 61.4402 41.0481C60.9322 41.0748 60.4182 41.0325 59.9102 41.0481C59.5842 41.0592 59.3807 41.2085 59.0932 41.337C58.8311 41.4551 58.5369 41.5026 58.2644 41.6044C58.0237 41.7009 57.7994 41.7863 57.5424 41.7967C57.1837 41.8027 56.8257 41.7492 56.4781 41.8235C56.0458 41.9346 55.6235 42.0814 55.2155 42.2624C54.0762 42.7489 52.9695 43.3587 51.7871 43.733C51.2152 43.9098 50.627 43.99 50.0707 44.2143C49.862 44.3005 49.68 44.4497 49.4928 44.573C49.1215 44.8241 48.7278 45.0543 48.3431 45.295C47.4815 45.8409 46.6631 46.4395 45.8453 47.0493C44.8798 47.766 43.9625 48.4827 43.1656 49.3918C41.7745 50.9916 40.3254 52.6063 39.1222 54.3554C38.5496 55.1791 37.9079 56.0674 37.5016 56.9869C37.4905 57.0084 37.4853 57.0247 37.4749 57.0455C37.2521 57.5751 37.1325 58.1314 37.2075 58.704C37.2067 58.7149 37.2085 58.7259 37.2127 58.736C37.2766 59.2069 37.4801 59.7632 37.6672 60.191C37.8544 60.6188 38.0096 61.0733 38.2503 61.4796C38.5125 61.9252 38.8756 62.2929 39.0673 62.7741C39.2968 63.3683 39.5055 64.0041 39.6822 64.6191C39.9078 65.3987 40.0915 66.1898 40.2326 66.9891C40.3291 67.4808 40.4094 67.9784 40.6396 68.4277C40.9657 69.059 41.6608 69.2937 42.2283 69.6629C42.4822 69.845 42.787 69.9425 43.0995 69.9414C43.6083 69.9681 44.0895 70.0899 44.576 70.2385C45.6158 70.5593 46.6512 70.7948 47.7422 70.7784C48.3892 70.7732 49.0049 70.5965 49.6414 70.5163C50.2356 70.442 50.8297 70.3826 51.4165 70.2868C51.952 70.2006 52.4756 70.0513 53.0215 70.0513C53.5619 70.0561 54.0994 70.131 54.6206 70.2741C55.5118 70.5207 56.3853 70.7198 57.3159 70.6811C57.8833 70.6648 58.4396 70.5326 59.0011 70.4992C59.5307 70.4665 60.0335 70.5475 60.5609 70.5846C61.4922 70.6433 62.385 70.413 63.2517 70.13C63.8459 69.9377 64.3376 69.654 64.8671 69.3383C65.295 69.0873 65.7064 69.0122 66.1773 68.889C67.1075 68.651 68.0041 68.2969 68.8459 67.835C69.937 67.2149 70.8356 66.3006 71.891 65.6373C72.4904 65.266 73.1641 65.0164 73.7478 64.6153C74.2305 64.2887 74.68 63.9156 75.0899 63.5013C75.566 63.02 76.0154 62.5172 76.4915 62.0359C76.8554 61.6645 76.9995 61.207 77.2134 60.7473C77.5342 60.0677 77.6471 59.3673 77.7645 58.629C77.8818 57.8908 78.2101 57.2594 78.5243 56.5858C78.9254 55.7242 79.267 54.9169 79.3532 53.9543C79.4222 53.2324 79.5188 52.5045 79.5188 51.7774C79.5188 51.3117 79.4386 50.8572 79.3799 50.3974C79.3212 49.9696 79.2351 49.5574 79.1445 49.1348C79.0271 48.6149 79.0427 48.0816 78.9469 47.5573C78.8607 47.1079 78.7241 46.6319 78.5986 46.1885C78.51 45.8673 78.3993 45.5526 78.2673 45.2467C78.0321 44.6976 77.7206 44.1845 77.3419 43.7226C77.1814 43.5355 76.9779 43.476 76.7967 43.3423C76.6571 43.2354 76.6252 43.1448 76.4647 43.0646C76.2419 42.9524 76.0191 42.8418 75.7963 42.717C75.4435 42.5135 75.0424 42.4548 74.6889 42.2624C74.3524 42.0805 74.0472 41.8398 73.7233 41.6363C73.3594 41.4068 72.9903 41.2516 72.6754 40.9515C72.3605 40.6515 72.1614 40.2727 71.8621 39.9734C71.5568 39.6629 71.1194 39.4594 70.771 39.192C70.1665 38.7219 69.4549 38.684 68.7761 38.3951C68.4285 38.2465 68.0965 38.2243 67.7363 38.1492C67.3241 38.0638 67.0463 37.8121 66.6073 37.7638C66.2167 37.7214 65.8319 37.7162 65.4524 37.6093C65.2317 37.5462 65.0061 37.5015 64.778 37.4756C64.3235 37.4325 63.8868 37.4964 63.4359 37.5447C63.0401 37.5878 62.639 37.5662 62.2431 37.5662C61.9111 37.5662 61.5635 37.5981 61.2323 37.5447C60.2905 37.4006 59.2581 37.4162 58.3067 37.4808C57.3976 37.5447 56.5093 37.6093 55.6485 37.9086C54.9154 38.1596 54.1935 38.3735 53.4768 38.6684C52.9844 38.866 52.5566 39.1386 52.0968 39.3955C50.9894 40.0157 49.9734 40.7755 48.9195 41.4811C47.743 42.2624 46.6356 43.1284 45.5029 43.9789C44.7647 44.5352 44.0175 45.0863 43.2881 45.6589C42.9732 45.9099 42.668 46.1721 42.3687 46.4395C43.076 45.5316 43.8453 44.6737 44.6711 43.8719C49.3898 39.261 55.7259 36.6804 62.3233 36.6824C62.5907 36.6824 62.8581 36.6883 63.1203 36.6935C63.404 36.7039 63.687 36.7151 63.9707 36.7359C64.7572 36.7893 65.5378 36.8755 66.3028 36.998C66.3132 36.998 66.3184 37.004 66.3296 37.004C67.2015 37.2387 68.0675 37.4905 68.9343 37.7526C69.6562 37.9717 70.3833 38.1693 71.0949 38.4159C71.5657 38.5763 72.0255 38.7872 72.48 38.9722C72.8922 39.1482 73.3468 39.2982 73.7323 39.5173C74.3576 39.8701 74.9407 40.341 75.5185 40.7688C75.9016 41.0645 76.266 41.3838 76.6096 41.7247C77.097 42.2 77.5308 42.7272 77.9034 43.297C78.7701 44.6399 79.4631 46.1587 79.7862 47.7207C80.0647 49.036 80.0268 50.4643 79.9733 51.8056C79.9331 52.5487 79.8338 53.2873 79.6762 54.0145C79.5158 54.7899 79.2432 55.5118 79.163 56.3169C79.1251 56.7076 79.1898 57.1087 79.1251 57.4941C79.0717 57.8098 78.9543 58.1143 78.8904 58.43C78.7648 59.0998 78.5486 59.7494 78.248 60.361C77.8313 61.2003 77.2639 61.8955 76.6601 62.6182C75.9805 63.4255 75.2533 64.2009 74.547 64.9949C73.8407 65.7888 72.9799 66.4335 72.0656 66.9794C71.3541 67.4072 70.6269 67.9204 69.8508 68.2198C69.1237 68.5087 68.3 68.9209 67.5135 69.0063C66.9148 69.065 66.4387 69.29 65.9537 69.6532C65.6567 69.8671 65.4398 70.156 65.1672 70.3863C64.9214 70.595 64.6324 70.6589 64.3383 70.7576C63.6372 70.9931 62.9532 70.9396 62.2201 70.9396C61.1803 70.9396 60.1501 71.0414 59.1125 71.1483C58.5928 71.2122 58.0687 71.2336 57.5454 71.2122C57.0745 71.1855 56.6096 71.0636 56.1439 71.0035C55.624 70.9396 55.1041 70.9292 54.5931 70.8483C54.2169 70.7801 53.8322 70.773 53.4538 70.8275C53.1225 70.8646 52.7905 70.8275 52.4593 70.8542C52.1169 70.8861 51.7797 70.9612 51.4373 71.0087C49.8776 71.2233 48.4174 71.9401 46.8287 71.5657Z" fill="#00C4FF"/>
<path style="mix-blend-mode:screen" fill-rule="evenodd" clip-rule="evenodd" d="M45.572 83.1581C45.572 83.1581 51.5034 84.1979 54.2002 84.1236C58.2762 84.0055 62.9739 84.5121 66.6222 84.6138C70.2704 84.7156 76.6489 81.7239 77.8127 81.1758C78.9766 80.6277 81.7915 79.0219 84.2477 76.2976C86.7038 73.5733 87.6731 69.1326 87.6731 69.1326H86.6489C86.6489 69.1326 86.2597 71.054 84.7795 73.2101C83.8882 74.5039 82.5855 75.6373 80.8022 77.1785C78.2368 79.3955 74.8968 81.1023 71.5293 81.9415C67.047 83.0556 63.0623 82.7496 60.3142 83.1596C56.3355 83.7538 47.5023 82.347 47.5023 82.347L45.572 83.1581Z" fill="url(#paint13_radial_402_249)"/>
<path fill-rule="evenodd" clip-rule="evenodd" d="M44.0059 80.2195C44.0059 80.2195 44.9521 82.6801 45.5723 83.1577C45.5723 83.1577 46.8743 83.2371 47.5034 82.5687L45.6792 81.1196L44.0059 80.2195Z" fill="url(#paint14_radial_402_249)"/>
<path fill-rule="evenodd" clip-rule="evenodd" d="M87.7493 64.5446C87.7493 64.5446 88.3836 67.3246 88.4356 68.8048C88.4356 68.8048 87.4456 69.4294 86.6531 69.1316C86.6494 69.1301 87.5837 65.7314 87.7493 64.5446Z" fill="url(#paint15_radial_402_249)"/>
<path fill-rule="evenodd" clip-rule="evenodd" d="M70.5817 38.063C70.5817 38.063 75.8692 38.5934 77.1073 39.4594C77.1073 39.4594 76.2323 40.439 75.2505 40.5675C75.2468 40.5675 70.9613 38.1893 70.5817 38.063Z" fill="#FF61C7"/>
<path fill-rule="evenodd" clip-rule="evenodd" d="M39.3465 47.9039L41.5145 47.5623L42.3634 46.4222C42.3634 46.4222 40.8081 47.1062 39.3465 47.9039Z" fill="#FF61C7"/>
<g style="mix-blend-mode:multiply" opacity="0.5">
<path fill-rule="evenodd" clip-rule="evenodd" d="M41.106 78.6576C41.106 78.6576 51.3622 81.6352 59.3687 81.7882C67.3753 81.9412 70.3825 80.1542 73.8444 78.8173C77.3062 77.4804 82.9895 74.4093 84.7037 72.1425C86.4179 69.8757 87.7488 64.543 87.7488 64.543C87.7488 64.543 86.103 72.5473 84.6792 73.9621C83.2554 75.377 76.8992 79.661 75.7843 80.2181C74.6695 80.7751 71.6407 83.0753 66.1624 82.4351C66.1624 82.4351 62.4793 82.955 61.1468 82.8533C59.8144 82.7515 57.7452 84.0951 53.9424 82.8659C53.9424 82.8659 48.6543 82.6 47.4978 82.346C46.3414 82.092 41.106 78.6576 41.106 78.6576Z" fill="#54469B"/>
</g>
<path fill-rule="evenodd" clip-rule="evenodd" d="M43.5972 67.8944C43.5972 67.8944 52.0983 69.3672 58.257 68.7389C64.4156 68.1106 67.746 66.5716 69.5025 65.4234C71.259 64.2751 74.7015 60.5957 75.9887 58.9238C77.2758 57.252 77.9257 53.066 77.9257 53.066C77.9257 53.066 78.1574 57.151 77.1087 58.9238C76.06 60.6967 72.4444 64.0612 70.9701 65.0394C69.4958 66.0176 65.2697 68.3378 63.0631 68.7389C60.8565 69.14 57.2142 70.2555 54.5768 69.7713C51.9394 69.287 45.5379 69.3695 43.5972 67.8944Z" fill="#B04FE2"/>
<path fill-rule="evenodd" clip-rule="evenodd" d="M55.3832 81.5027C55.3832 81.5027 64.2334 80.8937 67.2734 80.2178C70.3133 79.5419 74.3114 77.8976 77.1077 76.8756C79.9041 75.8536 82.0149 73.8208 83.556 72.6933C85.0972 71.5659 87.0721 66.8823 87.0721 66.8823C87.0721 66.8823 85.8095 71.5258 83.8784 73.0409C81.9473 74.5561 76.9889 77.3331 71.3925 79.816C65.1693 82.5737 60.3319 81.7879 55.3832 81.5027Z" fill="#8B40E0"/>
<path fill-rule="evenodd" clip-rule="evenodd" d="M86.2218 70.3909C86.3607 69.9682 86.51 69.5508 86.6497 69.1342C86.1613 70.8068 85.5017 72.4246 84.6814 73.9619L84.6651 73.9774C84.4297 74.2077 84.1408 74.3897 83.9224 74.6407C83.704 74.8917 83.4998 75.1435 83.2591 75.379C82.1042 76.5235 80.7829 77.5076 79.4185 78.3952C78.0178 79.3102 76.6162 80.1777 75.081 80.8461C73.909 81.3667 72.6963 81.7905 71.4551 82.1132C70.4546 82.3702 69.3851 82.4846 68.3527 82.5306C67.8284 82.5574 67.3129 82.6428 66.793 82.691C66.1461 82.7609 65.4829 82.7497 64.8464 82.8626C63.7384 83.0699 62.6183 83.2056 61.493 83.2689C60.5356 83.3224 59.5834 83.456 58.6261 83.456C57.3961 83.4508 56.1751 83.2577 54.9466 83.2637C53.7538 83.2741 52.5499 83.2206 51.363 83.1151C50.6515 83.0453 49.9563 82.9116 49.2552 82.8314C48.661 82.7623 48.0891 82.6339 47.5009 82.5692C47.004 82.2164 46.522 81.8369 46.057 81.4462C45.9285 81.3393 45.8 81.2323 45.6775 81.1202C46.3511 81.3341 47.0196 81.5658 47.6992 81.7782C48.6506 82.0753 49.7209 82.2543 50.7154 82.3769C51.5324 82.4786 52.5075 82.5536 53.3097 82.3501C54.1438 82.1414 54.7647 82.4088 55.5237 82.7215C55.8765 82.87 56.2353 82.9354 56.6044 83.0424C57.1243 83.1909 57.5083 83.1604 58.0378 83.0906C58.5028 83.032 58.99 82.9517 59.455 82.85C59.8508 82.7646 60.2303 82.6041 60.6314 82.5529C61.3273 82.4667 62.0649 82.3657 62.7608 82.4883C63.5629 82.6272 64.3599 82.7111 65.1672 82.5796C65.9835 82.4384 66.8099 82.3638 67.6382 82.3568C67.9073 82.3571 68.1758 82.3819 68.4404 82.4311C68.7508 82.4846 69.0398 82.3992 69.3443 82.3672C69.8809 82.3184 70.4114 82.2162 70.9277 82.062C71.4194 81.9067 71.8933 81.6906 72.3716 81.5057C73.3134 81.1529 74.1638 80.8053 74.9979 80.2378C75.699 79.7677 76.4744 79.4357 77.1859 78.9812C77.8648 78.5429 78.4693 77.9918 79.1645 77.5744C79.8976 77.1288 80.566 76.5851 81.2664 76.089C81.7121 75.7733 82.1064 75.399 82.5498 75.0782C82.9353 74.8004 83.3579 74.5813 83.7159 74.2656C84.3309 73.7413 84.9043 73.1746 85.3046 72.463C85.6811 71.8059 85.9885 71.1114 86.2218 70.3909Z" fill="#00C4FF"/>
<path fill-rule="evenodd" clip-rule="evenodd" d="M59.0674 56.3056C59.0674 56.3056 65.1823 51.3004 67.7506 46.4222C67.7506 46.4222 60.6249 53.7424 59.0674 56.3056Z" fill="#FF77F4"/>
<path fill-rule="evenodd" clip-rule="evenodd" d="M52.6378 62.2723C52.6378 62.2723 56.5 62.2968 60.7721 60.5158C65.0443 58.7347 67.1863 55.0597 67.1863 55.0597C67.1863 55.0597 64.2963 57.8219 61.1487 59.3675C58.001 60.9131 55.6191 61.2904 52.6378 62.2723Z" fill="#EA9CF4"/>
<path fill-rule="evenodd" clip-rule="evenodd" d="M67.9056 54.1779C67.9056 54.1779 68.3379 53.075 69.149 51.1417C69.96 49.2084 70.598 48.1708 70.598 48.1708C70.598 48.1708 70.3366 51.1224 67.9056 54.1779Z" fill="#EA9CF4"/>
<path fill-rule="evenodd" clip-rule="evenodd" d="M51.3152 72.4522C51.3152 72.4522 56.6829 73.7565 63.6756 72.4522C70.6683 71.148 70.9721 70.7225 72.8972 69.2125C74.8223 67.7026 76.1912 65.7685 76.951 65.0384C77.7108 64.3083 78.6674 61.7704 78.6674 61.7704C78.6674 61.7704 76.6903 65.3251 73.8561 67.704C71.0218 70.083 68.6919 71.249 63.9289 71.9583C59.1658 72.6676 53.6912 72.5934 51.3152 72.4522Z" fill="#D374F4"/>
<path fill-rule="evenodd" clip-rule="evenodd" d="M56.0253 84.1063C56.0253 84.1063 60.8886 84.526 62.865 84.9315C64.8414 85.337 68.6412 85.3222 70.8203 84.5185C72.9994 83.7149 77.3154 81.4043 77.3154 81.4043C77.3154 81.4043 73.2876 83.6644 68.4881 84.1717C63.6887 84.679 60.772 83.8672 56.0253 84.1063Z" fill="#D374F4"/>
<path fill-rule="evenodd" clip-rule="evenodd" d="M78.7288 80.6953C78.7288 80.6953 81.8155 78.6223 83.3336 77.2461C83.3314 77.2461 81.7145 79.4586 78.7288 80.6953Z" fill="#D374F4"/>
<path fill-rule="evenodd" clip-rule="evenodd" d="M55.2681 54.3018C55.2681 54.3018 58.7916 51.6496 59.9101 49.7333C61.0286 47.8171 61.14 46.7246 61.14 46.7246C61.14 46.7246 61.6384 48.5888 59.5231 50.9581C57.4079 53.3274 55.2681 54.3018 55.2681 54.3018Z" fill="#F2C4F8"/>
<path style="mix-blend-mode:screen" opacity="0.5" fill-rule="evenodd" clip-rule="evenodd" d="M47.0393 52.4518C46.7533 53.7449 46.4644 55.0595 46.9041 56.3065C47.3438 57.5536 48.0182 58.3631 48.6606 58.4307C49.3031 58.4983 50.2478 56.9787 50.2144 56.539C50.181 56.0993 49.1672 54.9518 49.1003 53.8028C49.0335 52.6538 50.2842 50.9656 50.2144 50.3239C50.1446 49.6822 47.5087 50.3247 47.0393 52.4518Z" fill="url(#paint16_linear_402_249)"/>
<path style="mix-blend-mode:screen" opacity="0.5" fill-rule="evenodd" clip-rule="evenodd" d="M47.6137 47.1629C47.1904 46.7084 44.3458 49.3747 42.3634 51.4365C40.3811 53.4983 38.427 56.2011 38.2562 57.9234C38.0854 59.6458 39.5062 62.249 42.0738 64.5455C44.6414 66.842 51.3244 68.9357 52.9316 67.9903C54.5389 67.0448 53.9469 64.1051 52.6345 63.3958C51.3221 62.6865 47.0693 64.1162 45.0766 62.0218C43.0839 59.9273 43.9833 57.1131 44.2321 54.7483C44.5359 51.8517 45.448 49.4111 46.2924 48.6677C46.7973 48.2266 47.2416 47.7206 47.6137 47.1629Z" fill="url(#paint17_linear_402_249)"/>
<path fill-rule="evenodd" clip-rule="evenodd" d="M38.8815 56.0798C38.3312 57.9478 38.2658 59.942 39.4156 61.4787C40.5653 63.0154 41.432 61.8649 41.8368 58.1208C42.2416 54.3768 42.0106 51.8159 42.0106 51.8159C42.0106 51.8159 39.5738 53.7284 38.8815 56.0798Z" fill="#FFFFF8"/>
<path fill-rule="evenodd" clip-rule="evenodd" d="M40.7588 62.571C39.9826 63.2922 41.8372 64.7249 42.1395 64.0327C42.4418 63.3405 41.2638 62.1031 40.7588 62.571Z" fill="#F5CEFA"/>
<path fill-rule="evenodd" clip-rule="evenodd" d="M38.7007 68.2232C38.6264 69.4116 39.3045 70.7581 41.3797 71.535C43.4549 72.3119 45.0799 72.1002 45.0799 72.1002C45.0799 72.1002 42.6512 71.6182 41.3151 70.6831C39.9789 69.748 38.7007 68.2232 38.7007 68.2232Z" fill="#F5CEFA"/>
<path fill-rule="evenodd" clip-rule="evenodd" d="M47.2098 52.6347C46.525 51.7286 47.4163 50.4875 48.6722 49.7247C49.9282 48.9619 50.0834 49.1922 49.8108 49.8591C49.5383 50.5261 49.1305 51.9321 48.543 52.6347C47.9555 53.3373 47.6176 53.1717 47.2098 52.6347Z" fill="#FFFFF8"/>
<path fill-rule="evenodd" clip-rule="evenodd" d="M51.7249 51.0575C51.4649 50.6119 51.99 49.3159 52.7068 49.4347C53.4235 49.5535 53.249 49.8395 52.9132 50.3133C52.6622 50.6676 51.9707 51.4772 51.7249 51.0575Z" fill="#FFFFF8"/>
<path fill-rule="evenodd" clip-rule="evenodd" d="M56.9145 53.2812C56.6702 52.7769 58.6696 51.2365 58.9399 51.3976C59.2103 51.5588 59.0357 52.3743 58.5686 52.6796C58.1014 52.9848 57 53.4609 56.9145 53.2812Z" fill="#FFFFF8"/>
<defs>
<radialGradient id="paint0_radial_402_249" cx="0" cy="0" r="1" gradientUnits="userSpaceOnUse" gradientTransform="translate(62.7775 63.089) scale(33.5598 33.5598)">
<stop stop-color="#E213FF"/>
<stop offset="1"/>
</radialGradient>
<radialGradient id="paint1_radial_402_249" cx="0" cy="0" r="1" gradientUnits="userSpaceOnUse" gradientTransform="translate(64.9998 64.9995) scale(28.2843 28.2843)">
<stop stop-color="#E213FF"/>
<stop offset="1"/>
</radialGradient>
<radialGradient id="paint2_radial_402_249" cx="0" cy="0" r="1" gradientUnits="userSpaceOnUse" gradientTransform="translate(62.477 62.5988) scale(26.9912 26.9912)">
<stop stop-color="#E213FF"/>
<stop offset="1"/>
</radialGradient>
<radialGradient id="paint3_radial_402_249" cx="0" cy="0" r="1" gradientUnits="userSpaceOnUse" gradientTransform="translate(45.4585 52.5702) scale(41.4074 41.4074)">
<stop offset="0.01" stop-color="#FF9AFF"/>
<stop offset="0.09" stop-color="#FB94FF"/>
<stop offset="0.21" stop-color="#F183FF"/>
<stop offset="0.34" stop-color="#E068FF"/>
<stop offset="0.49" stop-color="#C841FF"/>
<stop offset="0.64" stop-color="#A910FF"/>
<stop offset="0.68" stop-color="#9F00FF"/>
<stop offset="0.74" stop-color="#9900F8"/>
<stop offset="0.83" stop-color="#8700E5"/>
<stop offset="0.93" stop-color="#6A00C6"/>
<stop offset="1" stop-color="#5200AB"/>
</radialGradient>
<radialGradient id="paint4_radial_402_249" cx="0" cy="0" r="1" gradientUnits="userSpaceOnUse" gradientTransform="translate(45.4585 52.5702) scale(41.4074 41.4074)">
<stop offset="0.01" stop-color="#FF9AFF"/>
<stop offset="0.09" stop-color="#FB94FF"/>
<stop offset="0.21" stop-color="#F183FF"/>
<stop offset="0.34" stop-color="#E068FF"/>
<stop offset="0.49" stop-color="#C841FF"/>
<stop offset="0.64" stop-color="#A910FF"/>
<stop offset="0.68" stop-color="#9F00FF"/>
<stop offset="0.74" stop-color="#9900F8"/>
<stop offset="0.83" stop-color="#8700E5"/>
<stop offset="0.93" stop-color="#6A00C6"/>
<stop offset="1" stop-color="#5200AB"/>
</radialGradient>
<radialGradient id="paint5_radial_402_249" cx="0" cy="0" r="1" gradientUnits="userSpaceOnUse" gradientTransform="translate(46.6328 50.1717) scale(40.7033 40.7033)">
<stop offset="0.01" stop-color="#FF9AFF"/>
<stop offset="0.09" stop-color="#FB94FF"/>
<stop offset="0.21" stop-color="#F183FF"/>
<stop offset="0.34" stop-color="#E068FF"/>
<stop offset="0.49" stop-color="#C841FF"/>
<stop offset="0.64" stop-color="#A910FF"/>
<stop offset="0.68" stop-color="#9F00FF"/>
<stop offset="0.74" stop-color="#9900F8"/>
<stop offset="0.83" stop-color="#8700E5"/>
<stop offset="0.93" stop-color="#6A00C6"/>
<stop offset="1" stop-color="#5200AB"/>
</radialGradient>
<radialGradient id="paint6_radial_402_249" cx="0" cy="0" r="1" gradientUnits="userSpaceOnUse" gradientTransform="translate(51.986 45.8681) scale(9.10129 9.1013)">
<stop stop-color="white"/>
<stop offset="1" stop-color="#623964"/>
</radialGradient>
<radialGradient id="paint7_radial_402_249" cx="0" cy="0" r="1" gradientUnits="userSpaceOnUse" gradientTransform="translate(53.4335 49.1569) scale(3.16621 3.16622)">
<stop stop-color="white"/>
<stop offset="1" stop-color="#623964"/>
</radialGradient>
<radialGradient id="paint8_radial_402_249" cx="0" cy="0" r="1" gradientUnits="userSpaceOnUse" gradientTransform="translate(51.4863 48.8635) scale(3.3363)">
<stop stop-color="white"/>
<stop offset="1" stop-color="#623964"/>
</radialGradient>
<radialGradient id="paint9_radial_402_249" cx="0" cy="0" r="1" gradientUnits="userSpaceOnUse" gradientTransform="translate(49.1262 45.65) scale(7.70721)">
<stop stop-color="white"/>
<stop offset="1" stop-color="#623964"/>
</radialGradient>
<radialGradient id="paint10_radial_402_249" cx="0" cy="0" r="1" gradientUnits="userSpaceOnUse" gradientTransform="translate(45.8322 42.6548) scale(13.0667 13.0667)">
<stop stop-color="white"/>
<stop offset="1" stop-color="#623964"/>
</radialGradient>
<radialGradient id="paint11_radial_402_249" cx="0" cy="0" r="1" gradientUnits="userSpaceOnUse" gradientTransform="translate(50.6757 44.7238) scale(18.207)">
<stop stop-color="white"/>
<stop offset="1" stop-color="#623964"/>
</radialGradient>
<radialGradient id="paint12_radial_402_249" cx="0" cy="0" r="1" gradientUnits="userSpaceOnUse" gradientTransform="translate(44.9983 44.8592) scale(30.7598)">
<stop stop-color="white"/>
<stop offset="1" stop-color="#623964"/>
</radialGradient>
<radialGradient id="paint13_radial_402_249" cx="0" cy="0" r="1" gradientUnits="userSpaceOnUse" gradientTransform="translate(54.218 71.6489) scale(24.2431 24.2431)">
<stop stop-color="#FFFF4A"/>
<stop offset="1" stop-color="#360038"/>
</radialGradient>
<radialGradient id="paint14_radial_402_249" cx="0" cy="0" r="1" gradientUnits="userSpaceOnUse" gradientTransform="translate(44.6714 81.0023) scale(2.6166 2.6166)">
<stop stop-color="#6D00C2"/>
<stop offset="0.4" stop-color="#6600BC"/>
<stop offset="0.98" stop-color="#5300AC"/>
<stop offset="1" stop-color="#5200AB"/>
</radialGradient>
<radialGradient id="paint15_radial_402_249" cx="0" cy="0" r="1" gradientUnits="userSpaceOnUse" gradientTransform="translate(86.9888 65.7864) scale(2.73321)">
<stop stop-color="#1F0081"/>
<stop offset="0.73" stop-color="#260087"/>
<stop offset="1" stop-color="#2A008B"/>
</radialGradient>
<linearGradient id="paint16_linear_402_249" x1="46.6783" y1="54.2596" x2="50.2181" y2="54.2596" gradientUnits="userSpaceOnUse">
<stop stop-color="#BDFFE8"/>
<stop offset="0.2" stop-color="#8BBBAA"/>
<stop offset="0.42" stop-color="#5A796E"/>
<stop offset="0.61" stop-color="#33453F"/>
<stop offset="0.78" stop-color="#171F1D"/>
<stop offset="0.91" stop-color="#060808"/>
<stop offset="1"/>
</linearGradient>
<linearGradient id="paint17_linear_402_249" x1="38.2428" y1="57.6672" x2="53.9031" y2="57.6672" gradientUnits="userSpaceOnUse">
<stop stop-color="#BDFFE8"/>
<stop offset="0.2" stop-color="#8BBBAA"/>
<stop offset="0.42" stop-color="#5A796E"/>
<stop offset="0.61" stop-color="#33453F"/>
<stop offset="0.78" stop-color="#171F1D"/>
<stop offset="0.91" stop-color="#060808"/>
<stop offset="1"/>
</linearGradient>
</defs>
</svg>
