<svg width="130" height="130" viewBox="0 0 130 130" fill="none" xmlns="http://www.w3.org/2000/svg">
<g clip-path="url(#clip0_402_556)">
<path style="mix-blend-mode:screen" d="M65 132C100.899 132 130 102.898 130 67C130 31.1015 100.899 2 65 2C29.1015 2 0 31.1015 0 67C0 102.898 29.1015 132 65 132Z" fill="url(#paint0_radial_402_556)"/>
<path style="mix-blend-mode:screen" d="M65.0012 118.051C93.196 118.051 116.052 95.195 116.052 67.0002C116.052 38.8055 93.196 15.9491 65.0012 15.9491C36.8065 15.9491 13.9501 38.8055 13.9501 67.0002C13.9501 95.195 36.8065 118.051 65.0012 118.051Z" fill="url(#paint1_radial_402_556)"/>
<path style="mix-blend-mode:screen" d="M65.0008 115.717C91.9061 115.717 113.717 93.9056 113.717 67.0003C113.717 40.095 91.9061 18.284 65.0008 18.284C38.0955 18.284 16.2844 40.095 16.2844 67.0003C16.2844 93.9056 38.0955 115.717 65.0008 115.717Z" fill="url(#paint2_radial_402_556)"/>
<path fill-rule="evenodd" clip-rule="evenodd" d="M108.575 62.6615C108.58 68.461 107.44 74.2044 105.223 79.5633C103.005 84.9221 99.753 89.7911 95.652 93.892C91.5511 97.9928 86.6819 101.245 81.323 103.462C75.9642 105.68 70.2207 106.819 64.4212 106.815C62.485 106.814 60.5509 106.689 58.6309 106.439C49.5798 105.245 41.1217 101.274 34.4213 95.073C27.721 88.8719 23.1082 80.7459 21.2182 71.8141C21.2111 71.8025 21.2084 71.7887 21.2104 71.7753C20.5842 68.7778 20.2684 65.7237 20.2682 62.6615C20.268 56.8632 21.41 51.1217 23.6288 45.7647C25.8477 40.4077 29.1 35.5403 33.2 31.4402C37.3 27.3402 42.1674 24.088 47.5244 21.8691C52.8814 19.6503 58.6229 18.5083 64.4212 18.5085C65.3867 18.5085 66.3366 18.5383 67.2866 18.6004C72.1784 18.9082 76.9836 20.037 81.5008 21.9394C82.2773 22.2604 83.0331 22.606 83.7837 22.9748C91.2158 26.6076 97.4794 32.2531 101.862 39.2691C106.245 46.2852 108.571 54.3904 108.575 62.6628V62.6615Z" fill="url(#paint3_radial_402_556)"/>
<path style="mix-blend-mode:screen" fill-rule="evenodd" clip-rule="evenodd" d="M38.2382 97.1456C33.6468 93.3022 29.8821 88.5681 27.1715 83.229C25.4417 79.8185 24.1668 76.1957 23.3795 72.4535C23.3724 72.4419 23.3697 72.4281 23.3717 72.4147C22.7466 69.417 22.4313 66.363 22.4308 63.3009C22.4308 57.5021 23.573 51.7602 25.7922 46.4029C28.0115 41.0456 31.2642 36.1779 35.3647 32.0777C39.4652 27.9776 44.3332 24.7253 49.6907 22.5065C55.0482 20.2878 60.7902 19.1461 66.589 19.1466C67.5545 19.1466 68.5031 19.1777 69.4531 19.2385C72.3953 19.4286 75.3111 19.9133 78.1566 20.6854C74.6358 19.5346 70.9834 18.8345 67.2866 18.6018C66.3366 18.5396 65.3867 18.5099 64.4212 18.5099C58.6222 18.5071 52.8795 19.6473 47.5214 21.8653C42.1633 24.0832 37.2948 27.3354 33.1942 31.4359C29.0937 35.5364 25.8416 40.4049 23.6236 45.763C21.4057 51.1211 20.2655 56.8638 20.2682 62.6629C20.2684 65.7251 20.5842 68.7791 21.2104 71.7766C21.2084 71.7901 21.2111 71.8038 21.2182 71.8154C22.0045 75.5578 23.279 79.1806 25.0089 82.591C27.8124 88.1124 31.7419 92.9849 36.5441 96.8943C41.3463 100.804 46.9146 103.663 52.8899 105.289C47.5298 103.537 42.5559 100.773 38.2382 97.1456Z" fill="url(#paint4_radial_402_556)"/>
<path fill-rule="evenodd" clip-rule="evenodd" d="M103.185 83.8078L95.9375 93.5751C89.7124 106.819 75.5927 105.383 75.5927 105.383L73.7471 105.821C58.8353 116.204 46.0383 103.333 46.0383 103.333L42.7587 101.133C35.0505 101.758 33.0522 93.724 33.0522 93.724L28.1408 87.825L28.0475 87.7318C5.01075 66.6493 23.2008 46.826 23.2008 46.826L24.7008 43.3588C25.96 32.8758 35.783 29.0618 35.783 29.0618C37.8887 25.0925 40.8304 23.5912 42.9218 23.0321C44.4684 22.6128 45.5684 22.7059 45.5684 22.7059C56.7801 12.1466 68.3374 13.9364 76.4365 17.6366C76.4456 17.6366 76.4546 17.6366 76.4546 17.6456C82.9878 20.6365 87.2573 24.8686 87.2573 24.8686C104.667 23.3958 102.513 40.3213 102.513 40.3213C107.64 48.4101 108.467 59.4923 108.467 59.4923C116.205 73.4063 103.185 83.8078 103.185 83.8078Z" fill="url(#paint5_radial_402_556)"/>
<path style="mix-blend-mode:screen" d="M71.6125 68.5333C77.1537 64.6821 79.1486 57.9673 76.0684 53.5354C72.9881 49.1034 65.9991 48.6327 60.4578 52.4839C54.9166 56.3352 52.9216 63.05 56.0019 67.4819C59.0821 71.9139 66.0712 72.3846 71.6125 68.5333Z" fill="url(#paint6_radial_402_556)"/>
<path style="mix-blend-mode:screen" fill-rule="evenodd" clip-rule="evenodd" d="M96.9493 42.3037C98.945 45.1756 97.652 49.528 94.0619 52.0232C90.4718 54.5184 85.9408 54.213 83.9452 51.3412C81.9495 48.4693 83.2424 44.1169 86.8325 41.6217C90.4227 39.1265 94.9536 39.4371 96.9493 42.3037Z" fill="url(#paint7_radial_402_556)"/>
<path style="mix-blend-mode:screen" fill-rule="evenodd" clip-rule="evenodd" d="M99.0327 31.6139C98.1824 33.7609 95.317 34.6397 92.6316 33.5772C89.9461 32.5146 88.4603 29.9107 89.3106 27.7636C90.1609 25.6165 93.0276 24.7378 95.7118 25.8003C98.3959 26.8628 99.883 29.4732 99.0327 31.6139Z" fill="url(#paint8_radial_402_556)"/>
<path style="mix-blend-mode:screen" d="M109.548 67.8117C110.822 64.5953 109.769 61.1619 107.197 60.1429C104.624 59.1239 101.506 60.9052 100.232 64.1215C98.958 67.3378 100.011 70.7712 102.583 71.7902C105.155 72.8092 108.273 71.028 109.548 67.8117Z" fill="url(#paint9_radial_402_556)"/>
<path style="mix-blend-mode:screen" fill-rule="evenodd" clip-rule="evenodd" d="M59.2495 22.9291C61.5518 26.2423 60.0609 31.2625 55.9182 34.1421C51.7754 37.0217 46.5495 36.6684 44.2471 33.3552C41.9447 30.042 43.4356 25.0218 47.5783 22.1422C51.7211 19.2626 56.9471 19.6147 59.2495 22.9291Z" fill="url(#paint10_radial_402_556)"/>
<path style="mix-blend-mode:screen" fill-rule="evenodd" clip-rule="evenodd" d="M52.1729 50.8591C54.4753 54.1723 52.9844 59.1925 48.8417 62.0721C44.6989 64.9517 39.4729 64.5997 37.1705 61.2852C34.8681 57.9708 36.3591 52.9518 40.5018 50.0723C44.6446 47.1927 49.8705 47.546 52.1729 50.8591Z" fill="url(#paint11_radial_402_556)"/>
<path style="mix-blend-mode:screen" fill-rule="evenodd" clip-rule="evenodd" d="M80.5511 82.8291C82.8548 86.1422 81.3626 91.1624 77.2198 94.042C73.0771 96.9216 67.8511 96.5683 65.5487 93.2552C63.2463 89.942 64.7373 84.9205 68.88 82.0422C73.0228 79.1639 78.2487 79.5146 80.5511 82.8291Z" fill="url(#paint12_radial_402_556)"/>
<path style="mix-blend-mode:screen" d="M43.2095 84.4722C46.2454 81.8135 46.0122 76.5815 42.6886 72.7863C39.3649 68.9911 34.2095 68.0697 31.1735 70.7285C28.1375 73.3872 28.3707 78.6192 31.6944 82.4144C35.018 86.2096 40.1735 87.1309 43.2095 84.4722Z" fill="url(#paint13_radial_402_556)"/>
<path style="mix-blend-mode:screen" fill-rule="evenodd" clip-rule="evenodd" d="M49.3303 93.5454C46.4831 91.6183 46.1181 87.1636 48.5279 83.5968C50.9377 80.03 55.2034 78.6996 58.0571 80.6279C60.9108 82.5563 61.2693 87.0083 58.8595 90.5765C56.4497 94.1446 52.1841 95.4789 49.3303 93.5454Z" fill="url(#paint14_radial_402_556)"/>
<path style="mix-blend-mode:screen" fill-rule="evenodd" clip-rule="evenodd" d="M38.5585 63.7708C35.7048 61.8437 35.345 57.3891 37.7549 53.8222C40.1647 50.2554 44.4316 48.9263 47.284 50.8533C50.1365 52.7804 50.4975 57.235 48.0877 60.8019C45.6779 64.3687 41.411 65.6927 38.5585 63.7708Z" fill="url(#paint15_radial_402_556)"/>
<path style="mix-blend-mode:screen" fill-rule="evenodd" clip-rule="evenodd" d="M27.7118 47.2032C24.51 45.9361 23.2003 41.6627 24.7857 37.661C26.371 33.6593 30.2511 31.4424 33.4568 32.7094C36.6625 33.9764 37.9684 38.2499 36.383 42.2528C34.7976 46.2558 30.9124 48.4754 27.7118 47.2032Z" fill="url(#paint16_radial_402_556)"/>
<path style="mix-blend-mode:screen" fill-rule="evenodd" clip-rule="evenodd" d="M21.9215 73.3464C19.3473 73.9262 16.4936 70.9935 15.5462 66.7938C14.5989 62.5941 15.9177 58.7193 18.4919 58.1395C21.066 57.5597 23.921 60.4924 24.8671 64.692C25.8131 68.8917 24.4957 72.7679 21.9215 73.3464Z" fill="url(#paint17_radial_402_556)"/>
<path style="mix-blend-mode:screen" fill-rule="evenodd" clip-rule="evenodd" d="M94.8351 66.3033C97.9748 68.8386 97.9503 74.0763 94.7808 78.0016C91.6112 81.9269 86.4979 83.049 83.3568 80.5175C80.2158 77.9861 80.2417 72.7445 83.4112 68.8205C86.5807 64.8965 91.6967 63.7705 94.8351 66.3033Z" fill="url(#paint18_radial_402_556)"/>
<path style="mix-blend-mode:multiply" opacity="0.5" fill-rule="evenodd" clip-rule="evenodd" d="M56.6394 77.5607C57.0223 77.7489 57.3745 77.9942 57.6838 78.2881C57.3228 78.0647 56.9741 77.8219 56.6394 77.5607Z" fill="url(#paint19_linear_402_556)"/>
<path style="mix-blend-mode:multiply" opacity="0.5" fill-rule="evenodd" clip-rule="evenodd" d="M103.184 83.8071C103.184 83.8071 101.272 88.9424 95.9364 93.5744C95.9364 93.5744 90.8891 90.9743 86.6454 93.6766C82.4017 96.3789 75.5916 105.383 75.5916 105.383L73.7461 105.82C73.7461 105.82 71.9342 102.503 68.4994 100.582H68.4891C68.0671 100.334 67.6246 100.122 67.1664 99.9496C65.6168 99.3333 63.9353 99.1244 62.2821 99.3426C54.8637 100.276 46.0372 103.333 46.0372 103.333L42.7577 101.133C42.7577 101.133 48.8612 102.978 56.1592 97.3793C62.889 92.2155 61.6116 81.7311 57.6785 78.2924C59.2316 79.2515 62.3014 80.8084 65.8242 80.5845C70.7629 80.2674 79.5157 74.7878 82.1054 70.9944C81.51 72.0298 76.4678 80.3709 69.9398 84.2199C69.9398 84.2199 65.7078 87.0244 64.6271 91.9269C64.613 91.9531 64.6034 91.9816 64.5987 92.011C64.5987 92.0291 64.5896 92.0485 64.5896 92.0757C64.5721 92.1332 64.5625 92.1929 64.5611 92.253C64.4961 92.5357 64.4494 92.8223 64.4214 93.1111C64.3744 93.5267 64.384 93.9469 64.4499 94.36C65.1578 98.8431 72.8104 99.2624 78.1503 97.3793C82.8573 95.7202 85.5272 90.7906 86.3607 88.9916C86.5561 88.5723 86.6505 88.3199 86.6505 88.3199C86.6505 88.3199 91.729 89.5132 97.0133 87.4347C98.9546 86.6711 99.9407 83.93 100.174 80.5845C100.602 74.8162 98.7746 67.2542 95.7177 65.1227C91.7847 62.3919 85.2619 67.9466 82.9867 70.0911C84.5152 68.4785 87.7028 64.8431 88.0665 61.8988C88.5414 58.0162 75.9087 45.1389 63.6487 49.5638C50.9137 54.1595 54.5142 71.0876 55.8667 75.0298C54.8598 72.2343 51.8624 63.536 52.0384 58.8057C52.2714 52.5055 53.8672 48.4132 53.8672 48.4132C53.8672 48.4132 42.7435 45.5323 37.2082 53.3053C31.6729 61.0783 39.4445 70.4819 39.4445 70.4819C39.4445 70.4819 33.908 65.7012 32.2682 63.501C32.2682 63.501 26.4249 79.5129 33.0447 93.7258L28.1332 87.8268C28.1332 87.8268 28.6082 83.0914 28.8412 73.315C29.0741 63.5386 23.1932 46.8278 23.1932 46.8278L24.6932 43.3606C24.6932 43.3606 26.7251 57.6111 28.9641 59.6339C31.203 61.6568 38.0882 51.6461 39.5416 45.9892C41.9928 36.4121 35.7768 29.0636 35.7768 29.0636C35.7768 29.0636 42.2076 33.174 43.8849 43.6881C43.8849 43.6881 52.1678 45.5621 64.4162 45.3291C76.6645 45.0962 85.4703 40.3244 85.4703 40.3244C85.4703 40.3244 82.8819 44.968 80.4527 47.2161C80.4527 47.2161 85.1118 58.9079 92.3024 61.6387C99.493 64.3694 105.602 53.0555 104.539 48.4132C103.476 43.7709 97.5956 35.3845 86.0669 39.9232C86.2157 39.6644 89.0306 34.8629 88.1829 29.9501C87.3067 24.9027 87.8283 26.2319 87.8283 26.2319C87.8283 26.2319 88.7692 30.7706 92.059 34.564C95.3489 38.3573 102.507 40.3244 102.507 40.3244C102.507 40.3244 108.015 49.7838 108.46 59.4955C108.46 59.4955 101.014 59.6624 99.9602 63.4285C98.9067 67.1947 103.184 83.8071 103.184 83.8071Z" fill="url(#paint20_linear_402_556)"/>
<path style="mix-blend-mode:multiply" opacity="0.5" fill-rule="evenodd" clip-rule="evenodd" d="M41.2104 71.9371C41.2104 71.9371 46.0378 79.7773 55.1024 76.7166C55.1024 76.7114 47.6853 75.8598 41.2104 71.9371Z" fill="url(#paint21_linear_402_556)"/>
<path style="mix-blend-mode:multiply" opacity="0.5" fill-rule="evenodd" clip-rule="evenodd" d="M45.5677 22.706C45.5677 22.706 43.1838 26.696 42.9185 30.6692C42.9185 30.6692 41.3292 26.2508 42.9185 23.0334C42.9185 23.0295 44.2437 22.5131 45.5677 22.706Z" fill="url(#paint22_linear_402_556)"/>
<path style="mix-blend-mode:multiply" opacity="0.5" fill-rule="evenodd" clip-rule="evenodd" d="M87.634 58.8768C87.634 58.8768 92.5404 65.3478 97.1309 64.3422C101.721 63.3366 104.325 54.9579 104.637 50.1642C104.637 50.1642 101.574 61.9582 95.9117 62.661C90.7492 63.3016 87.634 58.8768 87.634 58.8768Z" fill="url(#paint23_linear_402_556)"/>
<path style="mix-blend-mode:multiply" opacity="0.5" fill-rule="evenodd" clip-rule="evenodd" d="M64.6263 91.9258C64.6122 91.9518 64.6027 91.9799 64.5979 92.0091C64.602 91.9808 64.6085 91.953 64.6173 91.9258H64.6263Z" fill="url(#paint24_linear_402_556)"/>
<path style="mix-blend-mode:multiply" opacity="0.5" fill-rule="evenodd" clip-rule="evenodd" d="M96.1376 89.9679C91.4694 91.8134 86.3612 88.9895 86.3612 88.9895C86.5566 88.5702 86.6511 88.3178 86.6511 88.3178C86.6511 88.3178 91.7296 89.511 97.0138 87.4326C98.9551 86.669 99.9413 83.9278 100.174 80.5823H100.183C100.183 80.5823 100.807 88.1133 96.1376 89.9679Z" fill="url(#paint25_linear_402_556)"/>
<path style="mix-blend-mode:multiply" opacity="0.5" fill-rule="evenodd" clip-rule="evenodd" d="M29.2356 59.8024C29.2356 59.8024 31.4474 60.9788 33.5595 58.701C35.6717 56.4232 37.6375 50.6976 37.6375 50.6976C37.6375 50.6976 33.975 58.8356 29.2356 59.8024Z" fill="url(#paint26_linear_402_556)"/>
<path style="mix-blend-mode:multiply" opacity="0.5" fill-rule="evenodd" clip-rule="evenodd" d="M25.9313 55.7339C25.9313 55.7339 29.2962 63.4279 30.1465 68.0197C30.9968 72.6115 28.2052 87.0859 28.2052 87.0859C28.2052 87.0859 29.1887 75.904 28.6154 68.461C28.0421 61.0181 25.9313 55.7339 25.9313 55.7339Z" fill="url(#paint27_linear_402_556)"/>
<path style="mix-blend-mode:screen" fill-rule="evenodd" clip-rule="evenodd" d="M17.1263 70.8863C17.1263 70.8863 20.7604 63.6077 25.4817 59.6268C25.4817 59.6268 25.8699 52.8542 22.2992 49.3948C22.2992 49.4026 14.644 55.9254 17.1263 70.8863Z" fill="url(#paint28_linear_402_556)"/>
<path style="mix-blend-mode:multiply" opacity="0.5" fill-rule="evenodd" clip-rule="evenodd" d="M46.8037 45.4165C46.8037 45.4165 54.0862 47.1404 56.0818 49.2654C56.0818 49.2654 52.9136 53.1105 53.6914 61.9991C53.6914 61.9991 54.5741 52.6873 60.9312 49.4039C67.2883 46.1205 79.2959 49.5903 83.0931 53.6269C83.0931 53.6269 77.7364 47.5881 77.8244 46.5929C77.9124 45.5977 82.5819 42.9601 82.5819 42.9601C82.5819 42.9601 74.8762 46.1852 65.8297 46.7404C57.684 47.2413 46.8037 45.4165 46.8037 45.4165Z" fill="url(#paint29_linear_402_556)"/>
<path style="mix-blend-mode:multiply" opacity="0.5" fill-rule="evenodd" clip-rule="evenodd" d="M60.4012 80.5834C60.4012 80.5834 63.4659 85.4819 62.8887 88.6889C61.9167 94.0974 57.752 97.6254 54.5139 99.1564C51.2758 100.687 44.0411 101.995 44.0411 101.995L45.1555 102.864C45.1555 102.864 54.1023 99.8036 58.7524 98.8614C63.4025 97.9192 72.7621 100.451 74.2919 105.749L75.5964 105.383C75.5964 105.383 77.1766 101.804 80.4134 98.037C83.6502 94.2695 87.6338 91.5038 87.6338 91.5038C87.6338 91.5038 84.7697 92.9753 80.6451 96.6806C76.5204 100.386 76.9204 101.922 71.5223 100.684C66.1242 99.4451 62.2221 96.5629 62.0448 95.0331C61.8675 93.5034 64.1052 87.5164 66.6367 85.0056C69.1681 82.4949 73.4053 79.4496 73.4053 79.4496C73.4053 79.4496 68.5793 83.4371 65.2829 83.3193C61.9866 83.2015 60.4012 80.5834 60.4012 80.5834Z" fill="url(#paint30_linear_402_556)"/>
<path style="mix-blend-mode:multiply" opacity="0.5" fill-rule="evenodd" clip-rule="evenodd" d="M88.3019 37.8858C88.3019 37.8858 95.0615 36.7611 100.04 40.3254C100.04 40.3254 90.6561 36.6667 88.773 31.0369C88.773 31.0265 90.1785 35.0554 88.3019 37.8858Z" fill="url(#paint31_linear_402_556)"/>
<path style="mix-blend-mode:screen" fill-rule="evenodd" clip-rule="evenodd" d="M42.9215 23.0316C40.535 24.2158 36.8918 30.6273 36.8918 30.6273C36.8918 30.6273 32.586 32.4392 29.762 36.2286C26.9381 40.0181 25.4912 47.0999 25.4912 47.0999L24.0585 49.4036C24.0585 49.4036 16.2571 58.7426 18.0832 69.1337C19.7993 78.8726 27.1335 86.7763 28.0485 87.7275C5.01175 66.645 23.2017 46.8217 23.2017 46.8217L24.7017 43.3545C25.961 32.8715 35.784 29.0575 35.784 29.0575C37.8884 25.092 40.8249 23.5907 42.9215 23.0316Z" fill="url(#paint32_linear_402_556)"/>
<path style="mix-blend-mode:screen" fill-rule="evenodd" clip-rule="evenodd" d="M76.4355 17.6361C59.0725 10.0676 43.4424 27.7477 43.4424 27.7477C43.8306 26.0329 45.5675 22.7003 45.5675 22.7003C56.7791 12.1461 68.3364 13.9425 76.4355 17.6361Z" fill="url(#paint33_linear_402_556)"/>
<path fill-rule="evenodd" clip-rule="evenodd" d="M49.9395 24.4255C51.4097 25.5605 57.0265 23.0924 58.4954 20.5338C59.9643 17.9752 58.9548 17.3177 58.9548 17.3177C58.9548 17.3177 55.2768 17.7668 52.7052 19.5179C50.1336 21.2689 49.2963 23.9285 49.9395 24.4255Z" fill="#FFFFBF"/>
<path style="mix-blend-mode:screen" fill-rule="evenodd" clip-rule="evenodd" d="M71.5856 42.5667C71.5856 42.5667 76.2253 42.3946 81.239 37.311C85.4659 33.0246 85.713 26.0682 85.713 26.0682C85.713 26.0682 88.2536 31.7925 85.1566 37.311C82.0595 42.8294 71.5856 42.5667 71.5856 42.5667Z" fill="url(#paint34_linear_402_556)"/>
<path style="mix-blend-mode:screen" fill-rule="evenodd" clip-rule="evenodd" d="M56.2511 75.8619C56.2511 75.8619 62.3429 79.1207 71.1732 74.4383C80.0036 69.7559 83.3387 64.2309 84.1877 60.9851C84.1877 60.9851 84.1709 66.7792 79.8262 71.9418C75.4816 77.1044 69.2306 80.5871 64.5301 79.8985C60.21 79.2644 56.2511 75.8619 56.2511 75.8619Z" fill="url(#paint35_linear_402_556)"/>
<path style="mix-blend-mode:screen" fill-rule="evenodd" clip-rule="evenodd" d="M33.4371 92.6415C33.4371 92.6415 34.8841 98.7618 43.8904 98.7747C52.8968 98.7877 57.9247 91.9258 57.9247 91.9258C57.9247 91.9258 54.3954 100.364 45.5004 100.638C36.6053 100.913 34.3793 96.1824 33.4371 92.6415Z" fill="url(#paint36_linear_402_556)"/>
<path style="mix-blend-mode:screen" fill-rule="evenodd" clip-rule="evenodd" d="M69.2303 96.2227C69.2303 96.2227 75.9705 98.3788 80.7966 93.5735C85.6227 88.7681 86.3009 85.9066 86.3009 85.9066C86.3009 85.9066 83.9351 94.482 78.1474 96.8737C73.3679 98.8512 69.2303 96.2227 69.2303 96.2227Z" fill="url(#paint37_linear_402_556)"/>
<path style="mix-blend-mode:screen" fill-rule="evenodd" clip-rule="evenodd" d="M89.0957 87.5012C89.0957 87.5012 92.0724 87.7173 95.6017 82.6544C99.1309 77.5915 98.6624 73.3206 98.6624 73.3206C98.6624 73.3206 100.804 81.8779 97.6025 85.4861C94.4006 89.0944 89.0957 87.5012 89.0957 87.5012Z" fill="url(#paint38_linear_402_556)"/>
<path fill-rule="evenodd" clip-rule="evenodd" d="M48.9226 25.2557C47.7294 23.7518 45.7907 26.6702 46.8519 27.8156C47.9132 28.961 49.505 25.9946 48.9226 25.2557Z" fill="#FFFFBF"/>
<path fill-rule="evenodd" clip-rule="evenodd" d="M64.4211 52.4788C62.9728 50.408 57.4699 55.7544 56.639 59.2371C55.8082 62.7198 62.305 61.4579 63.6484 60.143C64.9918 58.8281 65.4888 54.0046 64.4211 52.4788Z" fill="#FFFFBF"/>
<path fill-rule="evenodd" clip-rule="evenodd" d="M90.1337 68.2016C89.3973 67.1468 86.1398 69.171 86.1773 71.6377C86.2045 73.4587 89.0582 72.7676 89.7416 72.101C90.4249 71.4345 90.6772 68.9768 90.1337 68.2016Z" fill="#FFC975"/>
<path fill-rule="evenodd" clip-rule="evenodd" d="M88.0084 42.7324C87.2707 41.6789 84.0132 43.7031 84.0507 46.1698C84.0779 47.9907 86.9316 47.2996 87.615 46.6318C88.2983 45.964 88.5507 43.5089 88.0084 42.7324Z" fill="#FFFFBF"/>
<path fill-rule="evenodd" clip-rule="evenodd" d="M90.3371 26.3342C89.8376 26.3471 89.7961 27.8367 90.6037 28.3531C91.199 28.7349 91.586 27.662 91.5161 27.2971C91.4462 26.9321 90.7047 26.3251 90.3371 26.3342Z" fill="#FFFFBF"/>
<path fill-rule="evenodd" clip-rule="evenodd" d="M30.5098 36.0741C30.0594 35.5564 28.4313 36.8105 28.5853 38.1254C28.7005 39.0948 30.1849 38.5693 30.5137 38.1759C30.8424 37.7824 30.8424 36.4623 30.5098 36.0741Z" fill="#FFFFBF"/>
<path fill-rule="evenodd" clip-rule="evenodd" d="M39.6507 53.4478C39.2935 52.9366 37.7094 53.9176 37.7314 55.1147C37.7444 55.9974 39.1291 55.6622 39.4605 55.3386C39.7918 55.0151 39.9135 53.8231 39.6507 53.4478Z" fill="#FFFFBF"/>
<path fill-rule="evenodd" clip-rule="evenodd" d="M33.5066 73.788C32.831 73.3492 31.4139 75.2905 32.0157 76.7155C32.4596 77.7676 33.957 76.6973 34.1952 76.1473C34.3896 75.738 34.4268 75.2716 34.2999 74.8366C34.1729 74.4016 33.8906 74.0284 33.5066 73.788Z" fill="#FFFFBF"/>
<path fill-rule="evenodd" clip-rule="evenodd" d="M20.0125 60.442C19.1066 59.8635 17.2416 62.4506 18.0492 64.3376C18.6445 65.7314 20.6234 64.2988 20.9392 63.5688C21.255 62.8389 20.6751 60.8691 20.0125 60.442Z" fill="#FFFFBF"/>
<path fill-rule="evenodd" clip-rule="evenodd" d="M69.0862 87.6248C68.7226 87.1071 67.1139 88.1037 67.132 89.3215C67.1449 90.2274 68.5556 89.8793 68.8921 89.5506C69.2286 89.2218 69.3541 88.0079 69.0862 87.6248Z" fill="#FFC975"/>
<path fill-rule="evenodd" clip-rule="evenodd" d="M56.2578 64.5456C55.5965 65.0711 55.7738 66.4326 56.1207 66.8959C56.4675 67.3592 57.4291 66.2022 57.4679 65.7207C57.5068 65.2393 56.6241 64.2505 56.2578 64.5456Z" fill="#FFFFBF"/>
<path fill-rule="evenodd" clip-rule="evenodd" d="M53.4519 102.138C52.6987 101.75 51.5352 102.488 51.2608 102.996C50.9864 103.505 51.9933 104.021 52.8915 103.729C53.7897 103.436 53.8712 102.351 53.4519 102.138Z" fill="#FFA475"/>
<path fill-rule="evenodd" clip-rule="evenodd" d="M84.6474 96.2875C83.4606 96.3056 81.971 98.0243 81.707 98.8591C81.443 99.6939 83.0336 99.6809 84.254 98.7025C85.4745 97.7241 85.31 96.2785 84.6474 96.2875Z" fill="#FF93A4"/>
<path fill-rule="evenodd" clip-rule="evenodd" d="M103.991 62.9203C103.167 62.7909 102.327 63.8405 102.239 64.4022C102.151 64.9639 103.257 65.136 103.995 64.5847C104.733 64.0333 104.456 62.9915 103.991 62.9203Z" fill="#FFBBB8"/>
<path fill-rule="evenodd" clip-rule="evenodd" d="M52.8819 79.6967C51.378 79.4703 49.8483 81.3792 49.6879 82.3965C49.5274 83.4137 51.5437 83.7347 52.8884 82.7291C54.2331 81.7235 53.7205 79.8184 52.8819 79.6967Z" fill="#FFFFBF"/>
<path style="mix-blend-mode:screen" fill-rule="evenodd" clip-rule="evenodd" d="M85.1554 53.3106C85.1554 53.3106 89.029 59.5034 96.1367 58.129C103.244 56.7545 104.018 50.6976 104.018 50.6976C104.018 50.6976 101.738 62.0866 94.5863 61.4913C87.4345 60.896 85.1554 53.3106 85.1554 53.3106Z" fill="url(#paint39_linear_402_556)"/>
<path style="mix-blend-mode:screen" fill-rule="evenodd" clip-rule="evenodd" d="M41.6042 70.1325C41.6042 70.1325 46.4549 72.7985 48.9812 70.6088C51.5075 68.419 50.3181 61.1611 50.3181 61.1611C50.3181 61.1611 53.243 72.7571 51.3975 74.393C49.6257 75.9642 41.6042 70.1325 41.6042 70.1325Z" fill="url(#paint40_linear_402_556)"/>
<path style="mix-blend-mode:screen" fill-rule="evenodd" clip-rule="evenodd" d="M42.7 35.2865C42.7 35.2865 44.1974 38.7808 52.0053 41.0987C59.8133 43.4166 68.1829 42.9533 68.1829 42.9533C68.1829 42.9533 53.9117 44.958 48.1589 42.9909C42.4062 41.0237 42.7 35.2865 42.7 35.2865Z" fill="url(#paint41_linear_402_556)"/>
<path style="mix-blend-mode:screen" fill-rule="evenodd" clip-rule="evenodd" d="M91.5236 33.0043C91.5236 33.0043 95.366 36.0301 98.3673 36.8053C101.369 37.5806 102.238 35.9486 102.238 35.9486C102.238 35.9486 102.405 39.0741 101.105 39.2333C99.8038 39.3925 94.7021 36.8416 91.5236 33.0043Z" fill="url(#paint42_linear_402_556)"/>
<path style="mix-blend-mode:screen" fill-rule="evenodd" clip-rule="evenodd" d="M101.185 70.8869C101.185 70.8869 102.933 77.2363 104.844 77.9235C106.754 78.6107 109.58 73.3174 109.58 73.3174C109.58 73.3174 107.994 79.1944 104.015 81.5058C104.018 81.5084 102.103 79.0844 101.185 70.8869Z" fill="url(#paint43_linear_402_556)"/>
<path style="mix-blend-mode:screen" fill-rule="evenodd" clip-rule="evenodd" d="M53.3379 107.22C53.3379 107.22 57.8844 109.382 63.3589 109.206C68.8334 109.03 72.8066 105.748 72.8066 105.748C72.8066 105.748 72.0909 103.548 70.2182 102.362C70.2182 102.362 70.2182 105.285 67.1302 107.042C64.1691 108.729 57.2063 108.436 53.3379 107.22Z" fill="url(#paint44_linear_402_556)"/>
<path style="mix-blend-mode:screen" fill-rule="evenodd" clip-rule="evenodd" d="M92.834 92.9197C92.834 92.9197 91.9604 97.5698 88.743 100.469C85.5256 103.368 80.8251 104.632 80.8251 104.632C80.8251 104.632 84.8565 104.309 89.6256 100.954C94.3948 97.5996 95.2774 93.7144 95.2774 93.7144L92.834 92.9197Z" fill="url(#paint45_linear_402_556)"/>
</g>
<defs>
<radialGradient id="paint0_radial_402_556" cx="0" cy="0" r="1" gradientUnits="userSpaceOnUse" gradientTransform="translate(65 67) scale(65)">
<stop stop-color="#FF4000"/>
<stop offset="1"/>
</radialGradient>
<radialGradient id="paint1_radial_402_556" cx="0" cy="0" r="1" gradientUnits="userSpaceOnUse" gradientTransform="translate(65.0012 67.0002) scale(51.0511 51.0511)">
<stop stop-color="#FF7300"/>
<stop offset="1"/>
</radialGradient>
<radialGradient id="paint2_radial_402_556" cx="0" cy="0" r="1" gradientUnits="userSpaceOnUse" gradientTransform="translate(65.0008 67.0003) scale(48.7164 48.7163)">
<stop stop-color="#FF7900"/>
<stop offset="0.18" stop-color="#FC7800"/>
<stop offset="0.32" stop-color="#F37300"/>
<stop offset="0.43" stop-color="#E36C00"/>
<stop offset="0.54" stop-color="#CC6100"/>
<stop offset="0.64" stop-color="#AF5300"/>
<stop offset="0.74" stop-color="#8C4200"/>
<stop offset="0.83" stop-color="#622E00"/>
<stop offset="0.92" stop-color="#321800"/>
<stop offset="1"/>
</radialGradient>
<radialGradient id="paint3_radial_402_556" cx="0" cy="0" r="1" gradientUnits="userSpaceOnUse" gradientTransform="translate(48.377 47.3097) scale(62.6549 62.6549)">
<stop offset="0.01" stop-color="#FFCC00"/>
<stop offset="0.18" stop-color="#FEC902"/>
<stop offset="0.33" stop-color="#FCBE08"/>
<stop offset="0.48" stop-color="#F8AD13"/>
<stop offset="0.61" stop-color="#F29422"/>
<stop offset="0.74" stop-color="#EA7435"/>
<stop offset="0.82" stop-color="#E55E42"/>
<stop offset="0.84" stop-color="#E35D49"/>
<stop offset="0.88" stop-color="#DF5A5C"/>
<stop offset="0.93" stop-color="#D7567C"/>
<stop offset="0.98" stop-color="#CC4FA7"/>
<stop offset="1" stop-color="#C74CBD"/>
</radialGradient>
<radialGradient id="paint4_radial_402_556" cx="0" cy="0" r="1" gradientUnits="userSpaceOnUse" gradientTransform="translate(32.1554 32.6076) scale(58.1161 58.1161)">
<stop stop-color="#FFFFD9"/>
<stop offset="1"/>
</radialGradient>
<radialGradient id="paint5_radial_402_556" cx="0" cy="0" r="1" gradientUnits="userSpaceOnUse" gradientTransform="translate(46.4731 45.7738) scale(67.2791 67.2791)">
<stop offset="0.01" stop-color="#FFCC00"/>
<stop offset="0.18" stop-color="#FEC902"/>
<stop offset="0.33" stop-color="#FCBE08"/>
<stop offset="0.48" stop-color="#F8AD13"/>
<stop offset="0.61" stop-color="#F29422"/>
<stop offset="0.74" stop-color="#EA7435"/>
<stop offset="0.82" stop-color="#E55E42"/>
<stop offset="0.84" stop-color="#E35D49"/>
<stop offset="0.88" stop-color="#DF5A5C"/>
<stop offset="0.93" stop-color="#D7567C"/>
<stop offset="0.98" stop-color="#CC4FA7"/>
<stop offset="1" stop-color="#C74CBD"/>
</radialGradient>
<radialGradient id="paint6_radial_402_556" cx="0" cy="0" r="1" gradientUnits="userSpaceOnUse" gradientTransform="translate(67.3593 58.4946) rotate(-34.8) scale(12.2417 9.74938)">
<stop stop-color="#FFD400"/>
<stop offset="0.66" stop-color="#584900"/>
<stop offset="1"/>
</radialGradient>
<radialGradient id="paint7_radial_402_556" cx="0" cy="0" r="1" gradientUnits="userSpaceOnUse" gradientTransform="translate(91.0839 46.4197) rotate(-34.7386) scale(7.91851 6.31139)">
<stop stop-color="#FFD400"/>
<stop offset="0.66" stop-color="#584900"/>
<stop offset="1"/>
</radialGradient>
<radialGradient id="paint8_radial_402_556" cx="0" cy="0" r="1" gradientUnits="userSpaceOnUse" gradientTransform="translate(94.3481 26.948) rotate(21.482) scale(5.22559 4.18277)">
<stop stop-color="#FFD400"/>
<stop offset="0.66" stop-color="#584900"/>
<stop offset="1"/>
</radialGradient>
<radialGradient id="paint9_radial_402_556" cx="0" cy="0" r="1" gradientUnits="userSpaceOnUse" gradientTransform="translate(104.258 63.5105) rotate(-68.39) scale(6.27648 4.99862)">
<stop stop-color="#FF8600"/>
<stop offset="0.66" stop-color="#582E00"/>
<stop offset="1"/>
</radialGradient>
<radialGradient id="paint10_radial_402_556" cx="0" cy="0" r="1" gradientUnits="userSpaceOnUse" gradientTransform="translate(52.394 27.8584) rotate(-34.7387) scale(9.13541 7.28132)">
<stop stop-color="#FFD400"/>
<stop offset="0.66" stop-color="#584900"/>
<stop offset="1"/>
</radialGradient>
<radialGradient id="paint11_radial_402_556" cx="0" cy="0" r="1" gradientUnits="userSpaceOnUse" gradientTransform="translate(45.2906 55.7025) rotate(-34.7386) scale(9.13541 7.28131)">
<stop stop-color="#FFD400"/>
<stop offset="0.66" stop-color="#584900"/>
<stop offset="1"/>
</radialGradient>
<radialGradient id="paint12_radial_402_556" cx="0" cy="0" r="1" gradientUnits="userSpaceOnUse" gradientTransform="translate(73.6432 87.5239) rotate(-34.7386) scale(9.13542 7.28131)">
<stop offset="0.01" stop-color="#FF8300"/>
<stop offset="0.66" stop-color="#582D00"/>
<stop offset="1"/>
</radialGradient>
<radialGradient id="paint13_radial_402_556" cx="0" cy="0" r="1" gradientUnits="userSpaceOnUse" gradientTransform="translate(38.25 79.2573) rotate(48.79) scale(9.15318 7.28965)">
<stop offset="0.01" stop-color="#FF8300"/>
<stop offset="0.66" stop-color="#582D00"/>
<stop offset="1"/>
</radialGradient>
<radialGradient id="paint14_radial_402_556" cx="0" cy="0" r="1" gradientUnits="userSpaceOnUse" gradientTransform="translate(54.4288 86.8804) rotate(123.977) scale(7.78135 6.22525)">
<stop offset="0.01" stop-color="#FF8300"/>
<stop offset="0.66" stop-color="#582D00"/>
<stop offset="1"/>
</radialGradient>
<radialGradient id="paint15_radial_402_556" cx="0" cy="0" r="1" gradientUnits="userSpaceOnUse" gradientTransform="translate(43.7134 57.0452) rotate(123.977) scale(7.78135 6.22524)">
<stop offset="0.01" stop-color="#FF8300"/>
<stop offset="0.66" stop-color="#582D00"/>
<stop offset="1"/>
</radialGradient>
<radialGradient id="paint16_radial_402_556" cx="0" cy="0" r="1" gradientUnits="userSpaceOnUse" gradientTransform="translate(31.9457 39.9958) rotate(111.482) scale(7.78879 6.23446)">
<stop offset="0.01" stop-color="#FF8300"/>
<stop offset="0.66" stop-color="#582D00"/>
<stop offset="1"/>
</radialGradient>
<radialGradient id="paint17_radial_402_556" cx="0" cy="0" r="1" gradientUnits="userSpaceOnUse" gradientTransform="translate(22.5215 68.7132) rotate(77.2109) scale(7.8157 4.78767)">
<stop offset="0.01" stop-color="#FF8300"/>
<stop offset="0.66" stop-color="#582D00"/>
<stop offset="1"/>
</radialGradient>
<radialGradient id="paint18_radial_402_556" cx="0" cy="0" r="1" gradientUnits="userSpaceOnUse" gradientTransform="translate(92.0653 72.096) rotate(-51.0725) scale(9.15909 7.32727)">
<stop offset="0.01" stop-color="#FF8300"/>
<stop offset="0.66" stop-color="#582D00"/>
<stop offset="1"/>
</radialGradient>
<linearGradient id="paint19_linear_402_556" x1="56.6394" y1="77.9244" x2="57.6838" y2="77.9244" gradientUnits="userSpaceOnUse">
<stop stop-color="#CA528D"/>
<stop offset="1" stop-color="#8E7090"/>
</linearGradient>
<linearGradient id="paint20_linear_402_556" x1="23.1997" y1="65.9445" x2="108.459" y2="65.9445" gradientUnits="userSpaceOnUse">
<stop stop-color="#F4788D"/>
<stop offset="1" stop-color="#8E7090"/>
</linearGradient>
<linearGradient id="paint21_linear_402_556" x1="41.2104" y1="74.6808" x2="55.1024" y2="74.6808" gradientUnits="userSpaceOnUse">
<stop stop-color="#CA528D"/>
<stop offset="1" stop-color="#8E7090"/>
</linearGradient>
<linearGradient id="paint22_linear_402_556" x1="42.2132" y1="26.6662" x2="45.5677" y2="26.6662" gradientUnits="userSpaceOnUse">
<stop stop-color="#CA528D"/>
<stop offset="1" stop-color="#8E7090"/>
</linearGradient>
<linearGradient id="paint23_linear_402_556" x1="87.634" y1="57.3056" x2="104.64" y2="57.3056" gradientUnits="userSpaceOnUse">
<stop stop-color="#CA528D"/>
<stop offset="1" stop-color="#B3757C"/>
</linearGradient>
<linearGradient id="paint24_linear_402_556" x1="64.5979" y1="91.9681" x2="64.6263" y2="91.9681" gradientUnits="userSpaceOnUse">
<stop stop-color="#CA528D"/>
<stop offset="1" stop-color="#B3757C"/>
</linearGradient>
<linearGradient id="paint25_linear_402_556" x1="86.3612" y1="85.5883" x2="100.21" y2="85.5883" gradientUnits="userSpaceOnUse">
<stop stop-color="#CA528D"/>
<stop offset="1" stop-color="#B3757C"/>
</linearGradient>
<linearGradient id="paint26_linear_402_556" x1="29.2356" y1="55.4021" x2="37.6375" y2="55.4021" gradientUnits="userSpaceOnUse">
<stop stop-color="#CA528D"/>
<stop offset="1" stop-color="#B3757C"/>
</linearGradient>
<linearGradient id="paint27_linear_402_556" x1="25.9313" y1="71.4092" x2="30.3082" y2="71.4092" gradientUnits="userSpaceOnUse">
<stop stop-color="#CA528D"/>
<stop offset="1" stop-color="#B3757C"/>
</linearGradient>
<linearGradient id="paint28_linear_402_556" x1="21.0632" y1="70.8889" x2="21.0632" y2="49.4013" gradientUnits="userSpaceOnUse">
<stop/>
<stop offset="0.08" stop-color="#080502"/>
<stop offset="0.22" stop-color="#1F1209"/>
<stop offset="0.38" stop-color="#452813"/>
<stop offset="0.57" stop-color="#794621"/>
<stop offset="0.79" stop-color="#BB6C33"/>
<stop offset="0.98" stop-color="#FF9346"/>
</linearGradient>
<linearGradient id="paint29_linear_402_556" x1="46.8037" y1="52.4802" x2="83.0931" y2="52.4802" gradientUnits="userSpaceOnUse">
<stop stop-color="#CA528D"/>
<stop offset="1" stop-color="#B3757C"/>
</linearGradient>
<linearGradient id="paint30_linear_402_556" x1="44.0411" y1="92.6" x2="87.6338" y2="92.6" gradientUnits="userSpaceOnUse">
<stop stop-color="#CA528D"/>
<stop offset="1" stop-color="#B3757C"/>
</linearGradient>
<linearGradient id="paint31_linear_402_556" x1="88.3019" y1="35.6753" x2="100.04" y2="35.6753" gradientUnits="userSpaceOnUse">
<stop stop-color="#CA528D"/>
<stop offset="1" stop-color="#B3757C"/>
</linearGradient>
<linearGradient id="paint32_linear_402_556" x1="16.38" y1="55.3815" x2="42.9215" y2="55.3815" gradientUnits="userSpaceOnUse">
<stop stop-color="#514579"/>
<stop offset="0.11" stop-color="#594D7F"/>
<stop offset="0.27" stop-color="#6E6490"/>
<stop offset="0.48" stop-color="#918AAB"/>
<stop offset="0.72" stop-color="#C2BED0"/>
<stop offset="0.98" stop-color="white"/>
</linearGradient>
<linearGradient id="paint33_linear_402_556" x1="43.4424" y1="21.2495" x2="76.4355" y2="21.2495" gradientUnits="userSpaceOnUse">
<stop stop-color="#514579"/>
<stop offset="0.11" stop-color="#594D7F"/>
<stop offset="0.27" stop-color="#6E6490"/>
<stop offset="0.48" stop-color="#918AAB"/>
<stop offset="0.72" stop-color="#C2BED0"/>
<stop offset="0.98" stop-color="white"/>
</linearGradient>
<linearGradient id="paint34_linear_402_556" x1="71.5856" y1="34.3188" x2="86.6941" y2="34.3188" gradientUnits="userSpaceOnUse">
<stop stop-color="#FF8B4A"/>
<stop offset="1"/>
</linearGradient>
<linearGradient id="paint35_linear_402_556" x1="56.2511" y1="70.4832" x2="84.1877" y2="70.4832" gradientUnits="userSpaceOnUse">
<stop stop-color="#FF8B4A"/>
<stop offset="1"/>
</linearGradient>
<linearGradient id="paint36_linear_402_556" x1="33.4371" y1="96.2873" x2="57.9247" y2="96.2873" gradientUnits="userSpaceOnUse">
<stop stop-color="#FF8B4A"/>
<stop offset="1"/>
</linearGradient>
<linearGradient id="paint37_linear_402_556" x1="69.2303" y1="91.759" x2="86.3009" y2="91.759" gradientUnits="userSpaceOnUse">
<stop stop-color="#FF8B4A"/>
<stop offset="1"/>
</linearGradient>
<linearGradient id="paint38_linear_402_556" x1="89.0957" y1="80.5837" x2="99.3639" y2="80.5837" gradientUnits="userSpaceOnUse">
<stop stop-color="#FF8B4A"/>
<stop offset="1"/>
</linearGradient>
<linearGradient id="paint39_linear_402_556" x1="85.1554" y1="56.1061" x2="104.018" y2="56.1061" gradientUnits="userSpaceOnUse">
<stop stop-color="#FF8B4A"/>
<stop offset="1"/>
</linearGradient>
<linearGradient id="paint40_linear_402_556" x1="46.8043" y1="74.6648" x2="46.8043" y2="61.1662" gradientUnits="userSpaceOnUse">
<stop stop-color="#FF8B4A"/>
<stop offset="1"/>
</linearGradient>
<linearGradient id="paint41_linear_402_556" x1="55.4389" y1="43.8554" x2="55.4389" y2="35.2865" gradientUnits="userSpaceOnUse">
<stop stop-color="#FF8B4A"/>
<stop offset="1"/>
</linearGradient>
<linearGradient id="paint42_linear_402_556" x1="91.5236" y1="36.122" x2="102.245" y2="36.122" gradientUnits="userSpaceOnUse">
<stop stop-color="#FF8B4A"/>
<stop offset="1"/>
</linearGradient>
<linearGradient id="paint43_linear_402_556" x1="101.185" y1="76.1996" x2="109.58" y2="76.1996" gradientUnits="userSpaceOnUse">
<stop/>
<stop offset="1" stop-color="#FF8B4A"/>
</linearGradient>
<linearGradient id="paint44_linear_402_556" x1="53.3379" y1="105.79" x2="72.8066" y2="105.79" gradientUnits="userSpaceOnUse">
<stop stop-color="#FF8B4A"/>
<stop offset="1"/>
</linearGradient>
<linearGradient id="paint45_linear_402_556" x1="80.8264" y1="98.776" x2="95.2774" y2="98.776" gradientUnits="userSpaceOnUse">
<stop stop-color="#FF8B4A"/>
<stop offset="1"/>
</linearGradient>
<clipPath id="clip0_402_556">
<rect width="130" height="130" fill="white"/>
</clipPath>
</defs>
</svg>
