<svg width="130" height="130" viewBox="0 0 130 130" fill="none" xmlns="http://www.w3.org/2000/svg">
<path style="mix-blend-mode:screen" d="M110.016 64.9999C110.016 40.1385 89.862 19.9843 65.0005 19.9843C40.1391 19.9843 19.9849 40.1385 19.9849 64.9999C19.9849 89.8613 40.1391 110.016 65.0006 110.016C89.862 110.016 110.016 89.8613 110.016 64.9999Z" fill="url(#paint0_radial_402_732)"/>
<path style="mix-blend-mode:screen" d="M90 90C103.807 76.1929 103.807 53.8071 90 40C76.1929 26.1929 53.8071 26.1929 40 40C26.1929 53.8071 26.1929 76.1929 40 90C53.8071 103.807 76.1929 103.807 90 90Z" fill="url(#paint1_radial_402_732)"/>
<path style="mix-blend-mode:screen" d="M88.8569 88.8567C102.033 75.681 102.033 54.319 88.8569 41.1433C75.6813 27.9677 54.3193 27.9677 41.1436 41.1433C27.9679 54.319 27.9679 75.681 41.1436 88.8567C54.3193 102.032 75.6812 102.032 88.8569 88.8567Z" fill="url(#paint2_radial_402_732)"/>
<path fill-rule="evenodd" clip-rule="evenodd" d="M95.6013 64.4635C95.6048 68.4802 94.816 72.4581 93.2803 76.1697C91.7445 79.8812 89.4919 83.2534 86.6514 86.0934C83.8109 88.9333 80.4382 91.1852 76.7263 92.7202C73.0145 94.2552 69.0364 95.0431 65.0197 95.0389C64.4774 95.0389 63.9289 95.0254 63.3929 94.9931H63.3866C62.5862 94.9546 61.7921 94.8775 61.0114 94.7798C55.2543 94.0264 49.8337 91.6388 45.3916 87.8998C42.5262 85.4878 40.1188 82.5791 38.2849 79.3133C38.0976 78.9781 37.9165 78.6357 37.7364 78.2933C37.7364 78.2808 37.7301 78.2745 37.7229 78.2611C37.5365 77.8936 37.3644 77.5252 37.1941 77.1515H37.1879C36.6526 75.978 36.1954 74.7704 35.8192 73.5367C35.5333 72.6375 35.2939 71.7242 35.1022 70.8003C35.0972 70.7926 35.095 70.7834 35.0959 70.7743C34.9596 70.1218 34.844 69.4639 34.7535 68.8024C34.5454 67.3661 34.4418 65.9166 34.4434 64.4653C34.4434 63.6201 34.4756 62.774 34.5536 61.9485C34.5922 61.4187 34.6504 60.8962 34.7212 60.3728C35.1078 57.4207 35.9322 54.5428 37.1672 51.8337C39.5969 46.4841 43.5151 41.9468 48.4539 38.7638C53.3926 35.5808 59.1432 33.8866 65.0188 33.8836C65.3414 33.8836 65.6641 33.8899 65.9805 33.897C66.322 33.9096 66.6644 33.9221 67.0068 33.9481C68.7361 34.0602 70.4527 34.3193 72.1381 34.7225C73.1061 34.9556 74.0552 35.2263 74.9847 35.5489C75.6121 35.7622 76.2395 35.9971 76.8499 36.2588C77.3079 36.4524 77.7534 36.6532 78.1943 36.8656C78.2714 36.9041 78.3494 36.9364 78.4265 36.9758C81.3785 38.4191 84.0789 40.3281 86.4241 42.6297C86.7593 42.9523 87.082 43.2876 87.4047 43.6299C87.618 43.8621 87.8304 44.1014 88.0375 44.3398C88.396 44.7405 88.7348 45.1599 89.07 45.5794C91.7413 48.9752 93.66 52.9003 94.6988 57.0941C95.2985 59.5047 95.6016 61.9794 95.6013 64.4635Z" fill="url(#paint3_radial_402_732)"/>
<g style="mix-blend-mode:multiply" opacity="0.4">
<path fill-rule="evenodd" clip-rule="evenodd" d="M34.4407 64.4635C34.4407 64.4635 41.6514 77.2582 48.6228 79.2426C55.5942 81.227 63.5542 79.9659 66.2754 80.9796C68.9965 81.9933 70.4763 86.1504 70.4763 86.1504L71.49 86.7312C71.49 86.7312 73.8159 83.12 75.2401 85.2532C75.2401 85.2532 74.6728 82.2299 76.3838 78.5489C78.0948 74.8678 79.2385 70.9142 81.3574 69.6504C83.4762 68.3866 87.3554 67.7996 90.4297 69.023C93.504 70.2465 95.0967 70.0089 95.0967 70.0089L95.3262 68.5605L95.5565 67.2833C95.5565 67.2833 92.614 67.7512 90.2468 66.2373C90.2468 66.2373 90.5713 66.8029 92.4051 63.3781C94.2389 59.9534 94.0274 56.8638 94.0274 56.8638L93.7639 54.019C93.7639 54.019 92.778 63.8872 88.6174 66.7509C88.6174 66.7509 79.338 64.8301 75.414 75.7829C75.414 75.7829 74.7427 83.1083 70.8545 82.9049C66.9664 82.7014 68.3118 77.9107 62.6857 77.8614C57.0596 77.8121 53.6465 80.1254 48.0761 76.949C42.5056 73.7725 34.4407 64.4635 34.4407 64.4635Z" fill="#7D72B3"/>
</g>
<g style="mix-blend-mode:multiply" opacity="0.4">
<path fill-rule="evenodd" clip-rule="evenodd" d="M63.3921 94.9927C63.3921 94.9927 67.2462 89.2331 71.491 89.2645C75.7359 89.2959 77.6889 90.8357 81.0321 88.8845C84.3753 86.9332 85.7646 85.7134 87.3062 84.6719C88.8478 83.6304 89.1077 83.2996 89.1077 83.2996L89.8033 82.38C89.8033 82.38 87.4594 81.2426 85.3935 82.9133C83.3275 84.584 79.5944 88.3655 76.6268 88.3467C73.6592 88.3279 73.808 86.6222 70.4773 87.9595C67.1467 89.2968 60.134 94.0238 60.134 94.0238C60.134 94.0238 61.4041 94.9515 63.3921 94.9927Z" fill="#7D72B3"/>
</g>
<g style="mix-blend-mode:multiply" opacity="0.4">
<path fill-rule="evenodd" clip-rule="evenodd" d="M36.124 74.4789L36.4915 75.4881C36.4915 75.4881 42.4536 78.7793 46.2189 83.3612C49.9843 87.943 50.6538 91.046 50.6538 91.046C50.6538 91.046 51.3234 88.3159 48.0788 83.181C44.8342 78.0461 37.8484 75.2318 36.124 74.4789Z" fill="#7D72B3"/>
</g>
<path fill-rule="evenodd" clip-rule="evenodd" d="M78.4297 36.9758C78.3284 36.9846 78.2275 36.9987 78.1277 37.018C77.8091 37.0767 77.481 37.0548 77.1731 36.9543C76.9293 36.8853 76.7536 36.7849 76.4937 36.7419C76.1226 36.6836 75.7767 36.525 75.4065 36.473C75.0139 36.4201 74.6751 36.2669 74.3032 36.1342C74.0119 36.0275 73.855 36.0652 73.5772 36.1342C73.2993 36.2032 73.0994 36.0912 72.8503 35.9854C72.5688 35.8635 72.2883 35.842 71.9907 35.7838C71.2163 35.6251 70.4473 35.375 69.6783 35.1788C69.2006 35.0569 68.7605 35.0569 68.2729 35.0515C67.8911 35.047 67.546 35.1581 67.1642 35.1581C66.9202 35.1497 66.6772 35.1231 66.4373 35.0784C66.1773 35.0309 65.912 35.0837 65.6521 35.047C65.2649 34.9878 65.0579 34.9296 64.6662 35.0515C64.374 35.1474 64.1463 35.1366 63.8541 35.1528C63.5139 35.1822 63.1769 35.2407 62.8467 35.3275C62.2619 35.4746 61.6616 35.5513 61.0586 35.5561C60.7001 35.5561 60.1677 35.4548 59.8235 35.5767C59.6003 35.6565 59.4892 35.8949 59.335 36.0544C59.0383 36.3619 58.6717 36.6379 58.4226 36.983C58.1734 37.3281 57.892 37.683 57.9135 38.1177C57.935 38.4942 58.1098 38.9342 58.272 39.2829C58.4414 39.6486 58.4997 39.9829 58.1232 40.2267C57.6441 40.5547 57.1184 40.8088 56.5637 40.9805C56.2051 41.0863 55.8798 41.1499 55.5777 40.8909C55.4666 40.7959 55.3985 40.6094 55.2595 40.5323C55.1206 40.4553 54.9682 40.5323 54.8114 40.5798C54.4378 40.7033 54.057 40.8042 53.6713 40.8819C53.432 40.9195 53.2232 41.0468 52.9919 41.0889C52.7114 41.1418 52.5097 40.9348 52.2175 41.0038C51.8097 41.0997 51.401 41.2727 50.977 41.2906C50.6741 41.3067 50.2923 41.1741 50.0377 41.0217C49.8889 40.9366 49.8522 40.8523 49.6792 40.8998C49.5133 40.9609 49.3679 41.0674 49.2597 41.2073C49.1593 41.3507 49.1217 41.5362 49.0213 41.685C48.9146 41.849 48.8143 42.0085 48.7184 42.1833C48.5428 42.5188 48.3408 42.8398 48.1143 43.1433C47.9547 43.3557 47.8454 43.6416 47.6661 43.8379C47.5765 43.9445 47.3793 44.0171 47.2628 44.0978C46.9446 44.321 46.6103 44.5227 46.3028 44.7611C45.7086 45.228 45.1466 45.7425 44.5416 46.1951C44.08 46.5402 43.4329 46.7419 42.9077 46.9588C42.5787 47.0914 42.2399 47.1873 41.911 47.3245C41.8043 47.3675 41.608 47.4141 41.5184 47.4948C41.4019 47.5952 41.3391 47.7807 41.2316 47.9187C40.9457 48.2692 40.6427 48.6187 40.4249 49.0221C40.302 49.254 40.2023 49.4974 40.1273 49.749C40.0108 50.094 39.8253 50.4122 39.7088 50.7564C39.4704 51.4779 39.422 52.2308 39.1567 52.9469C39.0034 53.3664 38.7802 53.7482 38.5893 54.1301C38.2604 54.7772 38.2129 55.5462 38.117 56.2624C38.0675 56.6989 38.082 57.1404 38.16 57.5727C38.2398 58.0128 38.2182 58.469 38.2129 58.9172C38.2075 59.394 37.9054 59.861 37.6025 60.2222C37.3273 60.5565 36.9079 60.6838 36.6004 60.9805C36.3405 61.235 36.0277 61.5263 35.9165 61.8875C35.8681 62.0462 35.9112 62.2272 35.8843 62.3966C35.8153 62.7731 35.7203 63.1289 35.6665 63.5107C35.6146 63.9737 35.5918 64.4395 35.5984 64.9053C35.5984 65.1438 35.5822 65.3885 35.593 65.6269C35.6038 65.8653 35.688 66.067 35.7041 66.2955C35.7149 66.4542 35.6826 66.6137 35.7041 66.7723C35.7355 66.9516 35.8045 67.1389 35.8475 67.3101C35.9533 67.7341 36.0331 68.1482 36.1164 68.5721C36.1899 68.9647 36.3441 69.3519 36.466 69.7373C36.6286 70.2606 36.7562 70.7942 36.8478 71.3345C36.9276 71.7369 36.9222 72.1564 36.9805 72.5651C37.028 72.8932 37.1024 73.2275 37.1185 73.5564C37.1346 74.0548 37.0127 74.554 37.0074 75.0577C37.002 75.9065 37.3417 76.7553 37.538 77.5718C37.5962 77.7995 37.6545 78.0334 37.7172 78.2611C35.3612 73.5978 34.239 68.4086 34.4577 63.1885C34.6764 57.9684 36.2287 52.8914 38.9666 48.4415C41.7044 43.9916 45.5366 40.3172 50.0976 37.7688C54.6586 35.2203 59.7964 33.8828 65.0211 33.8836C65.6897 33.8836 66.3476 33.9042 67.0046 33.9472C70.9749 34.1966 74.8572 35.2257 78.4297 36.9758Z" fill="url(#paint4_linear_402_732)"/>
<g style="mix-blend-mode:multiply" opacity="0.4">
<path fill-rule="evenodd" clip-rule="evenodd" d="M41.9203 47.325C41.9203 47.325 48.8039 53.4798 57.8851 53.6564C66.9664 53.833 70.3437 53.2217 73.3624 49.8588C76.3811 46.4959 79.6365 40.7972 79.6365 40.7972C79.6365 40.7972 75.7573 42.666 73.0738 46.3193C70.3903 49.9726 57.7148 56.1956 41.9203 47.325Z" fill="#7D72B3"/>
</g>
<g opacity="0.7">
<g style="mix-blend-mode:multiply" opacity="0.4">
<path fill-rule="evenodd" clip-rule="evenodd" d="M42.4685 47.5004C41.5677 48.567 40.7826 49.6515 40.1767 50.9162C39.6389 52.0384 39.4417 53.2887 39.2472 54.5014C39.1325 55.2184 39.0303 55.9462 38.9218 56.6686C38.8259 57.3086 38.6404 57.9844 38.7507 58.6324C38.9012 59.5108 38.946 60.4797 39.3673 61.281C39.7961 62.1164 40.3037 62.909 40.883 63.6481C41.4682 64.3902 42.1754 64.7236 43.1237 64.79C43.6364 64.8258 44.1464 64.747 44.6608 64.8142C45.3725 64.9083 46.086 65.0383 46.7958 65.1521C48.2254 65.3815 49.8316 65.3923 50.8587 64.2199C51.6923 63.269 52.0867 62.0832 52.6173 60.9511C53.1819 59.7447 53.8936 58.7445 54.9476 57.9252C55.7256 57.3229 56.4077 56.6453 57.1552 56.0098C57.494 55.7212 57.6993 55.4093 58.0847 55.1933C58.4701 54.9773 58.6664 54.7452 58.9971 54.4422C59.2938 54.1689 59.655 53.9842 59.9194 53.6723C60.3407 53.1758 60.6786 52.5071 60.9053 51.9039C61.1428 51.2702 61.2585 50.598 61.3535 49.9321C61.4431 49.2796 61.2486 48.6244 61.0461 48.0023C60.6589 46.8183 59.6487 46.0753 58.6978 45.3403C57.52 44.4315 56.1334 44.0281 54.6841 43.7431C53.3666 43.4841 51.7801 43.4312 50.4563 43.666C49.0554 43.9134 47.6159 44.1142 46.3109 44.721C45.3573 45.1647 44.7809 45.7804 44.011 46.4329C43.6193 46.7654 43.1443 46.994 42.7903 47.3686C42.3 47.8894 41.8411 48.4523 42.4685 47.5004Z" fill="#7D72B3"/>
</g>
<g style="mix-blend-mode:multiply" opacity="0.4">
<path fill-rule="evenodd" clip-rule="evenodd" d="M56.3295 41.7925C56.5195 41.4609 56.7355 40.9858 56.999 40.6721C57.1508 40.5113 57.3163 40.3641 57.4938 40.2321C58.0046 39.8036 58.564 39.4406 59.2129 39.2542C59.574 39.1507 59.9559 39.1436 60.3207 39.2336C60.6846 39.3232 61.3443 39.576 61.6239 39.8422C62.1438 40.3378 61.8032 41.1866 61.6445 41.7593C61.4859 42.3321 61.3057 42.8932 60.785 43.2615C60.4388 43.5085 60.0484 43.6868 59.635 43.7868C59.4092 43.8379 59.1806 43.8226 58.952 43.8504C58.7708 43.8847 58.5876 43.9077 58.4035 43.9194C57.9814 43.9194 57.3387 43.6174 57.1612 43.2024C57.0716 42.9864 57.016 42.7623 56.9183 42.5445C56.8439 42.3805 56.7857 42.2057 56.7167 42.0399C56.5867 41.7262 56.4711 41.4223 56.3295 41.7925Z" fill="#7D72B3"/>
</g>
<g style="mix-blend-mode:multiply" opacity="0.4">
<path fill-rule="evenodd" clip-rule="evenodd" d="M61.3838 45.0547C61.2593 45.3878 61.19 45.739 61.1786 46.0944C61.3354 46.1841 61.3901 46.3804 61.5443 46.4709C61.6984 46.5614 61.8705 46.5229 62.039 46.522C62.3456 46.522 62.6413 46.522 62.6933 46.1482C62.7381 45.8184 62.4468 45.5782 62.1995 45.3989C62.0202 45.2698 61.668 44.9687 61.4654 45.2197L61.3838 45.0547Z" fill="#7D72B3"/>
</g>
<g style="mix-blend-mode:multiply" opacity="0.4">
<path fill-rule="evenodd" clip-rule="evenodd" d="M65.6247 50.0271C65.2276 50.3104 64.7992 50.5649 64.42 50.867C63.9387 51.2488 63.5614 51.7355 63.1876 52.2186C62.7233 52.82 62.1766 53.4492 62.2913 54.2586C62.4061 55.0679 62.6758 55.7195 63.288 56.2555C63.9961 56.8757 65.0905 56.8722 65.9151 57.2737C66.6196 57.617 67.0695 58.3268 67.4226 59.0018C67.9604 60.0262 69.0835 60.2082 70.1115 60.4018C70.7793 60.5273 71.4407 60.6232 72.1148 60.7056C73.0209 60.8159 73.9172 60.9897 74.8252 61.0767C76.4896 61.2371 78.1683 61.6207 79.8444 61.4863C81.6227 61.3438 83.2342 60.7101 84.697 59.6937C85.9437 58.8261 87.0578 57.3194 87.3859 55.8271C87.7309 54.2586 87.2156 52.5108 86.4564 51.1421C85.4592 49.3702 84.3157 47.6847 83.0379 46.1031C82.337 45.2221 81.5241 44.4369 80.8079 43.5657C80.1989 42.8187 79.5256 42.1265 78.7958 41.4971C77.1358 40.0693 75.0743 38.8906 72.8434 38.7732C71.9888 38.7247 71.1336 38.8573 70.3338 39.1622C69.6338 39.4311 69.1274 39.8353 68.6075 40.3704C67.2873 41.7292 66.5972 43.4591 66.0253 45.2346C65.7636 46.0485 65.5189 46.969 65.6148 47.8339C65.6444 48.0983 65.7851 48.308 65.7815 48.559C65.7815 48.7929 65.7815 49.0278 65.7815 49.2626C65.7955 49.3833 65.7833 49.5056 65.7457 49.6211C65.6704 49.8075 65.4813 50.0047 65.6247 50.0271Z" fill="#7D72B3"/>
</g>
<g style="mix-blend-mode:multiply" opacity="0.4">
<path fill-rule="evenodd" clip-rule="evenodd" d="M58.6123 56.0604C57.7501 56.5633 56.8654 56.9567 56.2326 57.7634C56.1206 57.9068 55.9539 58.0673 56.0121 58.2609C56.0776 58.4742 56.3178 58.5952 56.5033 58.6723C57.1433 58.9411 57.9257 59.0792 58.6123 58.9411C59.2289 58.8193 60.0401 58.4034 60.3735 57.8432C60.7948 57.136 60.3188 55.9995 59.4261 56.056C59.2926 56.0649 59.1904 56.1295 59.0604 56.1456C58.9547 56.1581 58.8409 56.1375 58.7333 56.1456C58.6453 56.1487 58.5595 56.1733 58.4832 56.2173C58.3757 56.2576 58.2341 56.3804 58.6123 56.0604Z" fill="#7D72B3"/>
</g>
<g style="mix-blend-mode:multiply" opacity="0.4">
<path fill-rule="evenodd" clip-rule="evenodd" d="M40.9208 67.8823C40.5704 68.2005 40.2208 68.4443 40.0191 68.8682C39.8337 69.2502 39.6953 69.6531 39.6069 70.0684C39.528 70.4386 39.4276 70.8338 39.5172 71.2121C39.6015 71.5509 39.761 71.8879 39.8758 72.2195C40.0322 72.6386 40.1606 73.0677 40.2602 73.5039C40.3759 74.0587 40.5811 74.5319 40.8285 75.0419C41.0723 75.5406 41.3447 76.0248 41.6441 76.4921C41.9525 76.9779 42.3101 77.3598 42.708 77.7747C44.1018 79.2268 45.8056 80.7648 47.8842 81.0265C48.9346 81.1583 50.029 80.8885 50.7962 80.1356C51.6352 79.3128 52.1703 78.1279 52.3486 76.9726C52.501 75.9866 52.4006 74.9702 51.8682 74.1152C51.4442 73.4331 50.9809 72.6999 50.4341 72.1093C50.0639 71.7104 49.6373 71.368 49.2349 71.0041C48.8324 70.6402 48.4506 70.2602 48.0132 69.9402C47.246 69.3791 46.5048 68.7885 45.7321 68.2372C45.033 67.7335 44.2784 67.1859 43.4242 66.9824C42.8353 66.8408 42.19 66.7234 41.6083 66.9502C41.3591 67.0479 41.1673 67.1294 41.0409 67.3598C40.9782 67.4718 40.8312 67.6654 40.8222 67.7936C40.8016 67.7909 40.7792 67.7963 40.9208 67.8823Z" fill="#7D72B3"/>
</g>
<g style="mix-blend-mode:multiply" opacity="0.4">
<path fill-rule="evenodd" clip-rule="evenodd" d="M46.3822 66.4955C46.4108 66.7411 46.4386 66.9876 46.4673 67.2332C46.4843 67.3129 46.5023 67.3936 46.5193 67.4734C46.5677 67.5245 46.7523 67.546 46.8169 67.554C47.066 67.5827 47.3358 67.4492 47.5339 67.2968C47.8324 67.0647 47.9668 66.5233 47.6908 66.2472C47.5864 66.1411 47.4565 66.0635 47.3135 66.0221C47.1705 65.9806 47.0192 65.9767 46.8742 66.0106C46.7138 66.0429 46.0335 66.4014 46.3033 66.6586L46.3822 66.4955Z" fill="#7D72B3"/>
</g>
<g style="mix-blend-mode:multiply" opacity="0.4">
<path fill-rule="evenodd" clip-rule="evenodd" d="M87.3114 59.8116C87.4181 59.2639 87.4297 58.9153 87.7658 58.5047C88.0589 58.1462 88.3798 57.8173 88.6621 57.4534C89.1775 56.7848 89.4966 55.996 89.6893 55.1768C89.8596 54.4535 89.6821 53.7499 90.0057 53.0517C90.0827 52.8859 90.1733 52.5704 90.348 52.4906C90.5094 52.4171 90.8347 52.4789 90.9808 52.5659C91.1269 52.6528 91.2802 52.8455 91.4048 52.9558C91.6219 53.1572 91.8284 53.3699 92.0232 53.593C93.0423 54.7027 93.6052 56.3572 93.598 57.8522C93.5926 58.7288 93.4985 59.5409 93.2072 60.3619C93.0984 60.6889 92.9569 61.0042 92.7851 61.303C92.5637 61.6776 92.2894 61.9026 91.9264 62.1348C90.8706 62.8097 89.337 62.5578 88.4551 61.7234C88.1279 61.4141 87.9773 60.9893 87.764 60.6263C87.5964 60.3413 87.4387 60.0822 87.3786 59.7425C87.3553 59.7398 87.3329 59.7345 87.3114 59.8116Z" fill="#7D72B3"/>
</g>
<g style="mix-blend-mode:multiply" opacity="0.4">
<path fill-rule="evenodd" clip-rule="evenodd" d="M87.3103 48.3153C87.4895 48.9122 87.5729 49.562 88.1842 49.8703C88.3253 49.9413 88.4764 49.9902 88.6323 50.0155C88.7865 50.0227 88.9012 49.9349 89.0195 49.8461C89.6612 49.3747 89.2884 48.2929 88.8582 47.8044C88.6036 47.5167 88.3096 47.4225 87.9565 47.3177C87.7952 47.2702 87.8346 47.2567 87.6975 47.3177C87.6039 47.3511 87.5237 47.414 87.4689 47.4969C87.4164 47.599 87.3884 47.712 87.3873 47.8268C87.3764 47.9166 87.3557 48.005 87.3255 48.0903C87.2799 48.276 87.3025 48.4719 87.3891 48.6424L87.3103 48.3153Z" fill="#7D72B3"/>
</g>
<g style="mix-blend-mode:multiply" opacity="0.4">
<path fill-rule="evenodd" clip-rule="evenodd" d="M82.5004 73.1818C82.3427 73.5878 82.219 74.0118 82.0397 74.4079C81.8497 74.8292 81.6597 75.2549 81.4805 75.6816C81.0099 76.8073 80.7464 77.9761 80.4425 79.152C80.1284 80.3903 79.9103 81.6509 79.79 82.9227C79.7246 83.577 79.6233 84.2071 79.6413 84.8686C79.6547 85.3374 79.652 85.911 79.8205 86.3583C79.9236 86.6361 80.1844 87.0601 80.4748 87.1855C80.8539 87.3487 81.3335 87.0314 81.6525 86.8736C82.9002 86.2561 83.9596 85.3177 84.95 84.3514C85.9252 83.4005 86.9165 82.4988 87.7285 81.3937C88.096 80.8899 88.5047 80.3934 88.8131 79.8502C89.0703 79.3967 89.246 78.902 89.4808 78.4368C89.7004 78.0012 89.8599 77.5405 90.067 77.0986C90.3241 76.5626 90.544 76.0095 90.7249 75.4431C91.0592 74.3586 91.3523 73.2517 90.9749 72.1268C90.8184 71.657 90.5428 71.2357 90.1751 70.904C89.8074 70.5723 89.3601 70.3414 88.8767 70.2339C88.3434 70.1191 87.7438 69.965 87.1952 70.0035C86.6406 70.0532 86.0967 70.1864 85.5819 70.3988C85.1401 70.5759 84.7141 70.79 84.3083 71.0387C84.0842 71.1786 83.9327 71.3731 83.7552 71.564C83.4484 71.8832 83.174 72.2321 82.936 72.6055C82.8295 72.773 82.7063 72.9295 82.5686 73.0724C82.3606 73.3019 82.2737 73.6416 82.5004 73.1818Z" fill="#7D72B3"/>
</g>
<g style="mix-blend-mode:multiply" opacity="0.4">
<path fill-rule="evenodd" clip-rule="evenodd" d="M77.6904 87.2902C77.0432 87.534 76.5055 87.7697 75.9534 88.1793C75.2919 88.6705 74.6761 89.1742 74.2029 89.8518C74.0299 90.1001 73.6839 90.5258 73.943 90.8189C74.1688 91.0734 74.5336 91.051 74.8392 91.0448C75.2868 91.0395 75.7295 90.9504 76.1443 90.7822C76.5288 90.6208 76.8765 90.4093 77.2736 90.2722C77.6545 90.1413 78.1699 89.8885 78.4298 89.5605C78.5759 89.3741 78.6611 89.1177 78.7955 88.9178C78.8486 88.849 78.8867 88.7698 78.9075 88.6854C78.9283 88.601 78.9314 88.5132 78.9165 88.4276C78.8775 88.1585 78.7564 87.9081 78.5696 87.7105C78.411 87.5653 78.1081 87.4201 77.8956 87.447C77.7724 87.4635 77.6519 87.496 77.5371 87.5438C77.2772 87.655 77.0674 87.9749 77.6904 87.2902Z" fill="#7D72B3"/>
</g>
<g style="mix-blend-mode:multiply" opacity="0.4">
<path fill-rule="evenodd" clip-rule="evenodd" d="M76.8764 83.5363C76.7438 83.0496 76.5941 82.666 76.6371 82.1775C76.6747 81.7356 76.6694 81.3619 76.9015 80.9621C76.9992 80.7936 77.2824 80.2612 77.4725 80.194C77.5791 80.1758 77.6878 80.1737 77.7951 80.1877C78.125 80.2307 78.323 80.6359 78.3912 80.9334C78.496 81.3905 78.4234 81.9283 78.427 82.3962C78.4365 82.7529 78.3734 83.1079 78.2415 83.4395C78.1303 83.7155 77.9099 83.7084 77.6302 83.7003C77.3506 83.6922 77.2421 83.6107 77.0395 83.452C76.9651 83.3938 76.8603 83.3723 76.7886 83.314C76.698 83.2342 76.7285 83.1249 76.8764 83.5363Z" fill="#7D72B3"/>
</g>
<g style="mix-blend-mode:multiply" opacity="0.4">
<path fill-rule="evenodd" clip-rule="evenodd" d="M76.3043 64.2128C76.2477 64.55 76.224 64.8919 76.2335 65.2337C76.3572 65.2337 76.4863 65.4622 76.6467 65.5025C76.8726 65.559 77.1074 65.4192 77.2822 65.2785C77.6676 64.971 77.7734 64.3876 77.6873 63.9269C77.6013 63.4662 77.0832 63.4303 76.7104 63.4787C76.5619 63.4963 76.4206 63.5519 76.2998 63.64C76.0731 63.8408 76.0534 64.0837 76.0596 64.3777L76.3043 64.2128Z" fill="#7D72B3"/>
</g>
<g style="mix-blend-mode:multiply" opacity="0.4">
<path fill-rule="evenodd" clip-rule="evenodd" d="M47.1163 85.2484C47.3242 84.8899 47.5044 84.4973 47.7715 84.1792C48.0769 83.8076 48.4062 83.4564 48.7574 83.1278C49.1859 82.737 49.6824 82.3767 50.1413 82.0218C50.567 81.6919 51.0027 81.3711 51.4589 81.0851C52.2557 80.5859 53.0776 80.257 53.9613 79.9513C54.6749 79.6917 55.4454 79.6297 56.1913 79.7721C56.9612 79.9298 57.7087 80.3636 58.2752 80.8987C58.8184 81.4132 59.3893 82.0379 59.7236 82.7146C60.4075 84.0967 60.1431 85.5953 59.6752 86.9989C59.4664 87.6263 59.0308 88.3756 58.5056 88.7825C58.2028 89.0095 57.8541 89.1677 57.4838 89.2459C57.0688 89.3356 56.5973 89.4807 56.1779 89.5345C54.3351 89.7676 52.4457 89.634 50.6952 88.9896C50.0024 88.735 49.323 88.4222 48.6588 88.0996C48.1394 87.8619 47.6865 87.4999 47.3404 87.0455C47.0804 86.6951 46.8582 86.2783 46.8716 85.8328C46.8779 85.6329 46.9451 85.4537 46.9702 85.2601C47.0536 85.2583 47.1262 85.2045 47.1163 85.2484Z" fill="#7D72B3"/>
</g>
<g style="mix-blend-mode:multiply" opacity="0.4">
<path fill-rule="evenodd" clip-rule="evenodd" d="M60.9776 86.0629C60.8493 86.3968 60.7669 86.7466 60.7329 87.1026C60.8575 87.1743 60.8503 87.3796 60.9435 87.4934C60.9871 87.5532 61.0436 87.6025 61.1087 87.6375C61.1739 87.6726 61.2461 87.6926 61.32 87.696C61.4931 87.7099 61.6672 87.7072 61.8398 87.6879C62.0926 87.6485 62.1482 87.5553 62.279 87.3688C62.426 87.16 62.4645 87.0695 62.4466 86.7925C62.4401 86.5966 62.378 86.4067 62.2674 86.2449C62.1795 86.123 62.0765 86.0127 61.9608 85.9168C61.7197 85.743 61.5387 85.8415 61.3074 85.9823L60.9776 86.0629Z" fill="#7D72B3"/>
</g>
<g style="mix-blend-mode:multiply" opacity="0.4">
<path fill-rule="evenodd" clip-rule="evenodd" d="M91.1425 70.1658C90.8647 69.9498 90.6287 69.6849 90.446 69.3842C90.4717 69.2624 90.4668 69.1362 90.4317 69.0167C90.386 68.703 90.3277 68.4476 90.3923 68.1294C90.4733 67.7658 90.6664 67.4369 90.9445 67.189C91.2226 66.9412 91.5715 66.787 91.942 66.7482C92.4367 66.6917 93.1564 67.0924 93.4173 67.4939C93.6942 67.9197 93.8072 68.4924 93.8296 68.9889C93.8484 69.4012 93.7561 69.8924 93.5069 70.2357C93.3339 70.475 92.9844 70.484 92.7101 70.4929C92.3924 70.502 92.0758 70.4537 91.7752 70.3504C91.5476 70.2742 91.2948 70.1084 91.1425 70.1658Z" fill="#7D72B3"/>
</g>
</g>
<path style="mix-blend-mode:screen" fill-rule="evenodd" clip-rule="evenodd" d="M46.8885 88.3453C43.7084 85.6836 41.1009 82.405 39.2233 78.7074C38.0259 76.3463 37.1432 73.8382 36.5981 71.2475C36.5932 71.2395 36.5913 71.23 36.5927 71.2206C36.1595 69.1447 35.9408 67.0296 35.9402 64.9089C35.9406 56.799 39.1625 49.0214 44.8971 43.2868C50.6317 37.5523 58.4093 34.3304 66.5192 34.3299C67.1869 34.3299 67.8448 34.3515 68.5027 34.3936C70.5403 34.5253 72.5596 34.861 74.5303 35.3956C72.0916 34.5986 69.5619 34.1131 67.0014 33.9508C66.3444 33.9078 65.6865 33.8872 65.0179 33.8872C61.0023 33.8858 57.0258 34.6757 53.3156 36.2117C49.6055 37.7478 46.2344 39.9999 43.395 42.8394C40.5556 45.6789 38.3035 49.0501 36.7676 52.7603C35.2316 56.4705 34.4418 60.447 34.4434 64.4626C34.4437 66.5832 34.662 68.6983 35.095 70.7743C35.0936 70.7836 35.0955 70.7931 35.1004 70.8012C35.6456 73.3928 36.5285 75.9018 37.7265 78.2638C39.668 82.0874 42.3893 85.4618 45.7149 88.1692C49.0405 90.8767 52.8966 92.8572 57.0345 93.983C53.3228 92.7706 49.8784 90.8567 46.8885 88.3453Z" fill="url(#paint5_radial_402_732)"/>
<g style="mix-blend-mode:multiply" opacity="0.4">
<path fill-rule="evenodd" clip-rule="evenodd" d="M37.9901 61.1727C37.9901 61.1727 55.1093 68.1575 64.403 67.5991C73.6967 67.0408 77.6494 61.7176 81.3583 56.857C85.0672 51.9964 86.46 46.1508 86.46 46.1508C86.46 46.1508 79.4223 59.7297 70.6852 63.3256L65.6659 64.342C65.6659 64.342 68.2831 62.389 70.1106 60.4055C71.9382 58.422 78.984 55.5359 79.6392 53.2181C80.2944 50.9002 80.2191 47.0901 81.3592 44.6539C82.4993 42.2178 83.6367 40.2056 83.6367 40.2056L80.6152 39.6831L79.1964 43.0137C79.1964 43.0137 78.7985 48.5546 77.7139 51.559C76.6294 54.5634 66.0298 62.7887 63.6403 64.1663C61.2507 65.5439 40.1439 62.6355 37.9901 61.1727Z" fill="#7D72B3"/>
</g>
<g style="mix-blend-mode:soft-light">
<g style="mix-blend-mode:multiply" opacity="0.4">
<path fill-rule="evenodd" clip-rule="evenodd" d="M68.5357 90.4559C68.6002 90.4317 69.7009 89.9307 70.0244 89.954C70.1589 89.9638 70.2996 90.0732 70.4009 90.1332C70.6958 90.2982 70.8858 90.5438 70.849 90.887C70.8015 91.3782 70.2647 92.02 69.6758 92.2315C68.9462 92.5004 68.1772 92.1616 67.9182 91.6803C67.6591 91.1989 68.3224 90.2955 69.0555 90.2793L68.5357 90.4559Z" fill="#7D72B3"/>
</g>
<path fill-rule="evenodd" clip-rule="evenodd" d="M54.2083 60.0298C53.805 60.719 52.7931 61.9819 53.0987 62.9687C53.2305 63.3909 53.5307 63.8301 53.7198 64.2289C54.237 65.3233 55.2785 66.4222 56.5736 65.6307C58.0265 64.7425 57.3956 63.1211 56.7807 61.9425C56.5521 61.5033 56.2169 60.9619 55.7607 60.7146C55.4663 60.5653 55.1539 60.4544 54.8312 60.3847C54.3472 60.2888 54.6905 59.9778 54.2083 60.0262V60.0298Z" fill="#FF9F84"/>
<path fill-rule="evenodd" clip-rule="evenodd" d="M63.9918 37.5264C63.9347 37.8793 63.9244 38.2383 63.9613 38.5939C64.0751 38.5715 64.1594 38.6754 64.2777 38.6736C64.433 38.6549 64.5814 38.5982 64.7097 38.5087C64.9365 38.3537 65.053 38.0337 65.0521 37.7711C65.0512 37.5085 65.0252 37.2656 64.7671 37.115C64.4588 36.9357 64.1513 37.0639 63.9918 37.3633V37.5264Z" fill="#FFEF84"/>
<path fill-rule="evenodd" clip-rule="evenodd" d="M57.5517 70.791C57.6099 70.5651 57.6986 69.9502 57.8842 69.6805C58.0366 69.4573 58.3189 69.3318 58.5636 69.2511C59.1014 69.0719 59.6517 69.0961 60.0792 69.4815C60.8285 70.1573 60.8025 71.1665 60.0864 71.8585C59.7619 72.1731 59.3156 72.4912 58.8495 72.5101C58.62 72.519 58.318 72.5459 58.1208 72.4294C57.8774 72.2788 57.6958 72.0461 57.609 71.7733C57.4764 71.3386 57.5588 71.0088 57.7963 70.6278L57.5517 70.791Z" fill="#FF9F84"/>
<path fill-rule="evenodd" clip-rule="evenodd" d="M51.9257 70.4637C51.9257 70.8043 51.7277 71.6046 52.2179 71.7624C52.4545 71.8395 52.7055 71.524 52.744 71.3232C52.7827 71.0898 52.7611 70.8504 52.6813 70.6277C52.5612 70.3525 52.3228 70.1607 52.0889 70.4637H51.9257Z" fill="#FF9F84"/>
<path fill-rule="evenodd" clip-rule="evenodd" d="M38.8801 64.5112C38.9223 65.049 38.9196 65.8378 39.2467 66.3334C39.383 66.5396 39.5156 66.752 39.7773 66.7977C40.0059 66.838 40.1358 66.7009 40.2667 66.5288C40.4961 66.2294 40.5275 66.0242 40.5141 65.6486C40.4941 65.2994 40.4026 64.958 40.2452 64.6457C40.1358 64.4279 39.9485 64.2674 39.7746 64.0972C39.6187 63.9448 39.5057 63.9107 39.2835 63.934C38.9877 63.9654 39.0074 64.3212 38.959 64.5883L38.8801 64.5112Z" fill="#FF9F84"/>
<path fill-rule="evenodd" clip-rule="evenodd" d="M84.2114 61.9859C84.2195 61.9357 84.2804 61.0305 84.448 60.827C84.5188 60.7374 84.682 60.6845 84.7788 60.637C85.0629 60.4972 85.3703 60.4577 85.6625 60.5949C86.0811 60.7938 86.4091 61.3693 86.3294 61.8326C86.2308 62.4081 85.5765 62.8042 85.0253 62.8114C84.4741 62.8186 83.9703 62.0702 84.293 61.5781L84.2114 61.9859Z" fill="#FF9F84"/>
<path fill-rule="evenodd" clip-rule="evenodd" d="M52.7726 69.2456C52.7726 69.2205 52.8067 68.7679 52.8909 68.6666C52.9395 68.6249 52.9954 68.5927 53.0558 68.5716C53.1227 68.5338 53.1975 68.5122 53.2742 68.5085C53.3509 68.5047 53.4275 68.519 53.4977 68.5501C53.6081 68.609 53.6986 68.6992 53.7579 68.8094C53.8172 68.9196 53.8427 69.0448 53.8311 69.1694C53.7818 69.4562 53.4547 69.6543 53.1795 69.6579C52.9044 69.6615 52.6516 69.2877 52.8129 69.0421L52.7726 69.2456Z" fill="#FF9F84"/>
<path fill-rule="evenodd" clip-rule="evenodd" d="M66.701 74.8339C66.701 74.8079 66.7351 74.3562 66.8194 74.254C66.8681 74.2126 66.924 74.1804 66.9843 74.159C67.0512 74.1214 67.126 74.0999 67.2027 74.0962C67.2794 74.0925 67.3559 74.1066 67.4262 74.1375C67.5365 74.1964 67.6271 74.2866 67.6864 74.3968C67.7457 74.507 67.7711 74.6322 67.7596 74.7568C67.7103 75.0445 67.3831 75.2426 67.108 75.2462C66.8328 75.2498 66.5801 74.876 66.7414 74.6295L66.701 74.8339Z" fill="#FF9F84"/>
<path fill-rule="evenodd" clip-rule="evenodd" d="M76.0993 50.1792C76.0993 50.1541 76.1342 49.7015 76.2176 49.6002C76.2663 49.5583 76.3226 49.526 76.3834 49.5052C76.4502 49.4674 76.525 49.4457 76.6018 49.442C76.6785 49.4382 76.755 49.4525 76.8253 49.4837C76.9354 49.5428 77.0257 49.6331 77.0848 49.7433C77.1439 49.8534 77.1693 49.9785 77.1578 50.103C77.1085 50.3898 76.7813 50.5879 76.5062 50.5915C76.231 50.5951 75.9792 50.2213 76.1405 49.9757L76.0993 50.1792Z" fill="#FF9F84"/>
<path fill-rule="evenodd" clip-rule="evenodd" d="M56.9332 85.9573C56.9332 85.9322 56.9673 85.4796 57.0516 85.3774C57.1009 85.3377 57.1571 85.3073 57.2174 85.2878C57.2842 85.2499 57.359 85.2283 57.4358 85.2246C57.5125 85.2208 57.589 85.2351 57.6592 85.2663C57.7694 85.3254 57.8597 85.4157 57.9188 85.5259C57.9779 85.636 58.0033 85.7611 57.9918 85.8856C57.9425 86.1724 57.6153 86.3705 57.3402 86.3741C57.065 86.3777 56.8122 86.0039 56.9745 85.7583L56.9332 85.9573Z" fill="#FF9F84"/>
<path fill-rule="evenodd" clip-rule="evenodd" d="M82.1728 69.6496C81.7086 69.94 81.4226 70.069 81.1457 70.4948C80.9395 70.8121 80.7146 71.1052 80.5532 71.4511C80.4251 71.7245 80.2682 72.1359 80.2924 72.4433C80.3552 73.25 81.3527 72.5401 81.6369 72.2964C82.0232 71.9683 82.3888 71.5219 82.4184 71.0012C82.4292 70.7968 82.4355 70.5683 82.3557 70.3738C82.3207 70.2913 82.2777 70.1945 82.2356 70.1139C82.1442 69.9409 82.0626 69.9373 82.1728 69.6496Z" fill="#FF9F84"/>
<path fill-rule="evenodd" clip-rule="evenodd" d="M91.9578 73.1538C91.9937 72.7998 91.8144 74.0788 91.887 74.1344C92.0064 74.1435 92.1262 74.1435 92.2456 74.1344C92.4042 74.1102 92.4472 74.0304 92.5718 73.9345C92.8264 73.7382 93.011 73.6235 93.02 73.2748C93.028 72.9862 92.9769 72.8114 92.6928 72.7245C92.5691 72.6868 92.5091 72.6349 92.3737 72.6761C92.0977 72.755 91.9059 72.9871 91.7965 73.2336L91.9578 73.1538Z" fill="#FF9F84"/>
<path fill-rule="evenodd" clip-rule="evenodd" d="M65.971 37.6934C65.9952 37.4532 65.8742 38.3208 65.9235 38.3575C66.0038 38.3634 66.0844 38.3634 66.1646 38.3575C66.2722 38.3414 66.3009 38.2867 66.3851 38.2222C66.5572 38.0895 66.6827 38.0116 66.6899 37.7741C66.6952 37.5787 66.6603 37.4603 66.4685 37.4021C66.3842 37.3761 66.3439 37.342 66.2516 37.3689C66.1629 37.3997 66.0821 37.4494 66.0146 37.5145C65.9471 37.5797 65.8946 37.6588 65.8608 37.7463L65.971 37.6934Z" fill="#FFEF84"/>
<path fill-rule="evenodd" clip-rule="evenodd" d="M82.538 62.6424C82.5622 62.4022 82.4412 63.2698 82.4905 63.3066C82.5707 63.3133 82.6513 63.3133 82.7316 63.3066C82.8391 63.2904 82.8678 63.2366 82.9521 63.1712C83.1241 63.0386 83.2496 62.9615 83.2568 62.7231C83.2622 62.5268 83.2272 62.4085 83.0354 62.3502C82.9512 62.3242 82.9108 62.2911 82.8185 62.317C82.7298 62.348 82.6489 62.3978 82.5815 62.4631C82.514 62.5284 82.4615 62.6077 82.4277 62.6953L82.538 62.6424Z" fill="#FFEF84"/>
<path fill-rule="evenodd" clip-rule="evenodd" d="M65.069 86.4452C65.3101 86.4452 64.4353 86.4138 64.403 86.4667C64.4052 86.5473 64.4133 86.6276 64.4272 86.7069C64.4541 86.8118 64.5115 86.8351 64.585 86.9122C64.7346 87.0699 64.8243 87.1865 65.0609 87.1685C65.2554 87.1542 65.3701 87.1067 65.4078 86.9095C65.4248 86.8199 65.4544 86.7795 65.4185 86.6908C65.3788 86.6058 65.321 86.5305 65.2492 86.4701C65.1773 86.4098 65.0932 86.3658 65.0026 86.3412L65.069 86.4452Z" fill="#FFEF84"/>
<path fill-rule="evenodd" clip-rule="evenodd" d="M51.1672 60.2125C51.1914 59.9723 51.0704 60.8399 51.1197 60.8766C51.1999 60.8834 51.2806 60.8834 51.3608 60.8766C51.4683 60.8605 51.497 60.8067 51.5813 60.7413C51.7534 60.6086 51.8789 60.5307 51.886 60.2931C51.8914 60.0977 51.8564 59.9794 51.6637 59.9212C51.5795 59.8952 51.54 59.8611 51.4477 59.888C51.359 59.9188 51.278 59.9686 51.2105 60.034C51.143 60.0993 51.0906 60.1786 51.0569 60.2663L51.1672 60.2125Z" fill="#FFEF84"/>
<path fill-rule="evenodd" clip-rule="evenodd" d="M64.6016 83.8521C64.6375 83.4935 64.4582 84.777 64.5308 84.8326C64.6502 84.8417 64.77 84.8417 64.8894 84.8326C65.048 84.8084 65.091 84.7286 65.2156 84.6327C65.4693 84.4365 65.6548 84.3217 65.6638 83.9722C65.6718 83.6836 65.6198 83.5088 65.3366 83.4227C65.212 83.3851 65.1529 83.3331 65.0166 83.3743C64.7406 83.4532 64.5497 83.6854 64.4403 83.9318L64.6016 83.8521Z" fill="#FF9F84"/>
</g>
<path fill-rule="evenodd" clip-rule="evenodd" d="M47.5234 63.719C57.4293 65.2858 56.8181 67.9003 68.3175 64.7686C79.817 61.6369 88.0469 44.3429 88.0469 44.3429C88.0469 44.3429 88.6214 43.063 88.1365 42.3101C87.9429 42.0098 86.4335 42.6328 86.4335 42.6328C86.6934 48.1835 78.9261 59.6454 70.1523 62.9464C69.2156 63.2987 68.2701 63.4206 67.3899 63.6196C66.9767 63.4116 65.9558 62.475 70.7635 59.2187C76.4102 55.388 78.9575 53.9584 78.4341 49.9761C77.9106 45.9939 82.938 39.6839 82.938 39.6839C82.938 39.6839 83.3019 38.0052 82.3518 36.9592C81.1283 35.6147 78.4341 36.9807 78.4341 36.9807C78.4341 36.9807 77.7349 44.7875 67.8291 49.0063C57.9232 53.2252 52.419 51.1305 48.6286 49.9761C44.8382 48.8217 43.7079 42.544 43.7079 42.544C43.7079 42.544 40.4983 41.8781 39.334 43.9243C38.478 45.4283 39.7194 47.2971 39.7194 47.2971C39.7194 47.2971 45.6932 49.4625 51.0746 51.5267C56.456 53.5909 66.7284 51.7418 70.397 49.9761C74.0655 48.2104 74.0655 45.3916 77.0009 42.8264C78.0423 41.9176 79.2049 41.1577 80.4552 40.5686C80.4552 40.5686 77.2456 45.5197 77.6121 49.0063C77.9787 52.4929 75.7783 52.3683 70.397 58.4838C66.6209 62.7752 63.3252 64.1304 61.6912 64.5651C57.5467 64.9407 53.7841 64.4755 48.6286 63.0773C40.3118 60.8213 35.3186 57.2057 35.3186 57.2057C35.3186 57.2057 34.5944 56.8615 34.3201 57.6538C34.2027 57.9908 34.9475 58.9373 34.9475 58.9373C34.9475 58.9373 37.6167 62.1487 47.5234 63.719Z" fill="url(#paint6_linear_402_732)"/>
<path fill-rule="evenodd" clip-rule="evenodd" d="M54.486 93.022C54.486 93.022 52.048 91.4983 50.2133 86.7927C48.3786 82.0871 48.6242 82.391 45.1994 79.4233C41.7747 76.4557 35.8188 73.5392 35.8188 73.5392C35.8188 73.5392 35.4164 73.6772 35.4155 73.7973C35.4155 74.4086 36.1226 74.4785 36.1226 74.4785C36.1226 74.4785 41.6797 76.8617 45.1528 80.6952C48.626 84.5287 52.3752 91.3307 49.7042 90.9255C49.7042 90.9255 50.3056 92.6285 51.7119 93.022C53.1182 93.4154 54.486 93.022 54.486 93.022Z" fill="url(#paint7_radial_402_732)"/>
<path d="M78.8311 70.2391C79.9667 69.0255 81.3407 67.3925 86.9049 67.3602C92.4691 67.328 95.3301 68.5541 95.3301 68.5541C95.3301 68.5541 96.4747 68.2323 96.5975 66.7436C96.6327 66.3183 96.5591 65.891 96.3837 65.502C96.2082 65.113 95.9366 64.775 95.5945 64.5199C95.5372 64.985 94.9752 68.0441 90.2508 66.2309C90.2508 66.1852 91.9224 64.6686 92.2836 61.5836C92.652 58.4528 93.7679 54.0126 93.7679 54.0126C93.7679 54.0126 94.4266 52.9146 93.9982 52.0282C93.8575 51.7369 92.7739 51.6042 92.7739 51.6042C93.7105 57.846 91.3479 65.366 88.7791 66.2309C85.6618 66.2694 81.8597 66.8117 80.1361 67.9473C78.019 69.3482 75.8957 75.6797 74.5342 80.1369C74.1918 81.2412 73.4945 82.4413 72.6036 83.6424C69.1977 84.4616 70.2732 80.3763 68.8024 79.1178C67.3316 77.8594 64.5226 78.5362 62.6897 77.863C60.8567 77.1899 60.3664 75.7334 58.4107 75.5013C56.455 75.2692 53.3691 78.9072 49.852 77.405C46.3349 75.9028 34.5549 61.9529 34.5549 61.9529C34.5549 61.9529 33.4919 61.6974 33.2786 62.4315C33.1136 62.9953 34.4438 64.4706 34.4438 64.4706C34.4438 64.4706 42.635 76.8305 50.4579 78.4376C58.2808 80.0446 65.3803 78.5406 67.8263 80.6649C70.2723 82.7891 70.4471 86.1636 70.4471 86.1896C67.9043 88.8875 64.9161 91.2089 63.5026 91.9259C61.0557 93.1583 57.0349 93.9973 57.0349 93.9973C57.5835 94.6301 58.6868 95.1383 59.8771 95.4556C61.5917 95.9145 62.6888 95.0495 62.6888 95.0495C62.6888 95.0495 61.6948 94.1846 62.9926 93.1001C66.2973 90.3511 68.6393 89.1501 72.0676 88.3372C74.1452 87.846 74.7655 88.7853 75.0621 88.4851V88.4922C78.2574 89.505 80.7877 87.111 83.5366 84.907C86.2856 82.703 89.8044 82.3893 89.8044 82.3893C89.8044 82.3893 91.6284 82.0828 92.1017 81.277C92.5328 80.543 91.5146 79.7435 91.5146 79.7435C91.5146 79.7435 89.9595 80.3825 87.0331 81.8668C84.1067 83.3511 80.9535 87.6694 77.371 87.5341C75.3991 87.4633 75.8088 85.4618 75.6214 85.1777C75.6214 85.0361 75.6286 84.8936 75.6214 84.752V84.7457C75.5641 83.2937 75.2629 81.977 75.2629 80.9248C75.2593 80.6711 75.283 80.4178 75.3337 80.1692C75.6519 78.6043 77.6946 71.4527 78.8311 70.2391ZM72.5955 83.6513C71.9399 84.5251 71.233 85.3593 70.4785 86.1493L72.5955 83.6513ZM75.3391 85.8132C75.3839 86.1493 75.4484 86.4782 75.3974 86.8144C75.3776 86.9882 75.3454 87.1307 75.1778 87.1881C75.081 87.2204 74.9707 87.2338 74.8739 87.2598C74.7237 87.3076 74.5708 87.3462 74.4159 87.3754C74.1689 87.3937 73.921 87.3957 73.6738 87.3817C73.4092 87.3958 73.144 87.3937 72.8797 87.3754C72.7569 87.3566 72.6341 87.3306 72.5122 87.3109C72.3903 87.2912 72.2209 87.2849 72.1115 87.2213C71.8471 87.0734 71.6921 86.7955 71.4922 86.731C71.511 86.4989 71.4985 86.2918 71.5953 86.0857C71.6213 86.0086 71.6473 85.9306 71.6661 85.8535C71.7111 85.7219 71.7628 85.5926 71.8211 85.4663C71.9507 85.1375 72.115 84.8235 72.3114 84.5297C72.4082 84.3818 72.505 84.233 72.5955 84.0815C72.7135 83.9219 72.8477 83.775 72.9962 83.6433C73.19 83.4324 73.4138 83.2512 73.6603 83.1055C73.8611 82.9952 74.1838 82.8411 74.4096 82.9262C74.6355 83.0114 74.7386 83.3071 74.8291 83.5142C74.8826 83.668 74.9257 83.8252 74.9582 83.9847C75.0093 84.1855 75.0998 84.3657 75.1455 84.5727C75.1966 84.7986 75.1966 85.0307 75.2423 85.2566C75.2808 85.4394 75.3068 85.6268 75.3391 85.8132Z" fill="url(#paint8_linear_402_732)"/>
<path fill-rule="evenodd" clip-rule="evenodd" d="M40.5158 43.2534C40.5158 43.2534 41.8961 46.0902 45.4454 48.6464C45.4454 48.6464 44.2686 44.5315 43.4198 42.8205C43.418 42.8223 42.2546 41.7252 40.5158 43.2534Z" fill="#FFFF0E"/>
<path fill-rule="evenodd" clip-rule="evenodd" d="M59.114 51.9074C59.114 51.9074 61.5268 50.9358 62.2753 51.2988C62.2753 51.2988 59.9655 51.9379 59.114 51.9074Z" fill="#FFFF0E"/>
<path fill-rule="evenodd" clip-rule="evenodd" d="M67.1812 49.675C67.615 49.5352 68.0569 49.4061 68.4817 49.2403C68.855 49.0932 69.2179 48.921 69.568 48.7249C70.0168 48.4796 70.4462 48.2004 70.8524 47.8896C70.9573 47.8089 71.0774 47.7569 71.1849 47.6825C71.3113 47.5929 71.4341 47.4952 71.5569 47.4038C71.6654 47.3222 71.7523 47.2093 71.8563 47.1206C71.9602 47.0318 72.066 46.9413 72.1745 46.8606C72.3582 46.719 72.5482 46.5631 72.7167 46.4035C72.7983 46.3255 72.8763 46.244 72.9623 46.1714C73.0168 46.132 73.0773 46.1017 73.1416 46.0818C73.1676 46.1373 73.1003 46.2691 73.0779 46.3229C73.0212 46.4316 72.9571 46.5365 72.8861 46.6366C72.7418 46.883 72.5052 47.0399 72.3295 47.264C72.2042 47.4078 72.0579 47.532 71.8957 47.6323C71.6685 47.7785 71.433 47.9114 71.1903 48.0303C70.951 48.1549 70.6965 48.2302 70.4625 48.3664C70.2286 48.5027 70.0144 48.5959 69.7885 48.7016C69.638 48.7807 69.492 48.8681 69.3511 48.9634L68.9837 49.1829C68.8044 49.2923 68.6251 49.3981 68.4351 49.4993C68.3347 49.5522 68.2325 49.5952 68.133 49.6499C67.9068 49.7822 67.6511 49.8559 67.3891 49.8641C67.2984 49.8737 67.2066 49.8633 67.1202 49.8337C67.0835 49.8166 67.0073 49.7951 67.0037 49.7485C67.0647 49.7369 67.1193 49.6571 67.1812 49.675Z" fill="#FFFF0E"/>
<path fill-rule="evenodd" clip-rule="evenodd" d="M73.6937 45.4842C73.5822 45.5401 73.4827 45.6172 73.4006 45.7112C73.4006 45.7782 73.3631 45.8551 73.4802 45.8515C73.5378 45.8453 73.5935 45.827 73.6437 45.7979C73.6939 45.7688 73.7374 45.7295 73.7715 45.6826C73.8108 45.6379 73.8939 45.5039 73.8448 45.4404C73.7849 45.36 73.6205 45.4708 73.5722 45.5146L73.6937 45.4842Z" fill="#FFFF0E"/>
<path fill-rule="evenodd" clip-rule="evenodd" d="M78.8603 37.1695C78.7519 37.2908 78.6594 37.4254 78.5851 37.5701C78.5421 37.6795 78.5036 37.7924 78.4615 37.9027C78.3799 38.1196 78.3333 38.3436 78.2643 38.5632C78.1388 38.9648 78.042 39.3699 77.8815 39.7634C77.8098 39.9426 77.722 40.1094 77.6369 40.2805C77.592 40.3702 77.523 40.4553 77.4827 40.5494C77.4424 40.6435 77.3985 40.7018 77.3608 40.7834C77.3364 40.8618 77.3039 40.9375 77.264 41.0092C77.2096 41.0898 77.1608 41.1739 77.1179 41.2611C77.0776 41.3328 76.9207 41.5094 76.9682 41.6017C77.0166 41.6098 77.0623 41.5363 77.091 41.5121C77.1807 41.4224 77.2792 41.3507 77.3707 41.2647C77.541 41.1042 77.6906 40.9223 77.8529 40.7529C77.9228 40.6794 77.9703 40.5925 78.0321 40.5145C78.1218 40.4015 78.2293 40.311 78.3163 40.1945C78.457 40.0063 78.612 39.8261 78.7644 39.6504C78.8433 39.5608 78.898 39.4586 78.975 39.3681C79.0521 39.2776 79.1256 39.2122 79.1991 39.1324C79.4295 38.8787 79.6733 38.6358 79.8955 38.375C80.074 38.1652 80.2398 37.9449 80.3921 37.7153C80.5131 37.5361 80.6206 37.3568 80.73 37.1641C80.7748 37.0888 80.8725 36.9069 80.8384 36.8137C80.7945 36.6954 80.6592 36.647 80.5436 36.6344C80.3585 36.6055 80.1698 36.6095 79.986 36.6461C79.8044 36.6947 79.6269 36.758 79.4554 36.8352C79.2968 36.9015 79.1677 37.0144 79.0154 37.0942C78.9105 37.1399 78.7868 37.1883 78.8603 37.1695Z" fill="#FFFF0E"/>
<path fill-rule="evenodd" clip-rule="evenodd" d="M80.4507 40.8382C80.3978 40.9706 80.3346 41.0986 80.2615 41.2209C80.1925 41.3169 80.128 41.4056 80.0679 41.5078C79.964 41.687 79.8645 41.8663 79.7614 42.0455C79.5741 42.37 79.3392 42.6729 79.1958 43.0189C79.1394 43.1561 79.0802 43.2878 79.0166 43.4223C78.9558 43.5644 78.9049 43.7105 78.8642 43.8596C78.8232 44.0035 78.7903 44.1495 78.7656 44.297C78.7387 44.4162 78.6831 44.5292 78.7172 44.6556C78.8346 44.5041 78.9171 44.3347 79.0246 44.176C79.0896 44.06 79.1691 43.9528 79.2613 43.857C79.3587 43.7648 79.4506 43.6669 79.5364 43.5639C79.629 43.4657 79.7116 43.3585 79.7829 43.2439C79.8457 43.1363 79.8842 43.0243 79.9577 42.9221C80.0312 42.8199 80.0742 42.716 80.137 42.6165C80.2161 42.5023 80.2822 42.3796 80.3341 42.2508C80.4238 42.0007 80.5134 41.7363 80.5788 41.48C80.6149 41.3469 80.6253 41.2082 80.6093 41.0713C80.5869 40.9691 80.43 40.6939 80.4507 40.8382Z" fill="#FFFF0E"/>
<path fill-rule="evenodd" clip-rule="evenodd" d="M78.3396 45.028C78.2921 45.1902 78.2294 45.373 78.1926 45.5415C78.1836 45.5837 78.1693 45.6724 78.2034 45.6993C78.2374 45.7262 78.3351 45.6885 78.3638 45.6617C78.3946 45.6278 78.42 45.5894 78.4391 45.5478C78.503 45.4587 78.5331 45.3497 78.5242 45.2404C78.4991 45.131 78.3978 45.0369 78.3091 45.1508L78.3396 45.028Z" fill="#FFFF0E"/>
<path fill-rule="evenodd" clip-rule="evenodd" d="M75.1302 53.8931C74.786 54.2238 74.3871 54.5151 74.1066 54.905C74.0797 54.9426 73.9381 55.1048 73.973 55.1739C74.008 55.2429 74.172 55.199 74.224 55.1819C74.4258 55.1057 74.6223 55.0158 74.812 54.913C74.954 54.8364 75.0919 54.7523 75.2252 54.6612C75.5353 54.4514 75.8126 54.1968 76.048 53.9056C76.1598 53.7853 76.2507 53.6472 76.3169 53.4969C76.333 53.4548 76.3975 53.3338 76.3823 53.2836C76.3321 53.116 75.9341 53.2943 75.8508 53.3454C75.7589 53.4127 75.6706 53.4848 75.5864 53.5614C75.5169 53.618 75.4445 53.671 75.3695 53.7201C75.3067 53.7622 75.2476 53.8178 75.1902 53.8644C75.1329 53.911 75.0835 54.0185 75.1302 53.8931Z" fill="#FFFF0E"/>
<path fill-rule="evenodd" clip-rule="evenodd" d="M73.5711 55.483C73.4531 55.5375 73.3369 55.5938 73.2216 55.651C73.2216 55.7046 73.0769 55.8029 73.1484 55.8744C73.1877 55.9137 73.3182 55.8619 73.3566 55.8494C73.431 55.8159 73.4968 55.7658 73.5487 55.7028C73.6122 55.642 73.6059 55.6179 73.5711 55.5437V55.483Z" fill="#FFFF0E"/>
<path fill-rule="evenodd" clip-rule="evenodd" d="M65.6633 63.046C65.3806 63.261 65.0809 63.4526 64.767 63.6187C64.3995 63.8132 64.006 63.962 63.643 64.1664C63.0792 64.4854 62.4823 64.7257 61.8917 64.9874C61.7975 65.0286 60.929 65.3692 61.2571 65.5431C61.4085 65.6237 61.56 65.6076 61.7249 65.6121C61.8603 65.6121 61.9938 65.6515 62.1265 65.6569C62.2591 65.6623 62.4034 65.6569 62.5424 65.6569C63.2666 65.6537 63.9825 65.5012 64.6451 65.2088C64.8024 65.1551 64.9545 65.0873 65.0995 65.0062C65.1804 64.9436 65.2565 64.875 65.3272 64.8009C65.4661 64.6694 65.5803 64.514 65.6642 64.342C65.798 64.1098 65.8682 63.8464 65.8676 63.5784C65.8662 63.4683 65.8283 63.3618 65.7601 63.2754C65.7018 63.2082 65.6328 63.1894 65.6633 63.046Z" fill="#FFFF0E"/>
<path fill-rule="evenodd" clip-rule="evenodd" d="M60.6082 65.2054C60.4496 65.1274 60.2712 65.0073 60.0982 65.0001C60.0378 64.999 59.9776 65.0059 59.919 65.0207C59.7863 65.0485 59.5766 65.0646 59.4753 65.165C59.3212 65.3183 59.6546 65.4402 59.7738 65.4707C59.9418 65.5057 60.1143 65.513 60.2847 65.4922C60.4093 65.476 60.6584 65.3676 60.6575 65.2125L60.6907 65.2054H60.6082Z" fill="#FFFF0E"/>
<path fill-rule="evenodd" clip-rule="evenodd" d="M69.984 63.2484C70.6388 63.0456 71.2746 62.7859 71.8842 62.4722C72.1226 62.3521 72.3583 62.2167 72.5851 62.0751C72.7321 61.9855 72.8791 61.8654 73.0332 61.7883C73.0969 61.7561 73.4814 61.5329 73.5307 61.6395C73.5988 61.7776 73.1829 62.0536 73.1237 62.1065C72.9634 62.2384 72.7962 62.3617 72.6227 62.4758C72.4784 62.578 72.3189 62.629 72.1674 62.716C71.9688 62.8306 71.7632 62.9324 71.5516 63.0207C71.3952 63.0954 71.2334 63.1583 71.0676 63.2089C70.9413 63.2421 70.8149 63.2932 70.6876 63.3219C70.5926 63.3434 70.4967 63.3156 70.4017 63.3389C70.2843 63.3676 70.0638 63.425 69.984 63.2484Z" fill="#FFFF0E"/>
<path fill-rule="evenodd" clip-rule="evenodd" d="M84.395 66.7962C84.715 66.7962 85.0995 66.8294 85.4302 66.7828C85.6704 66.7478 85.9106 66.6931 86.1473 66.6734C86.6232 66.6295 87.0902 66.5067 87.5688 66.4888C87.7579 66.4816 87.9488 66.4888 88.1388 66.4888C88.256 66.4776 88.3739 66.4776 88.4911 66.4888C88.5631 66.5122 88.6303 66.5486 88.6891 66.5963C88.8039 66.72 88.6891 66.7021 88.6138 66.7469C88.4603 66.8472 88.2909 66.9209 88.1128 66.9647C87.8135 67.0275 87.5168 67.109 87.2165 67.152C87.0068 67.1825 86.7971 67.1449 86.5891 67.178C86.3149 67.2167 86.0378 67.2326 85.761 67.2255H85.0726C84.9092 67.2197 84.7464 67.2011 84.5859 67.17C84.4416 67.1502 84.3556 67.178 84.2346 67.1108C84.1781 67.0785 84.0876 66.9916 84.395 66.7962Z" fill="#FFFF0E"/>
<path fill-rule="evenodd" clip-rule="evenodd" d="M92.0988 67.1008C92.5084 67.1375 92.7611 67.1904 93.1304 67.1178C93.3724 67.0721 93.6162 67.0327 93.8582 66.9932C94.2206 66.9242 94.5657 66.7841 94.8737 66.5809C95.0395 66.4743 95.3738 66.2422 95.5907 66.3031C95.6851 66.336 95.7689 66.3934 95.8337 66.4695C95.8984 66.5456 95.9417 66.6376 95.9591 66.736C95.9752 66.9646 95.718 67.1519 95.5602 67.2738C95.286 67.4916 94.8764 67.5705 94.5349 67.5902C94.1217 67.6073 93.7082 67.565 93.307 67.4647C93.1833 67.4369 93.0596 67.4002 92.9359 67.3751C92.8248 67.3518 92.5989 67.3804 92.0988 67.1008Z" fill="#FFFF0E"/>
<path fill-rule="evenodd" clip-rule="evenodd" d="M93.0168 51.998C92.9917 52.2758 92.8187 52.9642 93.1682 53.1882C93.3547 53.3074 93.4434 52.9937 93.4461 52.8521C93.4506 52.6487 93.3197 52.1136 93.0786 52.0589L93.0168 51.998Z" fill="#FFFF0E"/>
<path fill-rule="evenodd" clip-rule="evenodd" d="M35.374 58.3172C35.6644 58.6891 35.8787 59.0763 36.2811 59.3112C36.5159 59.4474 36.7436 59.607 37.0062 59.6858C37.2509 59.7602 37.5655 59.8436 37.8209 59.7862C37.959 59.7548 37.9957 59.8014 37.9886 59.6231C37.974 59.5338 37.9383 59.4493 37.8846 59.3766C37.8012 59.2502 37.6731 59.1687 37.5754 59.0548C37.4588 58.9204 37.3907 58.7913 37.2491 58.6811C36.7803 58.3136 36.343 58.0089 35.7756 57.826C35.5712 57.7597 35.5569 57.7364 35.3767 57.8484C35.2342 57.938 35.2289 57.9013 35.2082 58.0689C35.1805 58.2921 35.3418 58.4687 35.4556 58.6434L35.374 58.3172Z" fill="#FFFF0E"/>
<path fill-rule="evenodd" clip-rule="evenodd" d="M35.6188 64.3465C36.0989 65.0925 36.6305 65.8041 37.2097 66.4761C37.6157 66.961 37.8613 67.5722 38.3256 68.0177C38.4018 68.0912 39.2147 68.7903 39.2057 68.387C39.2057 68.2973 38.9736 67.9334 38.9234 67.8492C38.7895 67.6212 38.6398 67.4028 38.4753 67.1958C38.3282 67.0355 38.1914 66.866 38.0656 66.6885C37.9523 66.5151 37.8233 66.3525 37.6803 66.2027C37.4831 65.984 37.3782 65.7097 37.2043 65.4749C37.043 65.258 36.8781 65.0518 36.7221 64.8314C36.5133 64.5356 36.2973 64.2039 35.9656 64.0794C35.876 64.0471 35.746 63.9512 35.6358 64.0319C35.4565 64.1672 35.5973 64.61 35.6188 64.3465Z" fill="#FFFF0E"/>
<path fill-rule="evenodd" clip-rule="evenodd" d="M65.0511 78.6993C65.7341 78.5774 66.2871 78.469 66.9593 78.6267C67.2891 78.7038 67.6208 78.806 67.9452 78.9028C68.1541 78.9655 68.4714 79.0265 68.6228 79.1824C68.7743 79.3384 68.7268 79.6395 68.5816 79.7838C68.3835 79.981 67.9425 79.938 67.6952 79.9147C67.1931 79.8801 66.696 79.7936 66.2118 79.6565C65.9348 79.5732 65.5476 79.4352 65.3155 79.2514C65.207 79.1672 64.9283 78.9332 65.0511 78.6993Z" fill="#FFFF0E"/>
<path fill-rule="evenodd" clip-rule="evenodd" d="M74.4288 82.3663C74.0828 82.2901 74.0541 81.6726 74.15 81.4261C74.2038 81.2863 74.2916 81.0613 74.4467 80.9967C74.6017 80.9322 74.6609 81.0425 74.7953 81.0909C74.6521 81.3991 74.4744 81.6902 74.2656 81.9585L74.4288 82.3663Z" fill="#FFFF0E"/>
<path fill-rule="evenodd" clip-rule="evenodd" d="M87.3091 82.123C87.7645 81.8264 88.0728 81.6184 88.5693 81.4705C88.8212 81.3952 89.0811 81.3639 89.333 81.2913C89.6278 81.2016 89.9254 81.0618 90.2293 81.0018C90.3395 80.9794 90.4462 80.9856 90.5537 80.9677C90.6756 80.9462 90.6165 80.8861 90.7554 80.9614C91.0108 81.1012 90.8943 81.2895 90.7285 81.4302C90.413 81.6991 90.1441 81.8048 89.7345 81.9007C89.506 81.9536 89.324 82.08 89.1071 82.1508C88.9744 82.192 88.8382 82.2145 88.7011 82.2503C88.1983 82.3785 87.5843 82.2862 87.3091 82.123Z" fill="#FFFF0E"/>
<path fill-rule="evenodd" clip-rule="evenodd" d="M46.2177 81.0635C46.5045 81.6559 46.7447 82.2287 47.1194 82.7584C47.287 82.9986 47.4142 83.2316 47.6858 83.3473C47.9009 83.4369 48.0443 83.4736 48.0766 83.1805C48.0919 83.0291 47.9664 82.8104 47.883 82.6625C47.6428 82.2341 47.3004 81.863 47.0154 81.4713C46.8971 81.2984 46.7593 81.1396 46.6049 80.9981C46.5009 80.9129 46.1926 80.8188 46.2177 81.0635Z" fill="#FFFF0E"/>
<path fill-rule="evenodd" clip-rule="evenodd" d="M58.2032 94.1073C58.8639 93.9572 59.5125 93.7583 60.1437 93.5121C60.4126 93.4135 60.6815 93.4135 60.9566 93.3553C60.9826 93.3499 61.0122 93.297 61.0507 93.288C61.1341 93.2791 61.2183 93.2791 61.3017 93.288C61.3734 93.288 61.6853 93.2468 61.7498 93.288C62.0044 93.4754 61.4603 93.9701 61.3429 94.0947C61.1014 94.3332 60.8107 94.516 60.4912 94.6304C60.1716 94.7448 59.8309 94.788 59.493 94.7571C59.1595 94.723 58.8566 94.5455 58.533 94.5088C58.326 94.4855 57.8698 94.4084 57.8904 94.1144C57.9943 94.1044 58.0989 94.102 58.2032 94.1073Z" fill="#FFFF0E"/>
<path fill-rule="evenodd" clip-rule="evenodd" d="M70.0259 87.1777C69.4164 87.5927 68.7451 87.953 68.3077 88.5652C68.0066 88.9883 68.5578 88.9013 68.8016 88.809C68.9925 88.7409 69.1734 88.6475 69.3393 88.5311C69.478 88.4244 69.6059 88.3043 69.7212 88.1726C69.818 88.0749 69.9408 87.9934 70.0286 87.8912C70.1164 87.789 70.1541 87.5506 70.2598 87.4798C70.241 87.4313 70.2185 87.3842 70.1926 87.3391L70.0259 87.1777Z" fill="#FFFF0E"/>
<path fill-rule="evenodd" clip-rule="evenodd" d="M53.3924 77.8006C53.8361 77.6133 54.2771 77.4555 54.6912 77.2333C55.0766 77.0271 55.4468 76.8138 55.8402 76.6184C56.344 76.3683 56.888 76.0188 57.4715 76.0053C57.692 76 57.8372 75.8933 58.0398 75.9856C58.1937 76.0406 58.3283 76.1394 58.427 76.2697C58.7245 76.6928 58.1348 77.0997 57.8112 77.3175C57.5638 77.4842 57.338 77.6886 57.061 77.8051C56.7374 77.9413 56.3897 78.0032 56.0625 78.1242C55.5203 78.3259 54.9448 78.549 54.3667 78.6198C54.0768 78.644 53.7879 78.5628 53.5529 78.3913C53.4263 78.3117 53.3164 78.2082 53.2293 78.0865C53.1532 77.9736 53.1056 77.789 53.3924 77.8006Z" fill="#FFFF0E"/>
<path style="mix-blend-mode:screen" d="M67.0978 68.9355C72.6308 66.6199 75.9126 61.8668 74.4279 58.3192C72.9432 54.7716 67.2542 53.7729 61.7212 56.0886C56.1882 58.4042 52.9064 63.1573 54.3911 66.7049C55.8758 70.2525 61.5648 71.2512 67.0978 68.9355Z" fill="url(#paint9_radial_402_732)"/>
<path style="mix-blend-mode:screen" d="M48.9579 49.2144C51.0956 46.0176 49.7546 41.3705 45.9627 38.8349C42.1709 36.2994 37.364 36.8354 35.2263 40.0323C33.0886 43.2292 34.4296 47.8762 38.2215 50.4118C42.0134 52.9474 46.8202 52.4113 48.9579 49.2144Z" fill="url(#paint10_radial_402_732)"/>
<path style="mix-blend-mode:screen" d="M100.605 70.6496C102.533 67.7663 101.323 63.5746 97.9023 61.2873C94.4816 58.9999 90.1456 59.483 88.2176 62.3663C86.2895 65.2496 87.4996 69.4413 90.9203 71.7287C94.3411 74.0161 98.6771 73.533 100.605 70.6496Z" fill="url(#paint11_radial_402_732)"/>
<path style="mix-blend-mode:screen" d="M57.6541 96.0438C59.5821 93.1605 58.3721 88.9688 54.9513 86.6814C51.5306 84.394 47.1946 84.8771 45.2666 87.7605C43.3386 90.6438 44.5486 94.8355 47.9693 97.1228C51.3901 99.4102 55.7261 98.9271 57.6541 96.0438Z" fill="url(#paint12_radial_402_732)"/>
<defs>
<radialGradient id="paint0_radial_402_732" cx="0" cy="0" r="1" gradientUnits="userSpaceOnUse" gradientTransform="translate(65.0007 65.0001) rotate(-45) scale(45.0156)">
<stop stop-color="#FF4000"/>
<stop offset="1"/>
</radialGradient>
<radialGradient id="paint1_radial_402_732" cx="0" cy="0" r="1" gradientUnits="userSpaceOnUse" gradientTransform="translate(65 65.0002) scale(35.3553)">
<stop stop-color="#FF7300"/>
<stop offset="1"/>
</radialGradient>
<radialGradient id="paint2_radial_402_732" cx="0" cy="0" r="1" gradientUnits="userSpaceOnUse" gradientTransform="translate(65.0002 65.0002) scale(33.7384)">
<stop stop-color="#FF7900"/>
<stop offset="0.18" stop-color="#FC7800"/>
<stop offset="0.32" stop-color="#F37300"/>
<stop offset="0.43" stop-color="#E36C00"/>
<stop offset="0.54" stop-color="#CC6100"/>
<stop offset="0.64" stop-color="#AF5300"/>
<stop offset="0.74" stop-color="#8C4200"/>
<stop offset="0.83" stop-color="#622E00"/>
<stop offset="0.92" stop-color="#321800"/>
<stop offset="1"/>
</radialGradient>
<radialGradient id="paint3_radial_402_732" cx="0" cy="0" r="1" gradientUnits="userSpaceOnUse" gradientTransform="translate(46.0845 50.1595) scale(49.1198 49.1198)">
<stop offset="0.01" stop-color="#DE6863"/>
<stop offset="0.2" stop-color="#DB6563"/>
<stop offset="0.35" stop-color="#D15D62"/>
<stop offset="0.49" stop-color="#C14F60"/>
<stop offset="0.62" stop-color="#A93B5E"/>
<stop offset="0.74" stop-color="#8B225B"/>
<stop offset="0.86" stop-color="#670357"/>
<stop offset="0.87" stop-color="#630057"/>
</radialGradient>
<linearGradient id="paint4_linear_402_732" x1="34.443" y1="56.0732" x2="78.4297" y2="56.0732" gradientUnits="userSpaceOnUse">
<stop offset="0.01" stop-color="#FF7D85"/>
<stop offset="0.3" stop-color="#FC7B84"/>
<stop offset="0.51" stop-color="#F3757F"/>
<stop offset="0.7" stop-color="#E36B77"/>
<stop offset="0.87" stop-color="#CC5C6C"/>
<stop offset="1" stop-color="#B54D61"/>
</linearGradient>
<radialGradient id="paint5_radial_402_732" cx="0" cy="0" r="1" gradientUnits="userSpaceOnUse" gradientTransform="translate(42.6759 43.6496) scale(40.2482 40.2482)">
<stop stop-color="#FFFF4A"/>
<stop offset="1"/>
</radialGradient>
<linearGradient id="paint6_linear_402_732" x1="34.3031" y1="51.2982" x2="88.3256" y2="51.2982" gradientUnits="userSpaceOnUse">
<stop offset="0.01" stop-color="#FFB80B"/>
<stop offset="0.39" stop-color="#FFB60C"/>
<stop offset="0.58" stop-color="#FEAE10"/>
<stop offset="0.73" stop-color="#FCA117"/>
<stop offset="0.85" stop-color="#FA8E21"/>
<stop offset="0.97" stop-color="#F7762E"/>
<stop offset="1" stop-color="#F66D33"/>
</linearGradient>
<radialGradient id="paint7_radial_402_732" cx="0" cy="0" r="1" gradientUnits="userSpaceOnUse" gradientTransform="translate(39.0455 78.7708) scale(15.531)">
<stop offset="0.01" stop-color="#FFB80B"/>
<stop offset="0.39" stop-color="#FFB60C"/>
<stop offset="0.58" stop-color="#FEAE10"/>
<stop offset="0.73" stop-color="#FCA117"/>
<stop offset="0.85" stop-color="#FA8E21"/>
<stop offset="0.97" stop-color="#F7762E"/>
<stop offset="1" stop-color="#F66D33"/>
</radialGradient>
<linearGradient id="paint8_linear_402_732" x1="33.2624" y1="73.5913" x2="96.6046" y2="73.5913" gradientUnits="userSpaceOnUse">
<stop offset="0.01" stop-color="#FFB80B"/>
<stop offset="0.39" stop-color="#FFB60C"/>
<stop offset="0.58" stop-color="#FEAE10"/>
<stop offset="0.73" stop-color="#FCA117"/>
<stop offset="0.85" stop-color="#FA8E21"/>
<stop offset="0.97" stop-color="#F7762E"/>
<stop offset="1" stop-color="#F66D33"/>
</linearGradient>
<radialGradient id="paint9_radial_402_732" cx="0" cy="0" r="1" gradientUnits="userSpaceOnUse" gradientTransform="translate(65.3593 62.1604) rotate(-22.71) scale(10.8803 6.97125)">
<stop stop-color="#FF5B00"/>
<stop offset="0.17" stop-color="#C54600"/>
<stop offset="0.4" stop-color="#802E00"/>
<stop offset="0.6" stop-color="#491A00"/>
<stop offset="0.78" stop-color="#210C00"/>
<stop offset="0.92" stop-color="#090300"/>
<stop offset="1"/>
</radialGradient>
<radialGradient id="paint10_radial_402_732" cx="0" cy="0" r="1" gradientUnits="userSpaceOnUse" gradientTransform="translate(42.5325 45.0685) rotate(33.77) scale(8.27429 6.97124)">
<stop stop-color="#FF5B00"/>
<stop offset="0.17" stop-color="#C54600"/>
<stop offset="0.4" stop-color="#802E00"/>
<stop offset="0.6" stop-color="#491A00"/>
<stop offset="0.78" stop-color="#210C00"/>
<stop offset="0.92" stop-color="#090300"/>
<stop offset="1"/>
</radialGradient>
<radialGradient id="paint11_radial_402_732" cx="0" cy="0" r="1" gradientUnits="userSpaceOnUse" gradientTransform="translate(94.9416 66.9983) rotate(33.77) scale(7.46382 6.28842)">
<stop stop-color="#FF5B00"/>
<stop offset="0.17" stop-color="#C54600"/>
<stop offset="0.4" stop-color="#802E00"/>
<stop offset="0.6" stop-color="#491A00"/>
<stop offset="0.78" stop-color="#210C00"/>
<stop offset="0.92" stop-color="#090300"/>
<stop offset="1"/>
</radialGradient>
<radialGradient id="paint12_radial_402_732" cx="0" cy="0" r="1" gradientUnits="userSpaceOnUse" gradientTransform="translate(51.9289 92.4143) rotate(33.77) scale(7.46381 6.28842)">
<stop stop-color="#FF5B00"/>
<stop offset="0.17" stop-color="#C54600"/>
<stop offset="0.4" stop-color="#802E00"/>
<stop offset="0.6" stop-color="#491A00"/>
<stop offset="0.78" stop-color="#210C00"/>
<stop offset="0.92" stop-color="#090300"/>
<stop offset="1"/>
</radialGradient>
</defs>
</svg>
